<svg width="201" height="158" viewBox="0 0 201 158" fill="none" xmlns="http://www.w3.org/2000/svg">
<g filter="url(#filter0_bd_366_889)">
<mask id="path-1-inside-1_366_889" fill="white">
<path fill-rule="evenodd" clip-rule="evenodd" d="M112.361 69.3345C112.396 69.3349 112.431 69.3351 112.466 69.3351C117.455 69.3351 121.5 65.2906 121.5 60.3015C121.5 55.3124 117.455 51.2679 112.466 51.2679C112.431 51.2679 112.396 51.2681 112.361 51.2685V51.2679H110.028C110.112 50.6497 110.155 50.0185 110.155 49.3771C110.155 41.7194 103.948 35.5116 96.2899 35.5116C88.6322 35.5116 82.4244 41.7194 82.4244 49.3771C82.4244 50.0997 82.4796 50.8094 82.5862 51.5021C81.9268 51.3489 81.2396 51.2679 80.5336 51.2679C75.5445 51.2679 71.5 55.3124 71.5 60.3015C71.5 65.2906 75.5445 69.3351 80.5336 69.3351C80.5688 69.3351 80.604 69.3349 80.6391 69.3345L80.6387 69.3351H112.361V69.3345Z"/>
</mask>
<path fill-rule="evenodd" clip-rule="evenodd" d="M112.361 69.3345C112.396 69.3349 112.431 69.3351 112.466 69.3351C117.455 69.3351 121.5 65.2906 121.5 60.3015C121.5 55.3124 117.455 51.2679 112.466 51.2679C112.431 51.2679 112.396 51.2681 112.361 51.2685V51.2679H110.028C110.112 50.6497 110.155 50.0185 110.155 49.3771C110.155 41.7194 103.948 35.5116 96.2899 35.5116C88.6322 35.5116 82.4244 41.7194 82.4244 49.3771C82.4244 50.0997 82.4796 50.8094 82.5862 51.5021C81.9268 51.3489 81.2396 51.2679 80.5336 51.2679C75.5445 51.2679 71.5 55.3124 71.5 60.3015C71.5 65.2906 75.5445 69.3351 80.5336 69.3351C80.5688 69.3351 80.604 69.3349 80.6391 69.3345L80.6387 69.3351H112.361V69.3345Z" fill="url(#paint0_linear_366_889)" shape-rendering="crispEdges"/>
<path d="M112.361 69.3345L112.367 68.8346C112.233 68.833 112.105 68.885 112.01 68.979C111.915 69.0729 111.861 69.2009 111.861 69.3345H112.361ZM112.361 51.2685H111.861C111.861 51.4021 111.915 51.5301 112.01 51.6241C112.105 51.718 112.233 51.77 112.367 51.7685L112.361 51.2685ZM112.361 51.2679H112.861C112.861 50.9918 112.638 50.7679 112.361 50.7679V51.2679ZM110.028 51.2679L109.532 51.2003C109.513 51.3434 109.556 51.4879 109.651 51.5967C109.746 51.7055 109.883 51.7679 110.028 51.7679V51.2679ZM82.5862 51.5021L82.473 51.9891C82.6347 52.0267 82.8044 51.9816 82.9261 51.8688C83.0478 51.756 83.1056 51.5901 83.0804 51.4261L82.5862 51.5021ZM80.6391 69.3345L81.0316 69.6444C81.151 69.4932 81.1728 69.2868 81.0878 69.1139C81.0029 68.941 80.8261 68.8324 80.6334 68.8346L80.6391 69.3345ZM80.6387 69.3351L80.2462 69.0253C80.1275 69.1757 80.1051 69.3807 80.1887 69.5532C80.2723 69.7256 80.447 69.8351 80.6387 69.8351V69.3351ZM112.361 69.3351V69.8351C112.638 69.8351 112.861 69.6113 112.861 69.3351H112.361ZM112.356 69.8345C112.392 69.8349 112.429 69.8351 112.466 69.8351V68.8351C112.433 68.8351 112.4 68.8349 112.367 68.8346L112.356 69.8345ZM112.466 69.8351C117.732 69.8351 122 65.5668 122 60.3015H121C121 65.0145 117.179 68.8351 112.466 68.8351V69.8351ZM122 60.3015C122 55.0362 117.732 50.7679 112.466 50.7679V51.7679C117.179 51.7679 121 55.5885 121 60.3015H122ZM112.466 50.7679C112.429 50.7679 112.393 50.7681 112.356 50.7685L112.367 51.7685C112.4 51.7681 112.433 51.7679 112.466 51.7679V50.7679ZM111.861 51.2679V51.2685H112.861V51.2679H111.861ZM110.028 51.7679H112.361V50.7679H110.028V51.7679ZM110.523 51.3354C110.61 50.6949 110.655 50.0412 110.655 49.3771H109.655C109.655 49.9958 109.613 50.6045 109.532 51.2003L110.523 51.3354ZM110.655 49.3771C110.655 41.4433 104.224 35.0116 96.2899 35.0116V36.0116C103.672 36.0116 109.655 41.9956 109.655 49.3771H110.655ZM96.2899 35.0116C88.356 35.0116 81.9244 41.4433 81.9244 49.3771H82.9244C82.9244 41.9956 88.9083 36.0116 96.2899 36.0116V35.0116ZM81.9244 49.3771C81.9244 50.1252 81.9816 50.8603 82.092 51.5781L83.0804 51.4261C82.9777 50.7584 82.9244 50.0742 82.9244 49.3771H81.9244ZM82.6993 51.0151C82.0031 50.8533 81.278 50.7679 80.5336 50.7679V51.7679C81.2013 51.7679 81.8504 51.8445 82.473 51.9891L82.6993 51.0151ZM80.5336 50.7679C75.2683 50.7679 71 55.0362 71 60.3015H72C72 55.5885 75.8206 51.7679 80.5336 51.7679V50.7679ZM71 60.3015C71 65.5668 75.2683 69.8351 80.5336 69.8351V68.8351C75.8206 68.8351 72 65.0145 72 60.3015H71ZM80.5336 69.8351C80.5708 69.8351 80.6078 69.8349 80.6448 69.8345L80.6334 68.8346C80.6002 68.8349 80.5669 68.8351 80.5336 68.8351V69.8351ZM81.0311 69.645L81.0316 69.6444L80.2467 69.0247L80.2462 69.0253L81.0311 69.645ZM112.361 68.8351H80.6387V69.8351H112.361V68.8351ZM111.861 69.3345V69.3351H112.861V69.3345H111.861Z" fill="url(#paint1_linear_366_889)" mask="url(#path-1-inside-1_366_889)"/>
</g>
<g filter="url(#filter1_bd_366_889)">
<mask id="path-3-inside-2_366_889" fill="white">
<path fill-rule="evenodd" clip-rule="evenodd" d="M139.669 92.4875C139.717 92.4881 139.765 92.4883 139.814 92.4883C146.718 92.4883 152.314 86.8919 152.314 79.9883C152.314 73.0848 146.718 67.4883 139.814 67.4883C139.765 67.4883 139.717 67.4886 139.669 67.4892V67.4883H136.439C136.556 66.6329 136.616 65.7595 136.616 64.8721C136.616 54.2759 128.026 45.686 117.43 45.686C106.834 45.686 98.2442 54.2759 98.2442 64.8721C98.2442 65.8719 98.3207 66.8538 98.4681 67.8124C97.5556 67.6004 96.6049 67.4883 95.6279 67.4883C88.7243 67.4883 83.1279 73.0848 83.1279 79.9883C83.1279 86.8919 88.7243 92.4883 95.6279 92.4883C95.6766 92.4883 95.7253 92.4881 95.7739 92.4875L95.7733 92.4883H139.669V92.4875Z"/>
</mask>
<path fill-rule="evenodd" clip-rule="evenodd" d="M139.669 92.4875C139.717 92.4881 139.765 92.4883 139.814 92.4883C146.718 92.4883 152.314 86.8919 152.314 79.9883C152.314 73.0848 146.718 67.4883 139.814 67.4883C139.765 67.4883 139.717 67.4886 139.669 67.4892V67.4883H136.439C136.556 66.6329 136.616 65.7595 136.616 64.8721C136.616 54.2759 128.026 45.686 117.43 45.686C106.834 45.686 98.2442 54.2759 98.2442 64.8721C98.2442 65.8719 98.3207 66.8538 98.4681 67.8124C97.5556 67.6004 96.6049 67.4883 95.6279 67.4883C88.7243 67.4883 83.1279 73.0848 83.1279 79.9883C83.1279 86.8919 88.7243 92.4883 95.6279 92.4883C95.6766 92.4883 95.7253 92.4881 95.7739 92.4875L95.7733 92.4883H139.669V92.4875Z" fill="url(#paint2_linear_366_889)" shape-rendering="crispEdges"/>
<path d="M139.669 92.4875L139.674 91.9875C139.541 91.986 139.412 92.038 139.317 92.1319C139.222 92.2259 139.169 92.3539 139.169 92.4875H139.669ZM139.669 67.4892H139.169C139.169 67.6228 139.222 67.7508 139.317 67.8447C139.412 67.9387 139.541 67.9907 139.674 67.9891L139.669 67.4892ZM139.669 67.4883H140.169C140.169 67.2122 139.945 66.9883 139.669 66.9883V67.4883ZM136.439 67.4883L135.944 67.4208C135.924 67.5639 135.968 67.7084 136.063 67.8171C136.158 67.9259 136.295 67.9883 136.439 67.9883V67.4883ZM98.4681 67.8124L98.3549 68.2994C98.5166 68.337 98.6863 68.2919 98.808 68.1791C98.9297 68.0663 98.9875 67.9004 98.9623 67.7364L98.4681 67.8124ZM95.7739 92.4875L96.1665 92.7972C96.2858 92.6459 96.3076 92.4396 96.2226 92.2668C96.1375 92.094 95.9608 91.9853 95.7682 91.9875L95.7739 92.4875ZM95.7733 92.4883L95.3807 92.1787C95.262 92.3291 95.2398 92.5341 95.3233 92.7065C95.4069 92.8789 95.5817 92.9883 95.7733 92.9883V92.4883ZM139.669 92.4883V92.9883C139.945 92.9883 140.169 92.7645 140.169 92.4883H139.669ZM139.663 92.9875C139.713 92.9881 139.764 92.9883 139.814 92.9883V91.9883C139.767 91.9883 139.721 91.9881 139.674 91.9875L139.663 92.9875ZM139.814 92.9883C146.994 92.9883 152.814 87.168 152.814 79.9883H151.814C151.814 86.6158 146.441 91.9883 139.814 91.9883V92.9883ZM152.814 79.9883C152.814 72.8086 146.994 66.9883 139.814 66.9883V67.9883C146.441 67.9883 151.814 73.3609 151.814 79.9883H152.814ZM139.814 66.9883C139.764 66.9883 139.713 66.9886 139.663 66.9892L139.674 67.9891C139.721 67.9886 139.767 67.9883 139.814 67.9883V66.9883ZM139.169 67.4883V67.4892H140.169V67.4883H139.169ZM136.439 67.9883H139.669V66.9883H136.439V67.9883ZM136.935 67.5559C137.054 66.6781 137.116 65.7822 137.116 64.8721H136.116C136.116 65.7369 136.058 66.5877 135.944 67.4208L136.935 67.5559ZM137.116 64.8721C137.116 53.9998 128.303 45.186 117.43 45.186V46.186C127.75 46.186 136.116 54.552 136.116 64.8721H137.116ZM117.43 45.186C106.558 45.186 97.7442 53.9998 97.7442 64.8721H98.7442C98.7442 54.552 107.11 46.186 117.43 46.186V45.186ZM97.7442 64.8721C97.7442 65.8974 97.8226 66.9048 97.9739 67.8884L98.9623 67.7364C98.8187 66.8029 98.7442 65.8464 98.7442 64.8721H97.7442ZM98.5812 67.3254C97.632 67.1048 96.6432 66.9883 95.6279 66.9883V67.9883C96.5665 67.9883 97.4793 68.096 98.3549 68.2994L98.5812 67.3254ZM95.6279 66.9883C88.4482 66.9883 82.6279 72.8086 82.6279 79.9883H83.6279C83.6279 73.3609 89.0005 67.9883 95.6279 67.9883V66.9883ZM82.6279 79.9883C82.6279 87.168 88.4482 92.9883 95.6279 92.9883V91.9883C89.0005 91.9883 83.6279 86.6158 83.6279 79.9883H82.6279ZM95.6279 92.9883C95.6785 92.9883 95.7291 92.9881 95.7796 92.9875L95.7682 91.9875C95.7215 91.9881 95.6747 91.9883 95.6279 91.9883V92.9883ZM96.1658 92.798L96.1665 92.7972L95.3813 92.1778L95.3807 92.1787L96.1658 92.798ZM139.669 91.9883H95.7733V92.9883H139.669V91.9883ZM139.169 92.4875V92.4883H140.169V92.4875H139.169Z" fill="url(#paint3_linear_366_889)" mask="url(#path-3-inside-2_366_889)"/>
</g>
<g filter="url(#filter2_bd_366_889)">
<mask id="path-5-inside-3_366_889" fill="white">
<path fill-rule="evenodd" clip-rule="evenodd" d="M162.361 79.5089C162.396 79.5093 162.431 79.5095 162.466 79.5095C167.455 79.5095 171.5 75.4651 171.5 70.4759C171.5 65.4868 167.455 61.4423 162.466 61.4423C162.431 61.4423 162.396 61.4425 162.361 61.4429V61.4423H160.028C160.112 60.8241 160.155 60.1929 160.155 59.5516C160.155 51.8938 153.948 45.686 146.29 45.686C138.632 45.686 132.424 51.8938 132.424 59.5516C132.424 60.2741 132.48 60.9838 132.586 61.6765C131.927 61.5233 131.24 61.4423 130.534 61.4423C125.544 61.4423 121.5 65.4868 121.5 70.4759C121.5 75.4651 125.544 79.5095 130.534 79.5095C130.569 79.5095 130.604 79.5093 130.639 79.5089L130.639 79.5095H162.361V79.5089Z"/>
</mask>
<path fill-rule="evenodd" clip-rule="evenodd" d="M162.361 79.5089C162.396 79.5093 162.431 79.5095 162.466 79.5095C167.455 79.5095 171.5 75.4651 171.5 70.4759C171.5 65.4868 167.455 61.4423 162.466 61.4423C162.431 61.4423 162.396 61.4425 162.361 61.4429V61.4423H160.028C160.112 60.8241 160.155 60.1929 160.155 59.5516C160.155 51.8938 153.948 45.686 146.29 45.686C138.632 45.686 132.424 51.8938 132.424 59.5516C132.424 60.2741 132.48 60.9838 132.586 61.6765C131.927 61.5233 131.24 61.4423 130.534 61.4423C125.544 61.4423 121.5 65.4868 121.5 70.4759C121.5 75.4651 125.544 79.5095 130.534 79.5095C130.569 79.5095 130.604 79.5093 130.639 79.5089L130.639 79.5095H162.361V79.5089Z" fill="url(#paint4_linear_366_889)" shape-rendering="crispEdges"/>
<path d="M162.361 79.5089L162.367 79.009C162.233 79.0075 162.105 79.0595 162.01 79.1534C161.915 79.2473 161.861 79.3753 161.861 79.5089H162.361ZM162.361 61.4429H161.861C161.861 61.5765 161.915 61.7045 162.01 61.7985C162.105 61.8924 162.233 61.9444 162.367 61.9429L162.361 61.4429ZM162.361 61.4423H162.861C162.861 61.1662 162.638 60.9423 162.361 60.9423V61.4423ZM160.028 61.4423L159.532 61.3748C159.513 61.5178 159.556 61.6623 159.651 61.7711C159.746 61.8799 159.883 61.9423 160.028 61.9423V61.4423ZM132.586 61.6765L132.473 62.1635C132.635 62.2011 132.804 62.156 132.926 62.0432C133.048 61.9304 133.106 61.7645 133.08 61.6005L132.586 61.6765ZM130.639 79.5089L131.032 79.8188C131.151 79.6676 131.173 79.4612 131.088 79.2883C131.003 79.1154 130.826 79.0068 130.633 79.009L130.639 79.5089ZM130.639 79.5095L130.246 79.1997C130.127 79.3501 130.105 79.5551 130.189 79.7276C130.272 79.9 130.447 80.0095 130.639 80.0095V79.5095ZM162.361 79.5095V80.0095C162.638 80.0095 162.861 79.7857 162.861 79.5095H162.361ZM162.356 80.0089C162.392 80.0093 162.429 80.0095 162.466 80.0095V79.0095C162.433 79.0095 162.4 79.0093 162.367 79.009L162.356 80.0089ZM162.466 80.0095C167.732 80.0095 172 75.7412 172 70.4759H171C171 75.1889 167.179 79.0095 162.466 79.0095V80.0095ZM172 70.4759C172 65.2107 167.732 60.9423 162.466 60.9423V61.9423C167.179 61.9423 171 65.7629 171 70.4759H172ZM162.466 60.9423C162.429 60.9423 162.393 60.9425 162.356 60.9429L162.367 61.9429C162.4 61.9425 162.433 61.9423 162.466 61.9423V60.9423ZM161.861 61.4423V61.4429H162.861V61.4423H161.861ZM160.028 61.9423H162.361V60.9423H160.028V61.9423ZM160.523 61.5099C160.61 60.8693 160.655 60.2156 160.655 59.5516H159.655C159.655 60.1703 159.613 60.7789 159.532 61.3748L160.523 61.5099ZM160.655 59.5516C160.655 51.6177 154.224 45.186 146.29 45.186V46.186C153.672 46.186 159.655 52.17 159.655 59.5516H160.655ZM146.29 45.186C138.356 45.186 131.924 51.6177 131.924 59.5516H132.924C132.924 52.17 138.908 46.186 146.29 46.186V45.186ZM131.924 59.5516C131.924 60.2997 131.982 61.0347 132.092 61.7525L133.08 61.6005C132.978 60.9328 132.924 60.2486 132.924 59.5516H131.924ZM132.699 61.1895C132.003 61.0277 131.278 60.9423 130.534 60.9423V61.9423C131.201 61.9423 131.85 62.0189 132.473 62.1635L132.699 61.1895ZM130.534 60.9423C125.268 60.9423 121 65.2107 121 70.4759H122C122 65.7629 125.821 61.9423 130.534 61.9423V60.9423ZM121 70.4759C121 75.7412 125.268 80.0095 130.534 80.0095V79.0095C125.821 79.0095 122 75.1889 122 70.4759H121ZM130.534 80.0095C130.571 80.0095 130.608 80.0093 130.645 80.0089L130.633 79.009C130.6 79.0093 130.567 79.0095 130.534 79.0095V80.0095ZM131.031 79.8194L131.032 79.8188L130.247 79.1991L130.246 79.1997L131.031 79.8194ZM162.361 79.0095H130.639V80.0095H162.361V79.0095ZM161.861 79.5089V79.5095H162.861V79.5089H161.861Z" fill="url(#paint5_linear_366_889)" mask="url(#path-5-inside-3_366_889)"/>
</g>
<defs>
<filter id="filter0_bd_366_889" x="0.5" y="0.511597" width="150" height="133.823" filterUnits="userSpaceOnUse" color-interpolation-filters="sRGB">
<feFlood flood-opacity="0" result="BackgroundImageFix"/>
<feGaussianBlur in="BackgroundImageFix" stdDeviation="7"/>
<feComposite in2="SourceAlpha" operator="in" result="effect1_backgroundBlur_366_889"/>
<feColorMatrix in="SourceAlpha" type="matrix" values="0 0 0 0 0 0 0 0 0 0 0 0 0 0 0 0 0 0 127 0" result="hardAlpha"/>
<feOffset dx="-21" dy="15"/>
<feGaussianBlur stdDeviation="25"/>
<feComposite in2="hardAlpha" operator="out"/>
<feColorMatrix type="matrix" values="0 0 0 0 0.113438 0 0 0 0 0.148981 0 0 0 0 0.275 0 0 0 0.25 0"/>
<feBlend mode="normal" in2="effect1_backgroundBlur_366_889" result="effect2_dropShadow_366_889"/>
<feBlend mode="normal" in="SourceGraphic" in2="effect2_dropShadow_366_889" result="shape"/>
</filter>
<filter id="filter1_bd_366_889" x="12.1279" y="10.686" width="169.186" height="146.802" filterUnits="userSpaceOnUse" color-interpolation-filters="sRGB">
<feFlood flood-opacity="0" result="BackgroundImageFix"/>
<feGaussianBlur in="BackgroundImageFix" stdDeviation="7"/>
<feComposite in2="SourceAlpha" operator="in" result="effect1_backgroundBlur_366_889"/>
<feColorMatrix in="SourceAlpha" type="matrix" values="0 0 0 0 0 0 0 0 0 0 0 0 0 0 0 0 0 0 127 0" result="hardAlpha"/>
<feOffset dx="-21" dy="15"/>
<feGaussianBlur stdDeviation="25"/>
<feComposite in2="hardAlpha" operator="out"/>
<feColorMatrix type="matrix" values="0 0 0 0 0.113725 0 0 0 0 0.14902 0 0 0 0 0.27451 0 0 0 0.25 0"/>
<feBlend mode="normal" in2="effect1_backgroundBlur_366_889" result="effect2_dropShadow_366_889"/>
<feBlend mode="normal" in="SourceGraphic" in2="effect2_dropShadow_366_889" result="shape"/>
</filter>
<filter id="filter2_bd_366_889" x="50.5" y="10.686" width="150" height="133.823" filterUnits="userSpaceOnUse" color-interpolation-filters="sRGB">
<feFlood flood-opacity="0" result="BackgroundImageFix"/>
<feGaussianBlur in="BackgroundImageFix" stdDeviation="7"/>
<feComposite in2="SourceAlpha" operator="in" result="effect1_backgroundBlur_366_889"/>
<feColorMatrix in="SourceAlpha" type="matrix" values="0 0 0 0 0 0 0 0 0 0 0 0 0 0 0 0 0 0 127 0" result="hardAlpha"/>
<feOffset dx="-21" dy="15"/>
<feGaussianBlur stdDeviation="25"/>
<feComposite in2="hardAlpha" operator="out"/>
<feColorMatrix type="matrix" values="0 0 0 0 0.113438 0 0 0 0 0.148981 0 0 0 0 0.275 0 0 0 0.25 0"/>
<feBlend mode="normal" in2="effect1_backgroundBlur_366_889" result="effect2_dropShadow_366_889"/>
<feBlend mode="normal" in="SourceGraphic" in2="effect2_dropShadow_366_889" result="shape"/>
</filter>
<linearGradient id="paint0_linear_366_889" x1="98.8256" y1="36.529" x2="98.8256" y2="73.1569" gradientUnits="userSpaceOnUse">
<stop stop-color="white"/>
<stop offset="1" stop-color="white" stop-opacity="0"/>
</linearGradient>
<linearGradient id="paint1_linear_366_889" x1="96.5" y1="35.5116" x2="96.5" y2="69.3351" gradientUnits="userSpaceOnUse">
<stop stop-color="white"/>
<stop offset="1" stop-color="white" stop-opacity="0"/>
</linearGradient>
<linearGradient id="paint2_linear_366_889" x1="117.721" y1="30.7151" x2="117.721" y2="99.0291" gradientUnits="userSpaceOnUse">
<stop stop-color="white"/>
<stop offset="1" stop-color="white" stop-opacity="0"/>
</linearGradient>
<linearGradient id="paint3_linear_366_889" x1="117.721" y1="45.686" x2="117.721" y2="92.4884" gradientUnits="userSpaceOnUse">
<stop stop-color="white"/>
<stop offset="1" stop-color="white" stop-opacity="0"/>
</linearGradient>
<linearGradient id="paint4_linear_366_889" x1="148.826" y1="46.7035" x2="148.826" y2="83.3314" gradientUnits="userSpaceOnUse">
<stop stop-color="white"/>
<stop offset="1" stop-color="white" stop-opacity="0"/>
</linearGradient>
<linearGradient id="paint5_linear_366_889" x1="146.5" y1="45.686" x2="146.5" y2="79.5096" gradientUnits="userSpaceOnUse">
<stop stop-color="white"/>
<stop offset="1" stop-color="white" stop-opacity="0"/>
</linearGradient>
</defs>
</svg>
