<svg width="100" height="76" viewBox="0 0 100 76" fill="none" xmlns="http://www.w3.org/2000/svg">
<path d="M56.2521 18.9394C71.6576 18.9394 80.3947 28.8763 81.6634 40.8712H82.0509C91.9629 40.8712 100 48.6806 100 58.3144C100 67.9482 91.9629 75.7576 82.0509 75.7576H30.4534C20.5414 75.7576 12.5043 67.9482 12.5043 58.3144C12.5043 48.6806 20.5414 40.8712 30.4534 40.8712H30.8409C32.1221 28.7942 40.8466 18.9394 56.2521 18.9394ZM39.9529 2.20048e-07C49.0525 2.20048e-07 56.9896 5.22727 60.9082 12.9104C59.3634 12.719 57.8084 12.6242 56.2521 12.6263C41.3154 12.6263 30.4284 20.8775 26.5411 33.3712L26.1536 34.7222L25.8661 35.9028L24.8349 36.0922C21.0608 36.8687 17.5356 38.5768 14.5738 41.0642C11.612 43.5515 9.30575 46.7407 7.86074 50.3472C4.88344 48.5149 2.56228 45.7711 1.23465 42.5147C-0.0929663 39.2583 -0.357839 35.659 0.478539 32.2401C1.31492 28.8212 3.20895 25.7609 5.88531 23.504C8.56168 21.2471 11.8809 19.9112 15.3604 19.6907L16.7478 19.6591C17.7115 14.1498 20.5657 9.15954 24.8093 5.56445C29.0528 1.96935 34.4145 -0.000760202 39.9529 2.20048e-07Z" fill="#CAD7DF"/>
</svg>
