<svg width="201" height="189" viewBox="0 0 201 189" fill="none" xmlns="http://www.w3.org/2000/svg">
<g filter="url(#filter0_bdd_366_881)">
<mask id="path-1-inside-1_366_881" fill="white">
<path fill-rule="evenodd" clip-rule="evenodd" d="M111.693 38.4326C114.816 36.8712 117.2 40.9002 116.498 44.3199C115.706 48.1738 116.174 52.3137 118.114 56.0848C121.046 61.784 126.616 65.2401 132.565 65.7286C136.048 66.0145 139.269 69.4317 136.897 71.9976C135.25 73.7795 133.269 75.3086 130.986 76.4829C120.51 81.8715 107.649 77.7472 102.26 67.2709C96.8713 56.7946 100.996 43.9335 111.472 38.5448C111.546 38.5069 111.619 38.4695 111.693 38.4326Z"/>
</mask>
<path fill-rule="evenodd" clip-rule="evenodd" d="M111.693 38.4326C114.816 36.8712 117.2 40.9002 116.498 44.3199C115.706 48.1738 116.174 52.3137 118.114 56.0848C121.046 61.784 126.616 65.2401 132.565 65.7286C136.048 66.0145 139.269 69.4317 136.897 71.9976C135.25 73.7795 133.269 75.3086 130.986 76.4829C120.51 81.8715 107.649 77.7472 102.26 67.2709C96.8713 56.7946 100.996 43.9335 111.472 38.5448C111.546 38.5069 111.619 38.4695 111.693 38.4326Z" fill="url(#paint0_linear_366_881)"/>
<path d="M136.897 71.9976L137.264 72.337L136.897 71.9976ZM118.559 55.8561C116.673 52.19 116.217 48.1668 116.987 44.4205L116.008 44.2192C115.194 48.1808 115.676 52.4373 117.67 56.3135L118.559 55.8561ZM132.606 65.2303C126.822 64.7553 121.408 61.3954 118.559 55.8561L117.67 56.3135C120.683 62.1726 126.41 65.7249 132.524 66.2269L132.606 65.2303ZM136.53 71.6582C134.922 73.3979 132.988 74.8911 130.757 76.0382L131.215 76.9275C133.55 75.7261 135.578 74.1612 137.264 72.337L136.53 71.6582ZM130.757 76.0382C120.527 81.3006 107.967 77.273 102.705 67.0422L101.815 67.4996C107.33 78.2215 120.493 82.4425 131.215 76.9275L130.757 76.0382ZM102.705 67.0422C97.4423 56.8115 101.47 44.2518 111.701 38.9894L111.243 38.1002C100.521 43.6152 96.3004 56.7777 101.815 67.4996L102.705 67.0422ZM111.701 38.9894C111.773 38.9524 111.845 38.9159 111.917 38.8798L111.47 37.9854C111.394 38.0232 111.319 38.0614 111.243 38.1002L111.701 38.9894ZM132.524 66.2269C134.131 66.3588 135.677 67.219 136.532 68.3156C136.956 68.8597 137.192 69.4373 137.211 69.9925C137.229 70.5363 137.041 71.1055 136.53 71.6582L137.264 72.337C137.939 71.6068 138.238 70.7866 138.21 69.9591C138.183 69.1429 137.841 68.3673 137.321 67.7006C136.288 66.3756 134.481 65.3842 132.606 65.2303L132.524 66.2269ZM116.987 44.4205C117.366 42.5784 116.919 40.5723 115.935 39.2149C115.44 38.5319 114.79 37.9892 114.014 37.7373C113.228 37.482 112.358 37.5411 111.47 37.9854L111.917 38.8798C112.59 38.5433 113.189 38.5206 113.706 38.6884C114.233 38.8597 114.722 39.2453 115.125 39.8018C115.938 40.9235 116.332 42.6417 116.008 44.2192L116.987 44.4205Z" fill="url(#paint1_linear_366_881)" mask="url(#path-1-inside-1_366_881)"/>
</g>
<mask id="mask0_366_881" style="mask-type:alpha" maskUnits="userSpaceOnUse" x="108" y="63" width="40" height="29">
<path d="M147.437 71.9847C147.437 82.7034 138.748 91.3926 128.029 91.3926C117.311 91.3926 108.622 82.7034 108.622 71.9847C108.622 61.266 115.831 63.761 126.549 63.761C137.268 63.761 147.437 61.266 147.437 71.9847Z" fill="url(#paint2_linear_366_881)"/>
</mask>
<g mask="url(#mask0_366_881)">
<g filter="url(#filter1_f_366_881)">
<path fill-rule="evenodd" clip-rule="evenodd" d="M93.6553 121.655C93.6002 121.655 93.5451 121.656 93.49 121.656C85.678 121.656 79.3452 115.323 79.3452 107.511C79.3452 99.699 85.678 93.3662 93.49 93.3662C100.224 93.3662 105.858 98.0715 107.286 104.374L112.076 98.3005L127.043 93.3663H143.326V93.3672C143.38 93.3666 143.435 93.3663 143.49 93.3663C151.302 93.3663 157.635 99.6991 157.635 107.511C157.635 115.323 151.302 121.656 143.49 121.656C143.435 121.656 143.38 121.655 143.326 121.655V121.656H93.6545L93.6553 121.655Z" fill="#E18700"/>
</g>
</g>
<g filter="url(#filter2_bd_366_881)">
<mask id="path-5-inside-2_366_881" fill="white">
<path fill-rule="evenodd" clip-rule="evenodd" d="M135.102 123.3C135.157 123.3 135.211 123.3 135.266 123.3C143.078 123.3 149.411 116.968 149.411 109.156C149.411 101.344 143.078 95.011 135.266 95.011C135.211 95.011 135.157 95.0113 135.102 95.0119V95.011H131.448C131.58 94.043 131.648 93.0547 131.648 92.0505C131.648 80.0601 121.928 70.3399 109.937 70.3399C97.947 70.3399 88.2268 80.0601 88.2268 92.0505C88.2268 93.1818 88.3134 94.293 88.4802 95.3777C87.4477 95.1378 86.3718 95.011 85.2663 95.011C77.4544 95.011 71.1216 101.344 71.1216 109.156C71.1216 116.968 77.4544 123.3 85.2663 123.3C85.3215 123.3 85.3765 123.3 85.4315 123.3L85.4308 123.3H135.102V123.3Z"/>
</mask>
<path fill-rule="evenodd" clip-rule="evenodd" d="M135.102 123.3C135.157 123.3 135.211 123.3 135.266 123.3C143.078 123.3 149.411 116.968 149.411 109.156C149.411 101.344 143.078 95.011 135.266 95.011C135.211 95.011 135.157 95.0113 135.102 95.0119V95.011H131.448C131.58 94.043 131.648 93.0547 131.648 92.0505C131.648 80.0601 121.928 70.3399 109.937 70.3399C97.947 70.3399 88.2268 80.0601 88.2268 92.0505C88.2268 93.1818 88.3134 94.293 88.4802 95.3777C87.4477 95.1378 86.3718 95.011 85.2663 95.011C77.4544 95.011 71.1216 101.344 71.1216 109.156C71.1216 116.968 77.4544 123.3 85.2663 123.3C85.3215 123.3 85.3765 123.3 85.4315 123.3L85.4308 123.3H135.102V123.3Z" fill="url(#paint3_linear_366_881)" shape-rendering="crispEdges"/>
<path d="M135.102 123.3L135.108 122.8C134.974 122.798 134.845 122.85 134.75 122.944C134.655 123.038 134.602 123.166 134.602 123.3H135.102ZM135.102 95.0119H134.602C134.602 95.1455 134.655 95.2736 134.75 95.3675C134.845 95.4614 134.974 95.5134 135.108 95.5119L135.102 95.0119ZM135.102 95.011H135.602C135.602 94.7348 135.378 94.511 135.102 94.511V95.011ZM131.448 95.011L130.952 94.9434C130.933 95.0865 130.976 95.231 131.071 95.3398C131.166 95.4486 131.303 95.511 131.448 95.511V95.011ZM88.4802 95.3777L88.3671 95.8647C88.5287 95.9023 88.6984 95.8572 88.8201 95.7444C88.9418 95.6316 88.9996 95.4657 88.9744 95.3017L88.4802 95.3777ZM85.4315 123.3L85.8242 123.609C85.9434 123.458 85.9652 123.252 85.8802 123.079C85.7951 122.906 85.6184 122.797 85.4258 122.8L85.4315 123.3ZM85.4308 123.3L85.0381 122.991C84.9195 123.141 84.8973 123.346 84.9809 123.519C85.0645 123.691 85.2392 123.8 85.4308 123.8V123.3ZM135.102 123.3V123.8C135.378 123.8 135.602 123.577 135.602 123.3H135.102ZM135.096 123.799C135.153 123.8 135.21 123.8 135.266 123.8V122.8C135.213 122.8 135.16 122.8 135.108 122.8L135.096 123.799ZM135.266 123.8C143.354 123.8 149.911 117.244 149.911 109.156H148.911C148.911 116.692 142.802 122.8 135.266 122.8V123.8ZM149.911 109.156C149.911 101.068 143.354 94.511 135.266 94.511V95.511C142.802 95.511 148.911 101.62 148.911 109.156H149.911ZM135.266 94.511C135.21 94.511 135.153 94.5113 135.096 94.512L135.108 95.5119C135.16 95.5113 135.213 95.511 135.266 95.511V94.511ZM134.602 95.011V95.0119H135.602V95.011H134.602ZM131.448 95.511H135.102V94.511H131.448V95.511ZM131.943 95.0785C132.078 94.0882 132.148 93.0773 132.148 92.0505H131.148C131.148 93.032 131.081 93.9978 130.952 94.9434L131.943 95.0785ZM132.148 92.0505C132.148 79.7839 122.204 69.8399 109.937 69.8399V70.8399C121.652 70.8399 131.148 80.3362 131.148 92.0505H132.148ZM109.937 69.8399C97.6708 69.8399 87.7268 79.7839 87.7268 92.0505H88.7268C88.7268 80.3362 98.2231 70.8399 109.937 70.8399V69.8399ZM87.7268 92.0505C87.7268 93.2074 87.8153 94.344 87.986 95.4537L88.9744 95.3017C88.8114 94.2421 88.7268 93.1563 88.7268 92.0505H87.7268ZM88.5934 94.8907C87.524 94.6422 86.4102 94.511 85.2663 94.511V95.511C86.3335 95.511 87.3714 95.6334 88.3671 95.8647L88.5934 94.8907ZM85.2663 94.511C77.1783 94.511 70.6216 101.068 70.6216 109.156H71.6216C71.6216 101.62 77.7305 95.511 85.2663 95.511V94.511ZM70.6216 109.156C70.6216 117.244 77.1783 123.8 85.2663 123.8V122.8C77.7305 122.8 71.6216 116.692 71.6216 109.156H70.6216ZM85.2663 123.8C85.3234 123.8 85.3804 123.8 85.4373 123.799L85.4258 122.8C85.3727 122.8 85.3196 122.8 85.2663 122.8V123.8ZM85.8235 123.61L85.8242 123.609L85.0389 122.99L85.0381 122.991L85.8235 123.61ZM135.102 122.8H85.4308V123.8H135.102V122.8ZM134.602 123.3V123.3H135.602V123.3H134.602Z" fill="url(#paint4_linear_366_881)" mask="url(#path-5-inside-2_366_881)"/>
</g>
<g filter="url(#filter3_bd_366_881)">
<mask id="path-7-inside-3_366_881" fill="white">
<path fill-rule="evenodd" clip-rule="evenodd" d="M160.78 108.613C160.82 108.614 160.859 108.614 160.899 108.614C166.545 108.614 171.121 104.037 171.121 98.3917C171.121 92.7461 166.545 88.1694 160.899 88.1694C160.859 88.1694 160.82 88.1697 160.78 88.1701V88.1694H158.139C158.235 87.4699 158.284 86.7556 158.284 86.0299C158.284 77.3646 151.259 70.3399 142.594 70.3399C133.929 70.3399 126.904 77.3646 126.904 86.0299C126.904 86.8475 126.967 87.6506 127.087 88.4345C126.341 88.2611 125.564 88.1694 124.765 88.1694C119.119 88.1694 114.542 92.7461 114.542 98.3917C114.542 104.037 119.119 108.614 124.765 108.614C124.804 108.614 124.844 108.614 124.884 108.613L124.884 108.614H160.78V108.613Z"/>
</mask>
<path fill-rule="evenodd" clip-rule="evenodd" d="M160.78 108.613C160.82 108.614 160.859 108.614 160.899 108.614C166.545 108.614 171.121 104.037 171.121 98.3917C171.121 92.7461 166.545 88.1694 160.899 88.1694C160.859 88.1694 160.82 88.1697 160.78 88.1701V88.1694H158.139C158.235 87.4699 158.284 86.7556 158.284 86.0299C158.284 77.3646 151.259 70.3399 142.594 70.3399C133.929 70.3399 126.904 77.3646 126.904 86.0299C126.904 86.8475 126.967 87.6506 127.087 88.4345C126.341 88.2611 125.564 88.1694 124.765 88.1694C119.119 88.1694 114.542 92.7461 114.542 98.3917C114.542 104.037 119.119 108.614 124.765 108.614C124.804 108.614 124.844 108.614 124.884 108.613L124.884 108.614H160.78V108.613Z" fill="url(#paint5_linear_366_881)" shape-rendering="crispEdges"/>
<path d="M160.78 108.613L160.786 108.113C160.652 108.112 160.524 108.164 160.429 108.258C160.334 108.352 160.28 108.48 160.28 108.613H160.78ZM160.78 88.1701H160.28C160.28 88.3037 160.334 88.4317 160.429 88.5257C160.524 88.6196 160.652 88.6716 160.786 88.6701L160.78 88.1701ZM160.78 88.1694H161.28C161.28 87.8933 161.056 87.6694 160.78 87.6694V88.1694ZM158.139 88.1694L157.644 88.1019C157.625 88.2449 157.668 88.3895 157.763 88.4982C157.858 88.607 157.995 88.6694 158.139 88.6694V88.1694ZM127.087 88.4345L126.974 88.9215C127.136 88.959 127.306 88.9139 127.427 88.8011C127.549 88.6883 127.607 88.5225 127.581 88.3584L127.087 88.4345ZM124.884 108.613L125.277 108.923C125.396 108.772 125.418 108.565 125.333 108.393C125.248 108.22 125.071 108.111 124.878 108.113L124.884 108.613ZM124.884 108.614L124.491 108.304C124.372 108.455 124.35 108.66 124.434 108.832C124.517 109.004 124.692 109.114 124.884 109.114V108.614ZM160.78 108.614V109.114C161.056 109.114 161.28 108.89 161.28 108.614H160.78ZM160.775 109.113C160.816 109.114 160.858 109.114 160.899 109.114V108.114C160.861 108.114 160.824 108.114 160.786 108.113L160.775 109.113ZM160.899 109.114C166.821 109.114 171.621 104.313 171.621 98.3917H170.621C170.621 103.761 166.269 108.114 160.899 108.114V109.114ZM171.621 98.3917C171.621 92.4699 166.821 87.6694 160.899 87.6694V88.6694C166.269 88.6694 170.621 93.0222 170.621 98.3917H171.621ZM160.899 87.6694C160.857 87.6694 160.816 87.6697 160.775 87.6701L160.786 88.6701C160.824 88.6696 160.861 88.6694 160.899 88.6694V87.6694ZM160.28 88.1694V88.1701H161.28V88.1694H160.28ZM158.139 88.6694H160.78V87.6694H158.139V88.6694ZM158.635 88.237C158.733 87.5151 158.784 86.7783 158.784 86.0299H157.784C157.784 86.733 157.736 87.4246 157.644 88.1019L158.635 88.237ZM158.784 86.0299C158.784 77.0884 151.536 69.8399 142.594 69.8399V70.8399C150.983 70.8399 157.784 77.6407 157.784 86.0299H158.784ZM142.594 69.8399C133.653 69.8399 126.404 77.0884 126.404 86.0299H127.404C127.404 77.6407 134.205 70.8399 142.594 70.8399V69.8399ZM126.404 86.0299C126.404 86.8731 126.469 87.7015 126.593 88.5105L127.581 88.3584C127.465 87.5996 127.404 86.822 127.404 86.0299H126.404ZM127.2 87.9474C126.417 87.7655 125.602 87.6694 124.765 87.6694V88.6694C125.525 88.6694 126.265 88.7567 126.974 88.9215L127.2 87.9474ZM124.765 87.6694C118.843 87.6694 114.042 92.4699 114.042 98.3917H115.042C115.042 93.0222 119.395 88.6694 124.765 88.6694V87.6694ZM114.042 98.3917C114.042 104.313 118.843 109.114 124.765 109.114V108.114C119.395 108.114 115.042 103.761 115.042 98.3917H114.042ZM124.765 109.114C124.806 109.114 124.848 109.114 124.89 109.113L124.878 108.113C124.84 108.114 124.803 108.114 124.765 108.114V109.114ZM125.276 108.924L125.277 108.923L124.492 108.304L124.491 108.304L125.276 108.924ZM160.78 108.114H124.884V109.114H160.78V108.114ZM160.28 108.613V108.614H161.28V108.613H160.28Z" fill="url(#paint6_linear_366_881)" mask="url(#path-7-inside-3_366_881)"/>
</g>
<defs>
<filter id="filter0_bdd_366_881" x="28.8931" y="0.0863037" width="146.819" height="143.763" filterUnits="userSpaceOnUse" color-interpolation-filters="sRGB">
<feFlood flood-opacity="0" result="BackgroundImageFix"/>
<feGaussianBlur in="BackgroundImageFix" stdDeviation="7"/>
<feComposite in2="SourceAlpha" operator="in" result="effect1_backgroundBlur_366_881"/>
<feColorMatrix in="SourceAlpha" type="matrix" values="0 0 0 0 0 0 0 0 0 0 0 0 0 0 0 0 0 0 127 0" result="hardAlpha"/>
<feOffset dx="-21" dy="15"/>
<feGaussianBlur stdDeviation="25"/>
<feComposite in2="hardAlpha" operator="out"/>
<feColorMatrix type="matrix" values="0 0 0 0 0.113438 0 0 0 0 0.148981 0 0 0 0 0.275 0 0 0 0.25 0"/>
<feBlend mode="normal" in2="effect1_backgroundBlur_366_881" result="effect2_dropShadow_366_881"/>
<feColorMatrix in="SourceAlpha" type="matrix" values="0 0 0 0 0 0 0 0 0 0 0 0 0 0 0 0 0 0 127 0" result="hardAlpha"/>
<feOffset/>
<feGaussianBlur stdDeviation="19"/>
<feComposite in2="hardAlpha" operator="out"/>
<feColorMatrix type="matrix" values="0 0 0 0 0.619608 0 0 0 0 0.423529 0 0 0 0 1 0 0 0 0.4 0"/>
<feBlend mode="normal" in2="effect2_dropShadow_366_881" result="effect3_dropShadow_366_881"/>
<feBlend mode="normal" in="SourceGraphic" in2="effect3_dropShadow_366_881" result="shape"/>
</filter>
<filter id="filter1_f_366_881" x="65.3452" y="79.3662" width="106.29" height="56.2896" filterUnits="userSpaceOnUse" color-interpolation-filters="sRGB">
<feFlood flood-opacity="0" result="BackgroundImageFix"/>
<feBlend mode="normal" in="SourceGraphic" in2="BackgroundImageFix" result="shape"/>
<feGaussianBlur stdDeviation="7" result="effect1_foregroundBlur_366_881"/>
</filter>
<filter id="filter2_bd_366_881" x="0.121582" y="35.34" width="178.29" height="152.96" filterUnits="userSpaceOnUse" color-interpolation-filters="sRGB">
<feFlood flood-opacity="0" result="BackgroundImageFix"/>
<feGaussianBlur in="BackgroundImageFix" stdDeviation="7"/>
<feComposite in2="SourceAlpha" operator="in" result="effect1_backgroundBlur_366_881"/>
<feColorMatrix in="SourceAlpha" type="matrix" values="0 0 0 0 0 0 0 0 0 0 0 0 0 0 0 0 0 0 127 0" result="hardAlpha"/>
<feOffset dx="-21" dy="15"/>
<feGaussianBlur stdDeviation="25"/>
<feComposite in2="hardAlpha" operator="out"/>
<feColorMatrix type="matrix" values="0 0 0 0 0.113725 0 0 0 0 0.14902 0 0 0 0 0.27451 0 0 0 0.25 0"/>
<feBlend mode="normal" in2="effect1_backgroundBlur_366_881" result="effect2_dropShadow_366_881"/>
<feBlend mode="normal" in="SourceGraphic" in2="effect2_dropShadow_366_881" result="shape"/>
</filter>
<filter id="filter3_bd_366_881" x="43.5425" y="35.34" width="156.579" height="138.274" filterUnits="userSpaceOnUse" color-interpolation-filters="sRGB">
<feFlood flood-opacity="0" result="BackgroundImageFix"/>
<feGaussianBlur in="BackgroundImageFix" stdDeviation="7"/>
<feComposite in2="SourceAlpha" operator="in" result="effect1_backgroundBlur_366_881"/>
<feColorMatrix in="SourceAlpha" type="matrix" values="0 0 0 0 0 0 0 0 0 0 0 0 0 0 0 0 0 0 127 0" result="hardAlpha"/>
<feOffset dx="-21" dy="15"/>
<feGaussianBlur stdDeviation="25"/>
<feComposite in2="hardAlpha" operator="out"/>
<feColorMatrix type="matrix" values="0 0 0 0 0.113438 0 0 0 0 0.148981 0 0 0 0 0.275 0 0 0 0.25 0"/>
<feBlend mode="normal" in2="effect1_backgroundBlur_366_881" result="effect2_dropShadow_366_881"/>
<feBlend mode="normal" in="SourceGraphic" in2="effect2_dropShadow_366_881" result="shape"/>
</filter>
<linearGradient id="paint0_linear_366_881" x1="105.648" y1="41.9628" x2="125.163" y2="79.9009" gradientUnits="userSpaceOnUse">
<stop offset="0.0001" stop-color="#D4C0FF"/>
<stop offset="1" stop-color="#7E2FFF"/>
</linearGradient>
<linearGradient id="paint1_linear_366_881" x1="106.512" y1="21.7504" x2="116.968" y2="71.4929" gradientUnits="userSpaceOnUse">
<stop stop-color="white"/>
<stop offset="1" stop-color="white" stop-opacity="0"/>
</linearGradient>
<linearGradient id="paint2_linear_366_881" x1="128.029" y1="52.5768" x2="128.029" y2="91.3926" gradientUnits="userSpaceOnUse">
<stop stop-color="#FFD600"/>
<stop offset="1" stop-color="#FF7A00"/>
</linearGradient>
<linearGradient id="paint3_linear_366_881" x1="110.266" y1="53.3992" x2="110.266" y2="130.702" gradientUnits="userSpaceOnUse">
<stop stop-color="white"/>
<stop offset="1" stop-color="white" stop-opacity="0"/>
</linearGradient>
<linearGradient id="paint4_linear_366_881" x1="110.266" y1="70.34" x2="110.266" y2="123.3" gradientUnits="userSpaceOnUse">
<stop stop-color="white"/>
<stop offset="1" stop-color="white" stop-opacity="0"/>
</linearGradient>
<linearGradient id="paint5_linear_366_881" x1="145.464" y1="71.4913" x2="145.464" y2="112.939" gradientUnits="userSpaceOnUse">
<stop stop-color="white"/>
<stop offset="1" stop-color="white" stop-opacity="0"/>
</linearGradient>
<linearGradient id="paint6_linear_366_881" x1="142.832" y1="70.34" x2="142.832" y2="108.614" gradientUnits="userSpaceOnUse">
<stop stop-color="white"/>
<stop offset="1" stop-color="white" stop-opacity="0"/>
</linearGradient>
</defs>
</svg>
