<svg width="201" height="183" viewBox="0 0 201 183" fill="none" xmlns="http://www.w3.org/2000/svg">
<g filter="url(#filter0_f_366_884)">
<circle cx="128.408" cy="65.0461" r="20.0658" fill="#FFC701" fill-opacity="0.5"/>
</g>
<circle cx="128.408" cy="65.704" r="19.1579" fill="url(#paint0_linear_366_884)" stroke="url(#paint1_linear_366_884)" stroke-width="0.5" stroke-linecap="round"/>
<mask id="mask0_366_884" style="mask-type:alpha" maskUnits="userSpaceOnUse" x="109" y="57" width="39" height="29">
<path d="M147.816 65.704C147.816 76.4226 139.127 85.1119 128.408 85.1119C117.689 85.1119 109 76.4226 109 65.704C109 54.9853 116.209 57.4803 126.928 57.4803C137.646 57.4803 147.816 54.9853 147.816 65.704Z" fill="url(#paint2_linear_366_884)"/>
</mask>
<g mask="url(#mask0_366_884)">
<g filter="url(#filter1_f_366_884)">
<path fill-rule="evenodd" clip-rule="evenodd" d="M143.704 115.374C143.759 115.375 143.814 115.375 143.868 115.375C151.68 115.375 158.013 109.042 158.013 101.23C158.013 93.4183 151.68 87.0855 143.868 87.0855C143.814 87.0855 143.759 87.0858 143.704 87.0864V87.0855H134.687C134.884 85.9087 134.987 84.6999 134.987 83.4671C134.987 71.4767 125.267 61.7565 113.276 61.7565C101.286 61.7565 91.5658 71.4767 91.5658 83.4671C91.5658 84.7479 91.6767 86.0029 91.8895 87.2228C85.0144 88.1853 79.7237 94.0899 79.7237 101.23C79.7237 109.042 86.0565 115.375 93.8684 115.375C93.9236 115.375 93.9786 115.375 94.0336 115.374L94.0329 115.375H143.704V115.374Z" fill="#E18700"/>
</g>
</g>
<g filter="url(#filter2_bd_366_884)">
<mask id="path-5-inside-1_366_884" fill="white">
<path fill-rule="evenodd" clip-rule="evenodd" d="M135.48 117.019C135.535 117.02 135.59 117.02 135.645 117.02C143.457 117.02 149.789 110.687 149.789 102.875C149.789 95.0632 143.457 88.7303 135.645 88.7303C135.59 88.7303 135.535 88.7307 135.48 88.7313V88.7303H131.826C131.958 87.7623 132.026 86.774 132.026 85.7698C132.026 73.7794 122.306 64.0593 110.316 64.0593C98.3254 64.0593 88.6053 73.7794 88.6053 85.7698C88.6053 86.9012 88.6918 88.0124 88.8586 89.0971C87.8261 88.8572 86.7502 88.7303 85.6447 88.7303C77.8328 88.7303 71.5 95.0632 71.5 102.875C71.5 110.687 77.8328 117.02 85.6447 117.02C85.6999 117.02 85.755 117.02 85.81 117.019L85.8092 117.02H135.48V117.019Z"/>
</mask>
<path fill-rule="evenodd" clip-rule="evenodd" d="M135.48 117.019C135.535 117.02 135.59 117.02 135.645 117.02C143.457 117.02 149.789 110.687 149.789 102.875C149.789 95.0632 143.457 88.7303 135.645 88.7303C135.59 88.7303 135.535 88.7307 135.48 88.7313V88.7303H131.826C131.958 87.7623 132.026 86.774 132.026 85.7698C132.026 73.7794 122.306 64.0593 110.316 64.0593C98.3254 64.0593 88.6053 73.7794 88.6053 85.7698C88.6053 86.9012 88.6918 88.0124 88.8586 89.0971C87.8261 88.8572 86.7502 88.7303 85.6447 88.7303C77.8328 88.7303 71.5 95.0632 71.5 102.875C71.5 110.687 77.8328 117.02 85.6447 117.02C85.6999 117.02 85.755 117.02 85.81 117.019L85.8092 117.02H135.48V117.019Z" fill="url(#paint3_linear_366_884)" shape-rendering="crispEdges"/>
<path d="M135.48 117.019L135.486 116.519C135.352 116.517 135.224 116.569 135.129 116.663C135.034 116.757 134.98 116.885 134.98 117.019H135.48ZM135.48 88.7313H134.98C134.98 88.8649 135.034 88.9929 135.129 89.0868C135.224 89.1808 135.352 89.2328 135.486 89.2313L135.48 88.7313ZM135.48 88.7303H135.98C135.98 88.4542 135.756 88.2303 135.48 88.2303V88.7303ZM131.826 88.7303L131.331 88.6628C131.311 88.8059 131.355 88.9504 131.449 89.0592C131.544 89.1679 131.682 89.2303 131.826 89.2303V88.7303ZM88.8586 89.0971L88.7455 89.5841C88.9071 89.6216 89.0769 89.5766 89.1986 89.4637C89.3202 89.3509 89.378 89.1851 89.3528 89.0211L88.8586 89.0971ZM85.81 117.019L86.2026 117.328C86.3218 117.177 86.3436 116.971 86.2586 116.798C86.1735 116.625 85.9968 116.517 85.8042 116.519L85.81 117.019ZM85.8092 117.02L85.4165 116.71C85.298 116.861 85.2757 117.066 85.3593 117.238C85.4429 117.41 85.6177 117.52 85.8092 117.52V117.02ZM135.48 117.02V117.52C135.756 117.52 135.98 117.296 135.98 117.02H135.48ZM135.475 117.519C135.531 117.519 135.588 117.52 135.645 117.52V116.52C135.592 116.52 135.539 116.52 135.486 116.519L135.475 117.519ZM135.645 117.52C143.733 117.52 150.289 110.963 150.289 102.875H149.289C149.289 110.411 143.181 116.52 135.645 116.52V117.52ZM150.289 102.875C150.289 94.787 143.733 88.2303 135.645 88.2303V89.2303C143.181 89.2303 149.289 95.3393 149.289 102.875H150.289ZM135.645 88.2303C135.588 88.2303 135.531 88.2307 135.475 88.2313L135.486 89.2313C135.539 89.2306 135.592 89.2303 135.645 89.2303V88.2303ZM134.98 88.7303V88.7313H135.98V88.7303H134.98ZM131.826 89.2303H135.48V88.2303H131.826V89.2303ZM132.322 88.7979C132.457 87.8076 132.526 86.7967 132.526 85.7698H131.526C131.526 86.7514 131.46 87.7171 131.331 88.6628L132.322 88.7979ZM132.526 85.7698C132.526 73.5033 122.582 63.5593 110.316 63.5593V64.5593C122.03 64.5593 131.526 74.0556 131.526 85.7698H132.526ZM110.316 63.5593C98.0493 63.5593 88.1053 73.5033 88.1053 85.7698H89.1053C89.1053 74.0556 98.6015 64.5593 110.316 64.5593V63.5593ZM88.1053 85.7698C88.1053 86.9267 88.1938 88.0633 88.3644 89.1731L89.3528 89.0211C89.1898 87.9614 89.1053 86.8757 89.1053 85.7698H88.1053ZM88.9718 88.61C87.9024 88.3616 86.7886 88.2303 85.6447 88.2303V89.2303C86.7119 89.2303 87.7498 89.3528 88.7455 89.5841L88.9718 88.61ZM85.6447 88.2303C77.5567 88.2303 71 94.787 71 102.875H72C72 95.3393 78.109 89.2303 85.6447 89.2303V88.2303ZM71 102.875C71 110.963 77.5567 117.52 85.6447 117.52V116.52C78.109 116.52 72 110.411 72 102.875H71ZM85.6447 117.52C85.7018 117.52 85.7588 117.519 85.8157 117.519L85.8042 116.519C85.7511 116.52 85.698 116.52 85.6447 116.52V117.52ZM86.2019 117.329L86.2026 117.328L85.4173 116.709L85.4165 116.71L86.2019 117.329ZM135.48 116.52H85.8092V117.52H135.48V116.52ZM134.98 117.019V117.02H135.98V117.019H134.98Z" fill="url(#paint4_linear_366_884)" mask="url(#path-5-inside-1_366_884)"/>
</g>
<g filter="url(#filter3_bd_366_884)">
<mask id="path-7-inside-2_366_884" fill="white">
<path fill-rule="evenodd" clip-rule="evenodd" d="M161.159 102.333C161.198 102.333 161.238 102.333 161.278 102.333C166.923 102.333 171.5 97.7566 171.5 92.111C171.5 86.4654 166.923 81.8888 161.278 81.8888C161.238 81.8888 161.198 81.889 161.159 81.8895V81.8888H158.518C158.613 81.1892 158.663 80.475 158.663 79.7493C158.663 71.0839 151.638 64.0593 142.973 64.0593C134.307 64.0593 127.283 71.0839 127.283 79.7493C127.283 80.5669 127.345 81.3699 127.466 82.1538C126.72 81.9804 125.942 81.8888 125.143 81.8888C119.497 81.8888 114.921 86.4654 114.921 92.111C114.921 97.7566 119.497 102.333 125.143 102.333C125.183 102.333 125.223 102.333 125.262 102.333L125.262 102.333H161.159V102.333Z"/>
</mask>
<path fill-rule="evenodd" clip-rule="evenodd" d="M161.159 102.333C161.198 102.333 161.238 102.333 161.278 102.333C166.923 102.333 171.5 97.7566 171.5 92.111C171.5 86.4654 166.923 81.8888 161.278 81.8888C161.238 81.8888 161.198 81.889 161.159 81.8895V81.8888H158.518C158.613 81.1892 158.663 80.475 158.663 79.7493C158.663 71.0839 151.638 64.0593 142.973 64.0593C134.307 64.0593 127.283 71.0839 127.283 79.7493C127.283 80.5669 127.345 81.3699 127.466 82.1538C126.72 81.9804 125.942 81.8888 125.143 81.8888C119.497 81.8888 114.921 86.4654 114.921 92.111C114.921 97.7566 119.497 102.333 125.143 102.333C125.183 102.333 125.223 102.333 125.262 102.333L125.262 102.333H161.159V102.333Z" fill="url(#paint5_linear_366_884)" shape-rendering="crispEdges"/>
<path d="M161.159 102.333L161.164 101.833C161.031 101.831 160.902 101.883 160.807 101.977C160.712 102.071 160.659 102.199 160.659 102.333H161.159ZM161.159 81.8895H160.659C160.659 82.0231 160.712 82.1511 160.807 82.245C160.902 82.339 161.031 82.391 161.164 82.3894L161.159 81.8895ZM161.159 81.8888H161.659C161.659 81.6126 161.435 81.3888 161.159 81.3888V81.8888ZM158.518 81.8888L158.022 81.8212C158.003 81.9643 158.046 82.1088 158.141 82.2176C158.236 82.3264 158.373 82.3888 158.518 82.3888V81.8888ZM127.466 82.1538L127.353 82.6408C127.514 82.6784 127.684 82.6333 127.806 82.5205C127.927 82.4077 127.985 82.2418 127.96 82.0778L127.466 82.1538ZM125.262 102.333L125.655 102.642C125.774 102.491 125.796 102.285 125.711 102.112C125.626 101.939 125.449 101.83 125.257 101.833L125.262 102.333ZM125.262 102.333L124.869 102.024C124.751 102.174 124.728 102.379 124.812 102.551C124.896 102.724 125.07 102.833 125.262 102.833V102.333ZM161.159 102.333V102.833C161.435 102.833 161.659 102.609 161.659 102.333H161.159ZM161.153 102.833C161.194 102.833 161.236 102.833 161.278 102.833V101.833C161.24 101.833 161.202 101.833 161.164 101.833L161.153 102.833ZM161.278 102.833C167.199 102.833 172 98.0328 172 92.111H171C171 97.4805 166.647 101.833 161.278 101.833V102.833ZM172 92.111C172 86.1893 167.199 81.3888 161.278 81.3888V82.3888C166.647 82.3888 171 86.7416 171 92.111H172ZM161.278 81.3888C161.236 81.3888 161.194 81.389 161.153 81.3895L161.164 82.3894C161.202 82.389 161.24 82.3888 161.278 82.3888V81.3888ZM160.659 81.8888V81.8895H161.659V81.8888H160.659ZM158.518 82.3888H161.159V81.3888H158.518V82.3888ZM159.013 81.9563C159.112 81.2345 159.163 80.4977 159.163 79.7493H158.163C158.163 80.4523 158.115 81.144 158.022 81.8212L159.013 81.9563ZM159.163 79.7493C159.163 70.8078 151.914 63.5593 142.973 63.5593V64.5593C151.362 64.5593 158.163 71.3601 158.163 79.7493H159.163ZM142.973 63.5593C134.031 63.5593 126.783 70.8078 126.783 79.7493H127.783C127.783 71.3601 134.583 64.5593 142.973 64.5593V63.5593ZM126.783 79.7493C126.783 80.5924 126.847 81.4209 126.972 82.2298L127.96 82.0778C127.843 81.319 127.783 80.5414 127.783 79.7493H126.783ZM127.579 81.6668C126.796 81.4849 125.98 81.3888 125.143 81.3888V82.3888C125.904 82.3888 126.643 82.476 127.353 82.6408L127.579 81.6668ZM125.143 81.3888C119.221 81.3888 114.421 86.1893 114.421 92.111H115.421C115.421 86.7416 119.774 82.3888 125.143 82.3888V81.3888ZM114.421 92.111C114.421 98.0328 119.221 102.833 125.143 102.833V101.833C119.774 101.833 115.421 97.4805 115.421 92.111H114.421ZM125.143 102.833C125.185 102.833 125.227 102.833 125.268 102.833L125.257 101.833C125.219 101.833 125.181 101.833 125.143 101.833V102.833ZM125.654 102.643L125.655 102.642L124.87 102.023L124.869 102.024L125.654 102.643ZM161.159 101.833H125.262V102.833H161.159V101.833ZM160.659 102.333V102.333H161.659V102.333H160.659Z" fill="url(#paint6_linear_366_884)" mask="url(#path-7-inside-2_366_884)"/>
</g>
<defs>
<filter id="filter0_f_366_884" x="64.3423" y="0.980347" width="128.131" height="128.132" filterUnits="userSpaceOnUse" color-interpolation-filters="sRGB">
<feFlood flood-opacity="0" result="BackgroundImageFix"/>
<feBlend mode="normal" in="SourceGraphic" in2="BackgroundImageFix" result="shape"/>
<feGaussianBlur stdDeviation="22" result="effect1_foregroundBlur_366_884"/>
</filter>
<filter id="filter1_f_366_884" x="65.7236" y="47.7566" width="106.29" height="81.6184" filterUnits="userSpaceOnUse" color-interpolation-filters="sRGB">
<feFlood flood-opacity="0" result="BackgroundImageFix"/>
<feBlend mode="normal" in="SourceGraphic" in2="BackgroundImageFix" result="shape"/>
<feGaussianBlur stdDeviation="7" result="effect1_foregroundBlur_366_884"/>
</filter>
<filter id="filter2_bd_366_884" x="0.5" y="29.0593" width="178.29" height="152.96" filterUnits="userSpaceOnUse" color-interpolation-filters="sRGB">
<feFlood flood-opacity="0" result="BackgroundImageFix"/>
<feGaussianBlur in="BackgroundImageFix" stdDeviation="7"/>
<feComposite in2="SourceAlpha" operator="in" result="effect1_backgroundBlur_366_884"/>
<feColorMatrix in="SourceAlpha" type="matrix" values="0 0 0 0 0 0 0 0 0 0 0 0 0 0 0 0 0 0 127 0" result="hardAlpha"/>
<feOffset dx="-21" dy="15"/>
<feGaussianBlur stdDeviation="25"/>
<feComposite in2="hardAlpha" operator="out"/>
<feColorMatrix type="matrix" values="0 0 0 0 0.113725 0 0 0 0 0.14902 0 0 0 0 0.27451 0 0 0 0.25 0"/>
<feBlend mode="normal" in2="effect1_backgroundBlur_366_884" result="effect2_dropShadow_366_884"/>
<feBlend mode="normal" in="SourceGraphic" in2="effect2_dropShadow_366_884" result="shape"/>
</filter>
<filter id="filter3_bd_366_884" x="43.9209" y="29.0593" width="156.579" height="138.274" filterUnits="userSpaceOnUse" color-interpolation-filters="sRGB">
<feFlood flood-opacity="0" result="BackgroundImageFix"/>
<feGaussianBlur in="BackgroundImageFix" stdDeviation="7"/>
<feComposite in2="SourceAlpha" operator="in" result="effect1_backgroundBlur_366_884"/>
<feColorMatrix in="SourceAlpha" type="matrix" values="0 0 0 0 0 0 0 0 0 0 0 0 0 0 0 0 0 0 127 0" result="hardAlpha"/>
<feOffset dx="-21" dy="15"/>
<feGaussianBlur stdDeviation="25"/>
<feComposite in2="hardAlpha" operator="out"/>
<feColorMatrix type="matrix" values="0 0 0 0 0.113438 0 0 0 0 0.148981 0 0 0 0 0.275 0 0 0 0.25 0"/>
<feBlend mode="normal" in2="effect1_backgroundBlur_366_884" result="effect2_dropShadow_366_884"/>
<feBlend mode="normal" in="SourceGraphic" in2="effect2_dropShadow_366_884" result="shape"/>
</filter>
<linearGradient id="paint0_linear_366_884" x1="128.408" y1="46.2961" x2="128.408" y2="85.1119" gradientUnits="userSpaceOnUse">
<stop stop-color="#FFE600"/>
<stop offset="1" stop-color="#FF7A00"/>
</linearGradient>
<linearGradient id="paint1_linear_366_884" x1="128.408" y1="46.2961" x2="128.408" y2="85.1119" gradientUnits="userSpaceOnUse">
<stop stop-color="white"/>
<stop offset="1" stop-color="white" stop-opacity="0"/>
</linearGradient>
<linearGradient id="paint2_linear_366_884" x1="128.408" y1="46.2961" x2="128.408" y2="85.1119" gradientUnits="userSpaceOnUse">
<stop stop-color="#FFD600"/>
<stop offset="1" stop-color="#FF7A00"/>
</linearGradient>
<linearGradient id="paint3_linear_366_884" x1="110.645" y1="47.1185" x2="110.645" y2="124.421" gradientUnits="userSpaceOnUse">
<stop stop-color="white"/>
<stop offset="1" stop-color="white" stop-opacity="0"/>
</linearGradient>
<linearGradient id="paint4_linear_366_884" x1="110.645" y1="64.0593" x2="110.645" y2="117.02" gradientUnits="userSpaceOnUse">
<stop stop-color="white"/>
<stop offset="1" stop-color="white" stop-opacity="0"/>
</linearGradient>
<linearGradient id="paint5_linear_366_884" x1="145.842" y1="65.2106" x2="145.842" y2="106.658" gradientUnits="userSpaceOnUse">
<stop stop-color="white"/>
<stop offset="1" stop-color="white" stop-opacity="0"/>
</linearGradient>
<linearGradient id="paint6_linear_366_884" x1="143.21" y1="64.0593" x2="143.21" y2="102.333" gradientUnits="userSpaceOnUse">
<stop stop-color="white"/>
<stop offset="1" stop-color="white" stop-opacity="0"/>
</linearGradient>
</defs>
</svg>
