<svg width="129" height="129" viewBox="0 0 129 129" fill="none" xmlns="http://www.w3.org/2000/svg">
<g filter="url(#filter0_f_366_884)">
<circle cx="64.9081" cy="64.0658" r="20.0658" fill="#FFC701" fill-opacity="0.5"/>
</g>
<circle cx="64.9079" cy="64.7237" r="19.1579" fill="url(#paint0_linear_366_884)" stroke="url(#paint1_linear_366_884)" stroke-width="0.5" stroke-linecap="round"/>
<mask id="mask0_366_884" style="mask-type:alpha" maskUnits="userSpaceOnUse" x="45" y="56" width="40" height="29">
<path d="M84.3158 64.7237C84.3158 75.4424 75.6266 84.1316 64.9079 84.1316C54.1892 84.1316 45.5 75.4424 45.5 64.7237C45.5 54.0051 52.7089 56.5001 63.4276 56.5001C74.1463 56.5001 84.3158 54.0051 84.3158 64.7237Z" fill="url(#paint2_linear_366_884)"/>
</mask>
<g mask="url(#mask0_366_884)">
<g filter="url(#filter1_f_366_884)">
<path fill-rule="evenodd" clip-rule="evenodd" d="M80.2039 114.394C80.2587 114.394 80.3135 114.395 80.3684 114.395C88.1803 114.395 94.5132 108.062 94.5132 100.25C94.5132 92.4381 88.1803 86.1053 80.3684 86.1053C80.3135 86.1053 80.2587 86.1056 80.2039 86.1062V86.1053H71.1867C71.3841 84.9285 71.4868 83.7197 71.4868 82.4868C71.4868 70.4965 61.7667 60.7763 49.7763 60.7763C37.7859 60.7763 28.0658 70.4965 28.0658 82.4868C28.0658 83.7677 28.1767 85.0226 28.3895 86.2426C21.5144 87.2051 16.2237 93.1097 16.2237 100.25C16.2237 108.062 22.5565 114.395 30.3684 114.395C30.4236 114.395 30.4786 114.394 30.5336 114.394L30.5329 114.395H80.2039V114.394Z" fill="#E18700"/>
</g>
</g>
<g filter="url(#filter2_b_366_884)">
<mask id="path-5-inside-1_366_884" fill="white">
<path fill-rule="evenodd" clip-rule="evenodd" d="M71.9803 116.039C72.035 116.039 72.0898 116.039 72.1447 116.039C79.9567 116.039 86.2895 109.707 86.2895 101.895C86.2895 94.0828 79.9567 87.75 72.1447 87.75C72.0898 87.75 72.035 87.7503 71.9803 87.7509V87.75H68.3261C68.4581 86.782 68.5263 85.7937 68.5263 84.7895C68.5263 72.7991 58.8062 63.0789 46.8158 63.0789C34.8254 63.0789 25.1053 72.7991 25.1053 84.7895C25.1053 85.9209 25.1918 87.032 25.3586 88.1167C24.3261 87.8768 23.2502 87.75 22.1447 87.75C14.3328 87.75 8 94.0828 8 101.895C8 109.707 14.3328 116.039 22.1447 116.039C22.1999 116.039 22.255 116.039 22.31 116.039L22.3092 116.039H71.9803V116.039Z"/>
</mask>
<path fill-rule="evenodd" clip-rule="evenodd" d="M71.9803 116.039C72.035 116.039 72.0898 116.039 72.1447 116.039C79.9567 116.039 86.2895 109.707 86.2895 101.895C86.2895 94.0828 79.9567 87.75 72.1447 87.75C72.0898 87.75 72.035 87.7503 71.9803 87.7509V87.75H68.3261C68.4581 86.782 68.5263 85.7937 68.5263 84.7895C68.5263 72.7991 58.8062 63.0789 46.8158 63.0789C34.8254 63.0789 25.1053 72.7991 25.1053 84.7895C25.1053 85.9209 25.1918 87.032 25.3586 88.1167C24.3261 87.8768 23.2502 87.75 22.1447 87.75C14.3328 87.75 8 94.0828 8 101.895C8 109.707 14.3328 116.039 22.1447 116.039C22.1999 116.039 22.255 116.039 22.31 116.039L22.3092 116.039H71.9803V116.039Z" fill="url(#paint3_linear_366_884)"/>
<path d="M71.9803 116.039L71.986 115.539C71.8524 115.537 71.7237 115.589 71.6287 115.683C71.5337 115.777 71.4803 115.905 71.4803 116.039H71.9803ZM71.9803 87.7509H71.4803C71.4803 87.8845 71.5337 88.0126 71.6287 88.1065C71.7237 88.2004 71.8524 88.2524 71.986 88.2509L71.9803 87.7509ZM71.9803 87.75H72.4803C72.4803 87.4739 72.2564 87.25 71.9803 87.25V87.75ZM68.3261 87.75L67.8307 87.6825C67.8112 87.8255 67.8545 87.97 67.9495 88.0788C68.0444 88.1876 68.1818 88.25 68.3261 88.25V87.75ZM25.3586 88.1167L25.2455 88.6037C25.4071 88.6413 25.5769 88.5962 25.6986 88.4834C25.8202 88.3706 25.878 88.2047 25.8528 88.0407L25.3586 88.1167ZM22.31 116.039L22.7026 116.348C22.8218 116.197 22.8436 115.991 22.7586 115.818C22.6735 115.645 22.4968 115.536 22.3042 115.539L22.31 116.039ZM22.3092 116.039L21.9165 115.73C21.798 115.88 21.7757 116.085 21.8593 116.258C21.9429 116.43 22.1177 116.539 22.3092 116.539V116.039ZM71.9803 116.039V116.539C72.2564 116.539 72.4803 116.316 72.4803 116.039H71.9803ZM71.9745 116.539C72.0312 116.539 72.0879 116.539 72.1447 116.539V115.539C72.0917 115.539 72.0388 115.539 71.986 115.539L71.9745 116.539ZM72.1447 116.539C80.2328 116.539 86.7895 109.983 86.7895 101.895H85.7895C85.7895 109.431 79.6805 115.539 72.1447 115.539V116.539ZM86.7895 101.895C86.7895 93.8067 80.2328 87.25 72.1447 87.25V88.25C79.6805 88.25 85.7895 94.359 85.7895 101.895H86.7895ZM72.1447 87.25C72.0879 87.25 72.0312 87.2503 71.9746 87.251L71.986 88.2509C72.0388 88.2503 72.0917 88.25 72.1447 88.25V87.25ZM71.4803 87.75V87.7509H72.4803V87.75H71.4803ZM68.3261 88.25H71.9803V87.25H68.3261V88.25ZM68.8216 87.8175C68.9566 86.8272 69.0263 85.8164 69.0263 84.7895H68.0263C68.0263 85.771 67.9597 86.7368 67.8307 87.6825L68.8216 87.8175ZM69.0263 84.7895C69.0263 72.5229 59.0823 62.5789 46.8158 62.5789V63.5789C58.53 63.5789 68.0263 73.0752 68.0263 84.7895H69.0263ZM46.8158 62.5789C34.5493 62.5789 24.6053 72.5229 24.6053 84.7895H25.6053C25.6053 73.0752 35.1015 63.5789 46.8158 63.5789V62.5789ZM24.6053 84.7895C24.6053 85.9464 24.6938 87.083 24.8644 88.1927L25.8528 88.0407C25.6898 86.9811 25.6053 85.8953 25.6053 84.7895H24.6053ZM25.4718 87.6297C24.4024 87.3812 23.2886 87.25 22.1447 87.25V88.25C23.2119 88.25 24.2498 88.3724 25.2455 88.6037L25.4718 87.6297ZM22.1447 87.25C14.0567 87.25 7.5 93.8067 7.5 101.895H8.5C8.5 94.359 14.609 88.25 22.1447 88.25V87.25ZM7.5 101.895C7.5 109.983 14.0567 116.539 22.1447 116.539V115.539C14.609 115.539 8.5 109.431 8.5 101.895H7.5ZM22.1447 116.539C22.2018 116.539 22.2588 116.539 22.3157 116.538L22.3042 115.539C22.2511 115.539 22.198 115.539 22.1447 115.539V116.539ZM22.7019 116.349L22.7026 116.348L21.9173 115.729L21.9165 115.73L22.7019 116.349ZM71.9803 115.539H22.3092V116.539H71.9803V115.539ZM71.4803 116.039V116.039H72.4803V116.039H71.4803Z" fill="url(#paint4_linear_366_884)" mask="url(#path-5-inside-1_366_884)"/>
</g>
<g filter="url(#filter3_b_366_884)">
<mask id="path-7-inside-2_366_884" fill="white">
<path fill-rule="evenodd" clip-rule="evenodd" d="M97.6587 101.352C97.6982 101.353 97.7378 101.353 97.7775 101.353C103.423 101.353 108 96.7763 108 91.1307C108 85.4851 103.423 80.9084 97.7775 80.9084C97.7378 80.9084 97.6982 80.9087 97.6587 80.9091V80.9084H95.0179C95.1132 80.2089 95.1625 79.4946 95.1625 78.7689C95.1625 70.1036 88.1379 63.0789 79.4726 63.0789C70.8072 63.0789 63.7826 70.1036 63.7826 78.7689C63.7826 79.5865 63.8451 80.3896 63.9657 81.1735C63.2195 81.0001 62.442 80.9084 61.6431 80.9084C55.9975 80.9084 51.4208 85.4851 51.4208 91.1307C51.4208 96.7763 55.9975 101.353 61.6431 101.353C61.6829 101.353 61.7227 101.353 61.7625 101.352L61.7619 101.353H97.6587V101.352Z"/>
</mask>
<path fill-rule="evenodd" clip-rule="evenodd" d="M97.6587 101.352C97.6982 101.353 97.7378 101.353 97.7775 101.353C103.423 101.353 108 96.7763 108 91.1307C108 85.4851 103.423 80.9084 97.7775 80.9084C97.7378 80.9084 97.6982 80.9087 97.6587 80.9091V80.9084H95.0179C95.1132 80.2089 95.1625 79.4946 95.1625 78.7689C95.1625 70.1036 88.1379 63.0789 79.4726 63.0789C70.8072 63.0789 63.7826 70.1036 63.7826 78.7689C63.7826 79.5865 63.8451 80.3896 63.9657 81.1735C63.2195 81.0001 62.442 80.9084 61.6431 80.9084C55.9975 80.9084 51.4208 85.4851 51.4208 91.1307C51.4208 96.7763 55.9975 101.353 61.6431 101.353C61.6829 101.353 61.7227 101.353 61.7625 101.352L61.7619 101.353H97.6587V101.352Z" fill="url(#paint5_linear_366_884)"/>
<path d="M97.6587 101.352L97.6643 100.852C97.5308 100.851 97.4021 100.903 97.3071 100.997C97.2121 101.091 97.1587 101.219 97.1587 101.352H97.6587ZM97.6587 80.9091H97.1587C97.1587 81.0427 97.2121 81.1708 97.3071 81.2647C97.4021 81.3586 97.5308 81.4106 97.6643 81.4091L97.6587 80.9091ZM97.6587 80.9084H98.1587C98.1587 80.6323 97.9348 80.4084 97.6587 80.4084V80.9084ZM95.0179 80.9084L94.5224 80.8409C94.5029 80.984 94.5462 81.1285 94.6412 81.2372C94.7361 81.346 94.8735 81.4084 95.0179 81.4084V80.9084ZM63.9657 81.1735L63.8525 81.6605C64.0142 81.698 64.1839 81.653 64.3056 81.5401C64.4273 81.4273 64.4851 81.2615 64.4599 81.0975L63.9657 81.1735ZM61.7625 101.352L62.155 101.662C62.2743 101.511 62.2962 101.304 62.2111 101.132C62.1261 100.959 61.9494 100.85 61.7568 100.852L61.7625 101.352ZM61.7619 101.353L61.3694 101.043C61.2507 101.194 61.2284 101.399 61.312 101.571C61.3956 101.743 61.5703 101.853 61.7619 101.853V101.353ZM97.6587 101.353V101.853C97.9348 101.853 98.1587 101.629 98.1587 101.353H97.6587ZM97.653 101.852C97.6944 101.853 97.736 101.853 97.7775 101.853V100.853C97.7397 100.853 97.702 100.853 97.6643 100.852L97.653 101.852ZM97.7775 101.853C103.699 101.853 108.5 97.0524 108.5 91.1307H107.5C107.5 96.5001 103.147 100.853 97.7775 100.853V101.853ZM108.5 91.1307C108.5 85.209 103.699 80.4084 97.7775 80.4084V81.4084C103.147 81.4084 107.5 85.7612 107.5 91.1307H108.5ZM97.7775 80.4084C97.7359 80.4084 97.6944 80.4087 97.653 80.4092L97.6643 81.4091C97.702 81.4087 97.7397 81.4084 97.7775 81.4084V80.4084ZM97.1587 80.9084V80.9091H98.1587V80.9084H97.1587ZM95.0179 81.4084H97.6587V80.4084H95.0179V81.4084ZM95.5133 80.976C95.6117 80.2541 95.6625 79.5173 95.6625 78.7689H94.6625C94.6625 79.472 94.6148 80.1637 94.5224 80.8409L95.5133 80.976ZM95.6625 78.7689C95.6625 69.8274 88.414 62.5789 79.4726 62.5789V63.5789C87.8617 63.5789 94.6625 70.3797 94.6625 78.7689H95.6625ZM79.4726 62.5789C70.5311 62.5789 63.2826 69.8274 63.2826 78.7689H64.2826C64.2826 70.3797 71.0834 63.5789 79.4726 63.5789V62.5789ZM63.2826 78.7689C63.2826 79.6121 63.3471 80.4405 63.4715 81.2495L64.4599 81.0975C64.3432 80.3386 64.2826 79.561 64.2826 78.7689H63.2826ZM64.0789 80.6864C63.2958 80.5045 62.4804 80.4084 61.6431 80.4084V81.4084C62.4036 81.4084 63.1432 81.4957 63.8525 81.6605L64.0789 80.6864ZM61.6431 80.4084C55.7213 80.4084 50.9208 85.209 50.9208 91.1307H51.9208C51.9208 85.7612 56.2736 81.4084 61.6431 81.4084V80.4084ZM50.9208 91.1307C50.9208 97.0524 55.7213 101.853 61.6431 101.853V100.853C56.2736 100.853 51.9208 96.5001 51.9208 91.1307H50.9208ZM61.6431 101.853C61.6848 101.853 61.7265 101.853 61.7682 101.852L61.7568 100.852C61.7189 100.853 61.681 100.853 61.6431 100.853V101.853ZM62.1544 101.663L62.155 101.662L61.37 101.043L61.3694 101.043L62.1544 101.663ZM97.6587 100.853H61.7619V101.853H97.6587V100.853ZM97.1587 101.352V101.353H98.1587V101.352H97.1587Z" fill="url(#paint6_linear_366_884)" mask="url(#path-7-inside-2_366_884)"/>
</g>
<defs>
<filter id="filter0_f_366_884" x="0.842285" y="0" width="128.131" height="128.132" filterUnits="userSpaceOnUse" color-interpolation-filters="sRGB">
<feFlood flood-opacity="0" result="BackgroundImageFix"/>
<feBlend mode="normal" in="SourceGraphic" in2="BackgroundImageFix" result="shape"/>
<feGaussianBlur stdDeviation="22" result="effect1_foregroundBlur_366_884"/>
</filter>
<filter id="filter1_f_366_884" x="2.22363" y="46.7764" width="106.29" height="81.6184" filterUnits="userSpaceOnUse" color-interpolation-filters="sRGB">
<feFlood flood-opacity="0" result="BackgroundImageFix"/>
<feBlend mode="normal" in="SourceGraphic" in2="BackgroundImageFix" result="shape"/>
<feGaussianBlur stdDeviation="7" result="effect1_foregroundBlur_366_884"/>
</filter>
<filter id="filter2_b_366_884" x="-6" y="49.079" width="106.29" height="80.9604" filterUnits="userSpaceOnUse" color-interpolation-filters="sRGB">
<feFlood flood-opacity="0" result="BackgroundImageFix"/>
<feGaussianBlur in="BackgroundImageFix" stdDeviation="7"/>
<feComposite in2="SourceAlpha" operator="in" result="effect1_backgroundBlur_366_884"/>
<feBlend mode="normal" in="SourceGraphic" in2="effect1_backgroundBlur_366_884" result="shape"/>
</filter>
<filter id="filter3_b_366_884" x="37.4209" y="49.079" width="84.5791" height="66.2739" filterUnits="userSpaceOnUse" color-interpolation-filters="sRGB">
<feFlood flood-opacity="0" result="BackgroundImageFix"/>
<feGaussianBlur in="BackgroundImageFix" stdDeviation="7"/>
<feComposite in2="SourceAlpha" operator="in" result="effect1_backgroundBlur_366_884"/>
<feBlend mode="normal" in="SourceGraphic" in2="effect1_backgroundBlur_366_884" result="shape"/>
</filter>
<linearGradient id="paint0_linear_366_884" x1="64.9079" y1="45.3158" x2="64.9079" y2="84.1316" gradientUnits="userSpaceOnUse">
<stop stop-color="#FFE600"/>
<stop offset="1" stop-color="#FF7A00"/>
</linearGradient>
<linearGradient id="paint1_linear_366_884" x1="64.9079" y1="45.3158" x2="64.9079" y2="84.1316" gradientUnits="userSpaceOnUse">
<stop stop-color="white"/>
<stop offset="1" stop-color="white" stop-opacity="0"/>
</linearGradient>
<linearGradient id="paint2_linear_366_884" x1="64.9079" y1="45.3158" x2="64.9079" y2="84.1316" gradientUnits="userSpaceOnUse">
<stop stop-color="#FFD600"/>
<stop offset="1" stop-color="#FF7A00"/>
</linearGradient>
<linearGradient id="paint3_linear_366_884" x1="47.1447" y1="46.1382" x2="47.1447" y2="123.441" gradientUnits="userSpaceOnUse">
<stop stop-color="white"/>
<stop offset="1" stop-color="white" stop-opacity="0"/>
</linearGradient>
<linearGradient id="paint4_linear_366_884" x1="47.1447" y1="63.079" x2="47.1447" y2="116.04" gradientUnits="userSpaceOnUse">
<stop stop-color="white"/>
<stop offset="1" stop-color="white" stop-opacity="0"/>
</linearGradient>
<linearGradient id="paint5_linear_366_884" x1="82.342" y1="64.2303" x2="82.342" y2="105.678" gradientUnits="userSpaceOnUse">
<stop stop-color="white"/>
<stop offset="1" stop-color="white" stop-opacity="0"/>
</linearGradient>
<linearGradient id="paint6_linear_366_884" x1="79.7104" y1="63.079" x2="79.7104" y2="101.353" gradientUnits="userSpaceOnUse">
<stop stop-color="white"/>
<stop offset="1" stop-color="white" stop-opacity="0"/>
</linearGradient>
</defs>
</svg>
