<svg width="100" height="90" viewBox="0 0 100 90" fill="none" xmlns="http://www.w3.org/2000/svg">
<path d="M33.1776 0C33.8375 0 34.4704 0.262161 34.9371 0.728811C35.4037 1.19546 35.6659 1.82837 35.6659 2.48832V7.46495C35.6659 8.1249 35.4037 8.75781 34.9371 9.22446C34.4704 9.69111 33.8375 9.95327 33.1776 9.95327C32.5176 9.95327 31.8847 9.69111 31.4181 9.22446C30.9514 8.75781 30.6893 8.1249 30.6893 7.46495V2.48832C30.6893 1.82837 30.9514 1.19546 31.4181 0.728811C31.8847 0.262161 32.5176 0 33.1776 0ZM49.7664 33.1776C49.7664 37.5772 48.0186 41.7966 44.9076 44.9076C41.7966 48.0186 37.5772 49.7664 33.1776 49.7664C28.778 49.7664 24.5585 48.0186 21.4475 44.9076C18.3365 41.7966 16.5888 37.5772 16.5888 33.1776C16.5888 28.778 18.3365 24.5585 21.4475 21.4475C24.5585 18.3365 28.778 16.5888 33.1776 16.5888C37.5772 16.5888 41.7966 18.3365 44.9076 21.4475C48.0186 24.5585 49.7664 28.778 49.7664 33.1776V33.1776ZM63.8668 35.6659C64.5268 35.6659 65.1597 35.4037 65.6263 34.9371C66.093 34.4704 66.3551 33.8375 66.3551 33.1776C66.3551 32.5176 66.093 31.8847 65.6263 31.4181C65.1597 30.9514 64.5268 30.6893 63.8668 30.6893H58.8902C58.2302 30.6893 57.5973 30.9514 57.1307 31.4181C56.664 31.8847 56.4019 32.5176 56.4019 33.1776C56.4019 33.8375 56.664 34.4704 57.1307 34.9371C57.5973 35.4037 58.2302 35.6659 58.8902 35.6659H63.8668ZM33.1776 56.4019C33.8375 56.4019 34.4704 56.664 34.9371 57.1307C35.4037 57.5973 35.6659 58.2302 35.6659 58.8902V63.8668C35.6659 64.5268 35.4037 65.1597 34.9371 65.6263C34.4704 66.093 33.8375 66.3551 33.1776 66.3551C32.5176 66.3551 31.8847 66.093 31.4181 65.6263C30.9514 65.1597 30.6893 64.5268 30.6893 63.8668V58.8902C30.6893 58.2302 30.9514 57.5973 31.4181 57.1307C31.8847 56.664 32.5176 56.4019 33.1776 56.4019ZM7.46495 35.6659C8.1249 35.6659 8.75781 35.4037 9.22446 34.9371C9.69111 34.4704 9.95327 33.8375 9.95327 33.1776C9.95327 32.5176 9.69111 31.8847 9.22446 31.4181C8.75781 30.9514 8.1249 30.6893 7.46495 30.6893H2.48832C1.82837 30.6893 1.19546 30.9514 0.728811 31.4181C0.262161 31.8847 0 32.5176 0 33.1776C0 33.8375 0.262161 34.4704 0.728811 34.9371C1.19546 35.4037 1.82837 35.6659 2.48832 35.6659H7.46495ZM7.36542 7.36542C7.83198 6.89944 8.46443 6.6377 9.12383 6.6377C9.78324 6.6377 10.4157 6.89944 10.8822 7.36542L15.8589 12.3421C16.2984 12.8138 16.5377 13.4377 16.5263 14.0823C16.515 14.7269 16.2538 15.342 15.7979 15.7979C15.342 16.2538 14.7269 16.515 14.0823 16.5263C13.4377 16.5377 12.8138 16.2984 12.3421 15.8589L7.36542 10.8822C6.89944 10.4157 6.6377 9.78324 6.6377 9.12383C6.6377 8.46443 6.89944 7.83198 7.36542 7.36542V7.36542ZM10.8822 58.9897C10.6544 59.2342 10.3797 59.4303 10.0745 59.5663C9.76926 59.7023 9.43977 59.7754 9.10566 59.7813C8.77155 59.7872 8.43968 59.7257 8.12984 59.6006C7.82 59.4754 7.53854 59.2892 7.30226 59.0529C7.06597 58.8166 6.8797 58.5351 6.75455 58.2253C6.6294 57.9155 6.56794 57.5836 6.57383 57.2495C6.57973 56.9154 6.65286 56.5859 6.78886 56.2806C6.92486 55.9754 7.12095 55.7007 7.36542 55.4729L12.3421 50.4963C12.5699 50.2518 12.8446 50.0557 13.1498 49.9197C13.455 49.7837 13.7845 49.7106 14.1186 49.7047C14.4527 49.6988 14.7846 49.7602 15.0945 49.8854C15.4043 50.0105 15.6858 50.1968 15.922 50.4331C16.1583 50.6694 16.3446 50.9508 16.4698 51.2607C16.5949 51.5705 16.6564 51.9024 16.6505 52.2365C16.6446 52.5706 16.5714 52.9001 16.4354 53.2053C16.2994 53.5106 16.1034 53.7853 15.8589 54.0131L10.8822 58.9897ZM58.9897 7.36542C58.5232 6.89944 57.8907 6.6377 57.2313 6.6377C56.5719 6.6377 55.9395 6.89944 55.4729 7.36542L50.4963 12.3421C50.0567 12.8138 49.8174 13.4377 49.8288 14.0823C49.8402 14.7269 50.1013 15.342 50.5572 15.7979C51.0131 16.2538 51.6282 16.515 52.2728 16.5263C52.9175 16.5377 53.5414 16.2984 54.0131 15.8589L58.9897 10.8822C59.4557 10.4157 59.7174 9.78324 59.7174 9.12383C59.7174 8.46443 59.4557 7.83198 58.9897 7.36542V7.36542ZM55.4729 58.9897C55.7007 59.2342 55.9754 59.4303 56.2806 59.5663C56.5859 59.7023 56.9154 59.7754 57.2495 59.7813C57.5836 59.7872 57.9155 59.7257 58.2253 59.6006C58.5351 59.4754 58.8166 59.2892 59.0529 59.0529C59.2892 58.8166 59.4754 58.5351 59.6006 58.2253C59.7257 57.9155 59.7872 57.5836 59.7813 57.2495C59.7754 56.9154 59.7023 56.5859 59.5663 56.2806C59.4303 55.9754 59.2342 55.7007 58.9897 55.4729L54.0131 50.4963C53.7853 50.2518 53.5106 50.0557 53.2053 49.9197C52.9001 49.7837 52.5706 49.7106 52.2365 49.7047C51.9024 49.6988 51.5705 49.7602 51.2607 49.8854C50.9508 50.0105 50.6694 50.1968 50.4331 50.4331C50.1968 50.6694 50.0105 50.9508 49.8854 51.2607C49.7602 51.5705 49.6988 51.9024 49.7047 52.2365C49.7106 52.5706 49.7837 52.9001 49.9197 53.2053C50.0557 53.5106 50.2518 53.7853 50.4963 54.0131L55.4729 58.9897Z" fill="#FFA900"/>
<path d="M93.6069 50.0827C90.2292 46.713 85.7174 44.3604 80.4805 43.2345C79.9896 43.1289 79.5301 42.9099 79.1388 42.5952C78.7475 42.2805 78.4351 41.8786 78.2267 41.4217C76.3009 37.2156 73.3852 33.5383 69.7288 30.7043C65.0499 27.1251 59.3598 25.2338 53.271 25.2338C46.3328 25.2118 39.6292 27.7441 34.4384 32.3479C29.5641 36.6904 26.1984 42.6887 24.6837 49.6356C24.5574 50.2236 24.2695 50.7647 23.8525 51.1981C23.4355 51.6315 22.9058 51.94 22.3231 52.0888C17.2876 53.3578 15.1305 54.6146 12.4113 57.0357C8.55617 60.4678 6.54199 65.1427 6.54199 70.5125C6.54199 76.6659 8.80392 81.7194 13.082 85.1274C16.8304 88.1104 21.9505 89.6875 27.8923 89.6875H75.0241C81.7112 89.6875 87.937 87.3793 92.5475 83.1858C97.3493 78.8251 99.9999 72.7785 99.9999 66.1619C99.9999 59.8193 97.7843 54.2601 93.6069 50.0827V50.0827Z" fill="#CAD7DF"/>
</svg>
