<svg width="150" height="150" viewBox="0 0 100 100" fill="none" xmlns="http://www.w3.org/2000/svg">
<circle cx="56.9079" cy="20.7237" r="19.1579" fill="url(#paint0_linear_366_884)" stroke="url(#paint1_linear_366_884)" stroke-width="0.5" stroke-linecap="round"/>
<mask id="mask0_366_884" style="mask-type:alpha" maskUnits="userSpaceOnUse" x="37" y="12" width="40" height="29">
<path d="M76.3158 20.7237C76.3158 31.4424 67.6266 40.1316 56.9079 40.1316C46.1892 40.1316 37.5 31.4424 37.5 20.7237C37.5 10.0051 44.7089 12.5001 55.4276 12.5001C66.1463 12.5001 76.3158 10.0051 76.3158 20.7237Z" fill="url(#paint2_linear_366_884)"/>
</mask>
<g mask="url(#mask0_366_884)">
<g filter="url(#filter0_f_366_884)">
<path fill-rule="evenodd" clip-rule="evenodd" d="M72.2039 70.3938C72.2587 70.3944 72.3135 70.3947 72.3684 70.3947C80.1803 70.3947 86.5132 64.0619 86.5132 56.25C86.5132 48.4381 80.1803 42.1053 72.3684 42.1053C72.3135 42.1053 72.2587 42.1056 72.2039 42.1062V42.1053H63.1867C63.3841 40.9285 63.4868 39.7197 63.4868 38.4868C63.4868 26.4965 53.7667 16.7763 41.7763 16.7763C29.7859 16.7763 20.0658 26.4965 20.0658 38.4868C20.0658 39.7677 20.1767 41.0226 20.3895 42.2426C13.5144 43.2051 8.22368 49.1097 8.22368 56.25C8.22368 64.0619 14.5565 70.3947 22.3684 70.3947C22.4236 70.3947 22.4786 70.3944 22.5336 70.3938L22.5329 70.3947H72.2039V70.3938Z" fill="#E18700"/>
</g>
</g>
<g filter="url(#filter1_b_366_884)">
<mask id="path-4-inside-1_366_884" fill="white">
<path fill-rule="evenodd" clip-rule="evenodd" d="M63.9803 72.0385C64.035 72.0392 64.0898 72.0395 64.1447 72.0395C71.9567 72.0395 78.2895 65.7067 78.2895 57.8947C78.2895 50.0828 71.9567 43.75 64.1447 43.75C64.0898 43.75 64.035 43.7503 63.9803 43.7509V43.75H60.3261C60.4581 42.782 60.5263 41.7937 60.5263 40.7895C60.5263 28.7991 50.8062 19.0789 38.8158 19.0789C26.8254 19.0789 17.1053 28.7991 17.1053 40.7895C17.1053 41.9209 17.1918 43.032 17.3586 44.1167C16.3261 43.8768 15.2502 43.75 14.1447 43.75C6.33281 43.75 0 50.0828 0 57.8947C0 65.7067 6.33281 72.0395 14.1447 72.0395C14.1999 72.0395 14.255 72.0392 14.31 72.0385L14.3092 72.0395H63.9803V72.0385Z"/>
</mask>
<path fill-rule="evenodd" clip-rule="evenodd" d="M63.9803 72.0385C64.035 72.0392 64.0898 72.0395 64.1447 72.0395C71.9567 72.0395 78.2895 65.7067 78.2895 57.8947C78.2895 50.0828 71.9567 43.75 64.1447 43.75C64.0898 43.75 64.035 43.7503 63.9803 43.7509V43.75H60.3261C60.4581 42.782 60.5263 41.7937 60.5263 40.7895C60.5263 28.7991 50.8062 19.0789 38.8158 19.0789C26.8254 19.0789 17.1053 28.7991 17.1053 40.7895C17.1053 41.9209 17.1918 43.032 17.3586 44.1167C16.3261 43.8768 15.2502 43.75 14.1447 43.75C6.33281 43.75 0 50.0828 0 57.8947C0 65.7067 6.33281 72.0395 14.1447 72.0395C14.1999 72.0395 14.255 72.0392 14.31 72.0385L14.3092 72.0395H63.9803V72.0385Z" fill="url(#paint3_linear_366_884)"/>
<path d="M63.9803 72.0385L63.986 71.5386C63.8524 71.537 63.7237 71.589 63.6287 71.683C63.5337 71.7769 63.4803 71.9049 63.4803 72.0385H63.9803ZM63.9803 43.7509H63.4803C63.4803 43.8845 63.5337 44.0126 63.6287 44.1065C63.7237 44.2004 63.8524 44.2524 63.986 44.2509L63.9803 43.7509ZM63.9803 43.75H64.4803C64.4803 43.4739 64.2564 43.25 63.9803 43.25V43.75ZM60.3261 43.75L59.8307 43.6825C59.8112 43.8255 59.8545 43.97 59.9495 44.0788C60.0444 44.1876 60.1818 44.25 60.3261 44.25V43.75ZM17.3586 44.1167L17.2455 44.6037C17.4071 44.6413 17.5769 44.5962 17.6986 44.4834C17.8202 44.3706 17.878 44.2047 17.8528 44.0407L17.3586 44.1167ZM14.31 72.0385L14.7026 72.3481C14.8218 72.1968 14.8436 71.9905 14.7586 71.8177C14.6735 71.645 14.4968 71.5364 14.3042 71.5386L14.31 72.0385ZM14.3092 72.0395L13.9165 71.7299C13.798 71.8804 13.7757 72.0853 13.8593 72.2577C13.9429 72.43 14.1177 72.5395 14.3092 72.5395V72.0395ZM63.9803 72.0395V72.5395C64.2564 72.5395 64.4803 72.3156 64.4803 72.0395H63.9803ZM63.9745 72.5385C64.0312 72.5392 64.0879 72.5395 64.1447 72.5395V71.5395C64.0917 71.5395 64.0388 71.5392 63.986 71.5386L63.9745 72.5385ZM64.1447 72.5395C72.2328 72.5395 78.7895 65.9828 78.7895 57.8947H77.7895C77.7895 65.4305 71.6805 71.5395 64.1447 71.5395V72.5395ZM78.7895 57.8947C78.7895 49.8067 72.2328 43.25 64.1447 43.25V44.25C71.6805 44.25 77.7895 50.359 77.7895 57.8947H78.7895ZM64.1447 43.25C64.0879 43.25 64.0312 43.2503 63.9746 43.251L63.986 44.2509C64.0388 44.2503 64.0917 44.25 64.1447 44.25V43.25ZM63.4803 43.75V43.7509H64.4803V43.75H63.4803ZM60.3261 44.25H63.9803V43.25H60.3261V44.25ZM60.8216 43.8175C60.9566 42.8272 61.0263 41.8164 61.0263 40.7895H60.0263C60.0263 41.771 59.9597 42.7368 59.8307 43.6825L60.8216 43.8175ZM61.0263 40.7895C61.0263 28.5229 51.0823 18.5789 38.8158 18.5789V19.5789C50.53 19.5789 60.0263 29.0752 60.0263 40.7895H61.0263ZM38.8158 18.5789C26.5493 18.5789 16.6053 28.5229 16.6053 40.7895H17.6053C17.6053 29.0752 27.1015 19.5789 38.8158 19.5789V18.5789ZM16.6053 40.7895C16.6053 41.9464 16.6938 43.083 16.8644 44.1927L17.8528 44.0407C17.6898 42.9811 17.6053 41.8953 17.6053 40.7895H16.6053ZM17.4718 43.6297C16.4024 43.3812 15.2886 43.25 14.1447 43.25V44.25C15.2119 44.25 16.2498 44.3724 17.2455 44.6037L17.4718 43.6297ZM14.1447 43.25C6.05667 43.25 -0.5 49.8067 -0.5 57.8947H0.5C0.5 50.359 6.60896 44.25 14.1447 44.25V43.25ZM-0.5 57.8947C-0.5 65.9828 6.05667 72.5395 14.1447 72.5395V71.5395C6.60896 71.5395 0.5 65.4305 0.5 57.8947H-0.5ZM14.1447 72.5395C14.2018 72.5395 14.2588 72.5391 14.3157 72.5385L14.3042 71.5386C14.2511 71.5392 14.198 71.5395 14.1447 71.5395V72.5395ZM14.7019 72.349L14.7026 72.3481L13.9173 71.729L13.9165 71.7299L14.7019 72.349ZM63.9803 71.5395H14.3092V72.5395H63.9803V71.5395ZM63.4803 72.0385V72.0395H64.4803V72.0385H63.4803Z" fill="url(#paint4_linear_366_884)" mask="url(#path-4-inside-1_366_884)"/>
</g>
<g filter="url(#filter2_b_366_884)">
<mask id="path-6-inside-2_366_884" fill="white">
<path fill-rule="evenodd" clip-rule="evenodd" d="M89.6587 57.3523C89.6982 57.3527 89.7378 57.3529 89.7775 57.3529C95.4231 57.3529 99.9998 52.7763 99.9998 47.1307C99.9998 41.4851 95.4231 36.9084 89.7775 36.9084C89.7378 36.9084 89.6982 36.9087 89.6587 36.9091V36.9084H87.0179C87.1132 36.2089 87.1625 35.4946 87.1625 34.7689C87.1625 26.1036 80.1379 19.0789 71.4726 19.0789C62.8072 19.0789 55.7826 26.1036 55.7826 34.7689C55.7826 35.5865 55.8451 36.3896 55.9657 37.1735C55.2195 37.0001 54.442 36.9084 53.6431 36.9084C47.9975 36.9084 43.4208 41.4851 43.4208 47.1307C43.4208 52.7763 47.9975 57.3529 53.6431 57.3529C53.6829 57.3529 53.7227 57.3527 53.7625 57.3523L53.7619 57.3529H89.6587V57.3523Z"/>
</mask>
<path fill-rule="evenodd" clip-rule="evenodd" d="M89.6587 57.3523C89.6982 57.3527 89.7378 57.3529 89.7775 57.3529C95.4231 57.3529 99.9998 52.7763 99.9998 47.1307C99.9998 41.4851 95.4231 36.9084 89.7775 36.9084C89.7378 36.9084 89.6982 36.9087 89.6587 36.9091V36.9084H87.0179C87.1132 36.2089 87.1625 35.4946 87.1625 34.7689C87.1625 26.1036 80.1379 19.0789 71.4726 19.0789C62.8072 19.0789 55.7826 26.1036 55.7826 34.7689C55.7826 35.5865 55.8451 36.3896 55.9657 37.1735C55.2195 37.0001 54.442 36.9084 53.6431 36.9084C47.9975 36.9084 43.4208 41.4851 43.4208 47.1307C43.4208 52.7763 47.9975 57.3529 53.6431 57.3529C53.6829 57.3529 53.7227 57.3527 53.7625 57.3523L53.7619 57.3529H89.6587V57.3523Z" fill="url(#paint5_linear_366_884)"/>
<path d="M89.6587 57.3523L89.6643 56.8523C89.5308 56.8508 89.4021 56.9028 89.3071 56.9967C89.2121 57.0906 89.1587 57.2187 89.1587 57.3523H89.6587ZM89.6587 36.9091H89.1587C89.1587 37.0427 89.2121 37.1708 89.3071 37.2647C89.4021 37.3586 89.5308 37.4106 89.6643 37.4091L89.6587 36.9091ZM89.6587 36.9084H90.1587C90.1587 36.6323 89.9348 36.4084 89.6587 36.4084V36.9084ZM87.0179 36.9084L86.5224 36.8409C86.5029 36.984 86.5462 37.1285 86.6412 37.2372C86.7361 37.346 86.8735 37.4084 87.0179 37.4084V36.9084ZM55.9657 37.1735L55.8525 37.6605C56.0142 37.698 56.1839 37.653 56.3056 37.5401C56.4273 37.4273 56.4851 37.2615 56.4599 37.0975L55.9657 37.1735ZM53.7625 57.3523L54.155 57.662C54.2743 57.5108 54.2962 57.3044 54.2111 57.1316C54.1261 56.9587 53.9494 56.8501 53.7568 56.8523L53.7625 57.3523ZM53.7619 57.3529L53.3694 57.0432C53.2507 57.1936 53.2284 57.3986 53.312 57.571C53.3956 57.7434 53.5703 57.8529 53.7619 57.8529V57.3529ZM89.6587 57.3529V57.8529C89.9348 57.8529 90.1587 57.6291 90.1587 57.3529H89.6587ZM89.653 57.8522C89.6944 57.8527 89.736 57.8529 89.7775 57.8529V56.8529C89.7397 56.8529 89.702 56.8527 89.6643 56.8523L89.653 57.8522ZM89.7775 57.8529C95.6992 57.8529 100.5 53.0524 100.5 47.1307H99.4998C99.4998 52.5001 95.147 56.8529 89.7775 56.8529V57.8529ZM100.5 47.1307C100.5 41.209 95.6992 36.4084 89.7775 36.4084V37.4084C95.147 37.4084 99.4998 41.7612 99.4998 47.1307H100.5ZM89.7775 36.4084C89.7359 36.4084 89.6944 36.4087 89.653 36.4092L89.6643 37.4091C89.702 37.4087 89.7397 37.4084 89.7775 37.4084V36.4084ZM89.1587 36.9084V36.9091H90.1587V36.9084H89.1587ZM87.0179 37.4084H89.6587V36.4084H87.0179V37.4084ZM87.5133 36.976C87.6117 36.2541 87.6625 35.5173 87.6625 34.7689H86.6625C86.6625 35.472 86.6148 36.1637 86.5224 36.8409L87.5133 36.976ZM87.6625 34.7689C87.6625 25.8274 80.414 18.5789 71.4726 18.5789V19.5789C79.8617 19.5789 86.6625 26.3797 86.6625 34.7689H87.6625ZM71.4726 18.5789C62.5311 18.5789 55.2826 25.8274 55.2826 34.7689H56.2826C56.2826 26.3797 63.0834 19.5789 71.4726 19.5789V18.5789ZM55.2826 34.7689C55.2826 35.6121 55.3471 36.4405 55.4715 37.2495L56.4599 37.0975C56.3432 36.3386 56.2826 35.561 56.2826 34.7689H55.2826ZM56.0789 36.6864C55.2958 36.5045 54.4804 36.4084 53.6431 36.4084V37.4084C54.4036 37.4084 55.1432 37.4957 55.8525 37.6605L56.0789 36.6864ZM53.6431 36.4084C47.7213 36.4084 42.9208 41.209 42.9208 47.1307H43.9208C43.9208 41.7612 48.2736 37.4084 53.6431 37.4084V36.4084ZM42.9208 47.1307C42.9208 53.0524 47.7213 57.8529 53.6431 57.8529V56.8529C48.2736 56.8529 43.9208 52.5001 43.9208 47.1307H42.9208ZM53.6431 57.8529C53.6848 57.8529 53.7265 57.8527 53.7682 57.8522L53.7568 56.8523C53.7189 56.8527 53.681 56.8529 53.6431 56.8529V57.8529ZM54.1544 57.6627L54.155 57.662L53.37 57.0425L53.3694 57.0432L54.1544 57.6627ZM89.6587 56.8529H53.7619V57.8529H89.6587V56.8529ZM89.1587 57.3523V57.3529H90.1587V57.3523H89.1587Z" fill="url(#paint6_linear_366_884)" mask="url(#path-6-inside-2_366_884)"/>
</g>
<defs>
<filter id="filter0_f_366_884" x="-5.77637" y="2.77637" width="106.29" height="81.6184" filterUnits="userSpaceOnUse" color-interpolation-filters="sRGB">
<feFlood flood-opacity="0" result="BackgroundImageFix"/>
<feBlend mode="normal" in="SourceGraphic" in2="BackgroundImageFix" result="shape"/>
<feGaussianBlur stdDeviation="7" result="effect1_foregroundBlur_366_884"/>
</filter>
<filter id="filter1_b_366_884" x="-14" y="5.07898" width="106.29" height="80.9604" filterUnits="userSpaceOnUse" color-interpolation-filters="sRGB">
<feFlood flood-opacity="0" result="BackgroundImageFix"/>
<feGaussianBlur in="BackgroundImageFix" stdDeviation="7"/>
<feComposite in2="SourceAlpha" operator="in" result="effect1_backgroundBlur_366_884"/>
<feBlend mode="normal" in="SourceGraphic" in2="effect1_backgroundBlur_366_884" result="shape"/>
</filter>
<filter id="filter2_b_366_884" x="29.4209" y="5.07898" width="84.5791" height="66.2739" filterUnits="userSpaceOnUse" color-interpolation-filters="sRGB">
<feFlood flood-opacity="0" result="BackgroundImageFix"/>
<feGaussianBlur in="BackgroundImageFix" stdDeviation="7"/>
<feComposite in2="SourceAlpha" operator="in" result="effect1_backgroundBlur_366_884"/>
<feBlend mode="normal" in="SourceGraphic" in2="effect1_backgroundBlur_366_884" result="shape"/>
</filter>
<linearGradient id="paint0_linear_366_884" x1="56.9079" y1="1.3158" x2="56.9079" y2="40.1316" gradientUnits="userSpaceOnUse">
<stop stop-color="#FFE600"/>
<stop offset="1" stop-color="#FF7A00"/>
</linearGradient>
<linearGradient id="paint1_linear_366_884" x1="56.9079" y1="1.3158" x2="56.9079" y2="40.1316" gradientUnits="userSpaceOnUse">
<stop stop-color="white"/>
<stop offset="1" stop-color="white" stop-opacity="0"/>
</linearGradient>
<linearGradient id="paint2_linear_366_884" x1="56.9079" y1="1.31584" x2="56.9079" y2="40.1316" gradientUnits="userSpaceOnUse">
<stop stop-color="#FFD600"/>
<stop offset="1" stop-color="#FF7A00"/>
</linearGradient>
<linearGradient id="paint3_linear_366_884" x1="39.1447" y1="2.13819" x2="39.1447" y2="79.4408" gradientUnits="userSpaceOnUse">
<stop stop-color="white"/>
<stop offset="1" stop-color="white" stop-opacity="0"/>
</linearGradient>
<linearGradient id="paint4_linear_366_884" x1="39.1447" y1="19.079" x2="39.1447" y2="72.0395" gradientUnits="userSpaceOnUse">
<stop stop-color="white"/>
<stop offset="1" stop-color="white" stop-opacity="0"/>
</linearGradient>
<linearGradient id="paint5_linear_366_884" x1="74.342" y1="20.2303" x2="74.342" y2="61.6777" gradientUnits="userSpaceOnUse">
<stop stop-color="white"/>
<stop offset="1" stop-color="white" stop-opacity="0"/>
</linearGradient>
<linearGradient id="paint6_linear_366_884" x1="71.7104" y1="19.079" x2="71.7104" y2="57.353" gradientUnits="userSpaceOnUse">
<stop stop-color="white"/>
<stop offset="1" stop-color="white" stop-opacity="0"/>
</linearGradient>
</defs>
</svg>
