<svg width="191" height="201" viewBox="0 0 191 201" fill="none" xmlns="http://www.w3.org/2000/svg">
<g filter="url(#filter0_f_366_883)">
<ellipse cx="93.2708" cy="76.3664" rx="31.7708" ry="31.7708" fill="#FFC701" fill-opacity="0.5"/>
</g>
<circle cx="93.2707" cy="77.408" r="30.4792" fill="url(#paint0_linear_366_883)" stroke="url(#paint1_linear_366_883)" stroke-width="0.5" stroke-linecap="round"/>
<mask id="mask0_366_883" style="mask-type:alpha" maskUnits="userSpaceOnUse" x="62" y="63" width="62" height="46">
<path d="M124 77.4081C124 94.3793 110.242 108.137 93.2707 108.137C76.2994 108.137 62.5415 94.3793 62.5415 77.4081C62.5415 60.4369 73.9557 64.3873 90.9269 64.3873C107.898 64.3873 124 60.4369 124 77.4081Z" fill="url(#paint2_linear_366_883)"/>
</mask>
<g mask="url(#mask0_366_883)">
<g filter="url(#filter1_f_366_883)">
<path fill-rule="evenodd" clip-rule="evenodd" d="M140.146 133.658C140.146 146.027 130.119 156.054 117.75 156.054C117.663 156.054 117.576 156.053 117.49 156.052V156.054H38.8439L38.8449 156.053C38.7578 156.054 38.6706 156.054 38.5833 156.054C26.2144 156.054 16.1875 146.027 16.1875 133.658C16.1875 121.289 26.2144 111.262 38.5833 111.262C49.2449 111.262 58.1665 118.712 60.4262 128.69L68.0105 119.075L91.7085 111.262H117.49V111.264C117.576 111.263 117.663 111.262 117.75 111.262C130.119 111.262 140.146 121.289 140.146 133.658Z" fill="#E18700"/>
</g>
</g>
<g filter="url(#filter2_bd_366_883)">
<mask id="path-5-inside-1_366_883" fill="white">
<path fill-rule="evenodd" clip-rule="evenodd" d="M145.126 135.403C145.189 135.404 145.252 135.404 145.315 135.404C154.254 135.404 161.5 128.158 161.5 119.219C161.5 110.28 154.254 103.034 145.315 103.034C145.252 103.034 145.189 103.034 145.126 103.035V103.034H140.945C141.096 101.926 141.174 100.795 141.174 99.6461C141.174 85.926 130.052 74.8037 116.332 74.8037C102.612 74.8037 91.4894 85.926 91.4894 99.6461C91.4894 100.941 91.5884 102.212 91.7793 103.454C90.5979 103.179 89.3668 103.034 88.1019 103.034C79.163 103.034 71.9166 110.28 71.9166 119.219C71.9166 128.158 79.163 135.404 88.1019 135.404C88.1648 135.404 88.2277 135.404 88.2906 135.403L88.2897 135.404H145.126V135.403Z"/>
</mask>
<path fill-rule="evenodd" clip-rule="evenodd" d="M145.126 135.403C145.189 135.404 145.252 135.404 145.315 135.404C154.254 135.404 161.5 128.158 161.5 119.219C161.5 110.28 154.254 103.034 145.315 103.034C145.252 103.034 145.189 103.034 145.126 103.035V103.034H140.945C141.096 101.926 141.174 100.795 141.174 99.6461C141.174 85.926 130.052 74.8037 116.332 74.8037C102.612 74.8037 91.4894 85.926 91.4894 99.6461C91.4894 100.941 91.5884 102.212 91.7793 103.454C90.5979 103.179 89.3668 103.034 88.1019 103.034C79.163 103.034 71.9166 110.28 71.9166 119.219C71.9166 128.158 79.163 135.404 88.1019 135.404C88.1648 135.404 88.2277 135.404 88.2906 135.403L88.2897 135.404H145.126V135.403Z" fill="url(#paint3_linear_366_883)" shape-rendering="crispEdges"/>
<path d="M145.126 135.403L145.132 134.903C144.998 134.902 144.87 134.954 144.775 135.048C144.68 135.142 144.626 135.27 144.626 135.403H145.126ZM145.126 103.035H144.626C144.626 103.169 144.68 103.297 144.775 103.391C144.87 103.484 144.998 103.536 145.132 103.535L145.126 103.035ZM145.126 103.034H145.626C145.626 102.758 145.402 102.534 145.126 102.534V103.034ZM140.945 103.034L140.45 102.966C140.43 103.109 140.474 103.254 140.569 103.363C140.663 103.471 140.801 103.534 140.945 103.534V103.034ZM91.7793 103.454L91.6662 103.941C91.8278 103.978 91.9976 103.933 92.1193 103.82C92.241 103.707 92.2988 103.542 92.2735 103.378L91.7793 103.454ZM88.2906 135.403L88.6828 135.713C88.8023 135.562 88.8243 135.356 88.7394 135.183C88.6544 135.01 88.4776 134.901 88.2849 134.903L88.2906 135.403ZM88.2897 135.404L87.8975 135.094C87.7786 135.245 87.7562 135.45 87.8397 135.622C87.9232 135.795 88.098 135.904 88.2897 135.904V135.404ZM145.126 135.404V135.904C145.402 135.904 145.626 135.681 145.626 135.404H145.126ZM145.12 135.903C145.185 135.904 145.25 135.904 145.315 135.904V134.904C145.254 134.904 145.193 134.904 145.132 134.903L145.12 135.903ZM145.315 135.904C154.53 135.904 162 128.434 162 119.219H161C161 127.882 153.977 134.904 145.315 134.904V135.904ZM162 119.219C162 110.004 154.53 102.534 145.315 102.534V103.534C153.977 103.534 161 110.556 161 119.219H162ZM145.315 102.534C145.25 102.534 145.185 102.534 145.12 102.535L145.132 103.535C145.193 103.534 145.254 103.534 145.315 103.534V102.534ZM144.626 103.034V103.035H145.626V103.034H144.626ZM140.945 103.534H145.126V102.534H140.945V103.534ZM141.441 103.101C141.595 101.971 141.674 100.818 141.674 99.6461H140.674C140.674 100.773 140.598 101.881 140.45 102.966L141.441 103.101ZM141.674 99.6461C141.674 85.6499 130.328 74.3037 116.332 74.3037V75.3037C129.776 75.3037 140.674 86.2022 140.674 99.6461H141.674ZM116.332 74.3037C102.336 74.3037 90.9894 85.6499 90.9894 99.6461H91.9894C91.9894 86.2022 102.888 75.3037 116.332 75.3037V74.3037ZM90.9894 99.6461C90.9894 100.966 91.0904 102.263 91.2852 103.53L92.2735 103.378C92.0865 102.161 91.9894 100.915 91.9894 99.6461H90.9894ZM91.8925 102.966C90.6742 102.683 89.4052 102.534 88.1019 102.534V103.534C89.3285 103.534 90.5216 103.675 91.6662 103.941L91.8925 102.966ZM88.1019 102.534C78.8869 102.534 71.4166 110.004 71.4166 119.219H72.4166C72.4166 110.556 79.4391 103.534 88.1019 103.534V102.534ZM71.4166 119.219C71.4166 128.434 78.8869 135.904 88.1019 135.904V134.904C79.4391 134.904 72.4166 127.882 72.4166 119.219H71.4166ZM88.1019 135.904C88.1667 135.904 88.2315 135.904 88.2963 135.903L88.2849 134.903C88.2239 134.904 88.1629 134.904 88.1019 134.904V135.904ZM88.6819 135.715L88.6828 135.713L87.8984 135.093L87.8975 135.094L88.6819 135.715ZM145.126 134.904H88.2897V135.904H145.126V134.904ZM144.626 135.403V135.404H145.626V135.403H144.626Z" fill="url(#paint4_linear_366_883)" mask="url(#path-5-inside-1_366_883)"/>
</g>
<defs>
<filter id="filter0_f_366_883" x="17.5" y="0.595581" width="151.542" height="151.542" filterUnits="userSpaceOnUse" color-interpolation-filters="sRGB">
<feFlood flood-opacity="0" result="BackgroundImageFix"/>
<feBlend mode="normal" in="SourceGraphic" in2="BackgroundImageFix" result="shape"/>
<feGaussianBlur stdDeviation="22" result="effect1_foregroundBlur_366_883"/>
</filter>
<filter id="filter1_f_366_883" x="2.1875" y="97.2622" width="151.958" height="72.7917" filterUnits="userSpaceOnUse" color-interpolation-filters="sRGB">
<feFlood flood-opacity="0" result="BackgroundImageFix"/>
<feBlend mode="normal" in="SourceGraphic" in2="BackgroundImageFix" result="shape"/>
<feGaussianBlur stdDeviation="7" result="effect1_foregroundBlur_366_883"/>
</filter>
<filter id="filter2_bd_366_883" x="0.916504" y="39.8037" width="189.583" height="160.601" filterUnits="userSpaceOnUse" color-interpolation-filters="sRGB">
<feFlood flood-opacity="0" result="BackgroundImageFix"/>
<feGaussianBlur in="BackgroundImageFix" stdDeviation="7"/>
<feComposite in2="SourceAlpha" operator="in" result="effect1_backgroundBlur_366_883"/>
<feColorMatrix in="SourceAlpha" type="matrix" values="0 0 0 0 0 0 0 0 0 0 0 0 0 0 0 0 0 0 127 0" result="hardAlpha"/>
<feOffset dx="-21" dy="15"/>
<feGaussianBlur stdDeviation="25"/>
<feComposite in2="hardAlpha" operator="out"/>
<feColorMatrix type="matrix" values="0 0 0 0 0.113438 0 0 0 0 0.148981 0 0 0 0 0.275 0 0 0 0.25 0"/>
<feBlend mode="normal" in2="effect1_backgroundBlur_366_883" result="effect2_dropShadow_366_883"/>
<feBlend mode="normal" in="SourceGraphic" in2="effect2_dropShadow_366_883" result="shape"/>
</filter>
<linearGradient id="paint0_linear_366_883" x1="93.2707" y1="46.6788" x2="93.2707" y2="108.137" gradientUnits="userSpaceOnUse">
<stop stop-color="#FFE600"/>
<stop offset="1" stop-color="#FF7A00"/>
</linearGradient>
<linearGradient id="paint1_linear_366_883" x1="93.2707" y1="46.6788" x2="93.2707" y2="108.137" gradientUnits="userSpaceOnUse">
<stop stop-color="white"/>
<stop offset="1" stop-color="white" stop-opacity="0"/>
</linearGradient>
<linearGradient id="paint2_linear_366_883" x1="93.2707" y1="46.6789" x2="93.2707" y2="108.137" gradientUnits="userSpaceOnUse">
<stop stop-color="#FFD600"/>
<stop offset="1" stop-color="#FF7A00"/>
</linearGradient>
<linearGradient id="paint3_linear_366_883" x1="120.875" y1="76.6266" x2="120.875" y2="142.252" gradientUnits="userSpaceOnUse">
<stop stop-color="white"/>
<stop offset="1" stop-color="white" stop-opacity="0"/>
</linearGradient>
<linearGradient id="paint4_linear_366_883" x1="116.708" y1="74.8037" x2="116.708" y2="135.404" gradientUnits="userSpaceOnUse">
<stop stop-color="white"/>
<stop offset="1" stop-color="white" stop-opacity="0"/>
</linearGradient>
</defs>
</svg>
