<svg width="204" height="184" viewBox="0 0 204 184" fill="none" xmlns="http://www.w3.org/2000/svg">
<g filter="url(#filter0_bdd_366_880)">
<mask id="path-1-inside-1_366_880" fill="white">
<path fill-rule="evenodd" clip-rule="evenodd" d="M130.549 38.2586C133.839 37.0893 136.093 41.1336 134.9 44.4144C132.597 50.7478 132.839 57.9864 136.165 64.4519C140.877 73.6126 150.451 78.64 160.115 78.0034C163.601 77.7737 166.867 81.0638 164.831 83.9035C162.155 87.6363 158.577 90.8066 154.212 93.0517C139.523 100.607 121.491 94.8245 113.936 80.1358C106.38 65.4471 112.163 47.4147 126.852 39.8593C128.064 39.2357 129.299 38.703 130.549 38.2586Z"/>
</mask>
<path fill-rule="evenodd" clip-rule="evenodd" d="M130.549 38.2586C133.839 37.0893 136.093 41.1336 134.9 44.4144C132.597 50.7478 132.839 57.9864 136.165 64.4519C140.877 73.6126 150.451 78.64 160.115 78.0034C163.601 77.7737 166.867 81.0638 164.831 83.9035C162.155 87.6363 158.577 90.8066 154.212 93.0517C139.523 100.607 121.491 94.8245 113.936 80.1358C106.38 65.4471 112.163 47.4147 126.852 39.8593C128.064 39.2357 129.299 38.703 130.549 38.2586Z" fill="url(#paint0_linear_366_880)"/>
<path d="M136.609 64.2232C133.35 57.8867 133.112 50.7933 135.37 44.5853L134.43 44.2435C132.081 50.7024 132.328 58.0861 135.72 64.6806L136.609 64.2232ZM160.082 77.5045C150.61 78.1285 141.227 73.2005 136.609 64.2232L135.72 64.6806C140.526 74.0248 150.292 79.1516 160.147 78.5023L160.082 77.5045ZM164.425 83.6122C161.794 87.282 158.276 90.3991 153.983 92.6071L154.441 93.4963C158.878 91.2141 162.517 87.9906 165.238 84.1948L164.425 83.6122ZM153.983 92.6071C139.54 100.036 121.809 94.3502 114.38 79.9071L113.491 80.3645C121.173 95.2987 139.507 101.178 154.441 93.4963L153.983 92.6071ZM114.38 79.9071C106.951 65.4639 112.637 47.733 127.08 40.3039L126.623 39.4146C111.689 47.0964 105.809 65.4302 113.491 80.3645L114.38 79.9071ZM127.08 40.3039C128.273 39.6905 129.487 39.1666 130.717 38.7297L130.382 37.7875C129.111 38.2393 127.855 38.7808 126.623 39.4146L127.08 40.3039ZM160.147 78.5023C161.733 78.3979 163.27 79.0984 164.166 80.1303C164.611 80.6425 164.884 81.2199 164.946 81.8038C165.007 82.3803 164.866 82.997 164.425 83.6122L165.238 84.1948C165.814 83.3902 166.028 82.5307 165.94 81.6988C165.853 80.8744 165.474 80.1111 164.921 79.4746C163.822 78.2089 161.982 77.3793 160.082 77.5045L160.147 78.5023ZM135.37 44.5853C136.021 42.7962 135.735 40.8012 134.825 39.3959C134.368 38.6892 133.74 38.114 132.973 37.8025C132.198 37.4882 131.314 37.4561 130.382 37.7875L130.717 38.7297C131.429 38.4764 132.06 38.5114 132.597 38.7291C133.14 38.9496 133.618 39.3713 133.986 39.9395C134.727 41.0843 134.973 42.7518 134.43 44.2435L135.37 44.5853Z" fill="url(#paint1_linear_366_880)" mask="url(#path-1-inside-1_366_880)"/>
</g>
<g filter="url(#filter1_bd_366_880)">
<mask id="path-3-inside-2_366_880" fill="white">
<path fill-rule="evenodd" clip-rule="evenodd" d="M136.232 118.79C136.288 118.791 136.344 118.791 136.4 118.791C144.35 118.791 150.795 112.347 150.795 104.397C150.795 96.4467 144.35 90.0019 136.4 90.0019C136.344 90.0019 136.288 90.0022 136.232 90.0029V90.0019H132.514C132.648 89.0167 132.718 88.0109 132.718 86.9889C132.718 74.7866 122.826 64.8946 110.623 64.8946C98.4211 64.8946 88.5291 74.7866 88.5291 86.9889C88.5291 88.1403 88.6172 89.2712 88.787 90.3751C87.7363 90.131 86.6414 90.0019 85.5163 90.0019C77.5663 90.0019 71.1216 96.4467 71.1216 104.397C71.1216 112.347 77.5663 118.791 85.5163 118.791C85.5724 118.791 85.6283 118.791 85.6842 118.79L85.6834 118.791H136.232V118.79Z"/>
</mask>
<path fill-rule="evenodd" clip-rule="evenodd" d="M136.232 118.79C136.288 118.791 136.344 118.791 136.4 118.791C144.35 118.791 150.795 112.347 150.795 104.397C150.795 96.4467 144.35 90.0019 136.4 90.0019C136.344 90.0019 136.288 90.0022 136.232 90.0029V90.0019H132.514C132.648 89.0167 132.718 88.0109 132.718 86.9889C132.718 74.7866 122.826 64.8946 110.623 64.8946C98.4211 64.8946 88.5291 74.7866 88.5291 86.9889C88.5291 88.1403 88.6172 89.2712 88.787 90.3751C87.7363 90.131 86.6414 90.0019 85.5163 90.0019C77.5663 90.0019 71.1216 96.4467 71.1216 104.397C71.1216 112.347 77.5663 118.791 85.5163 118.791C85.5724 118.791 85.6283 118.791 85.6842 118.79L85.6834 118.791H136.232V118.79Z" fill="url(#paint2_linear_366_880)" shape-rendering="crispEdges"/>
<path d="M136.232 118.79L136.238 118.29C136.104 118.289 135.976 118.341 135.881 118.435C135.786 118.529 135.732 118.657 135.732 118.79H136.232ZM136.232 90.0029H135.732C135.732 90.1365 135.786 90.2645 135.881 90.3584C135.976 90.4523 136.104 90.5043 136.238 90.5028L136.232 90.0029ZM136.232 90.0019H136.732C136.732 89.7258 136.508 89.5019 136.232 89.5019V90.0019ZM132.514 90.0019L132.019 89.9343C131.999 90.0774 132.042 90.2219 132.137 90.3307C132.232 90.4395 132.37 90.5019 132.514 90.5019V90.0019ZM88.787 90.3751L88.6739 90.8621C88.8355 90.8997 89.0052 90.8546 89.1269 90.7418C89.2486 90.6289 89.3064 90.4631 89.2812 90.2991L88.787 90.3751ZM85.6842 118.79L86.0765 119.1C86.196 118.949 86.2179 118.743 86.1329 118.57C86.0479 118.397 85.8711 118.288 85.6785 118.29L85.6842 118.79ZM85.6834 118.791L85.291 118.481C85.1723 118.632 85.1499 118.837 85.2334 119.009C85.317 119.182 85.4918 119.291 85.6834 119.291V118.791ZM136.232 118.791V119.291C136.508 119.291 136.732 119.068 136.732 118.791H136.232ZM136.227 119.29C136.284 119.291 136.342 119.291 136.4 119.291V118.291C136.346 118.291 136.292 118.291 136.238 118.29L136.227 119.29ZM136.4 119.291C144.626 119.291 151.295 112.623 151.295 104.397H150.295C150.295 112.071 144.074 118.291 136.4 118.291V119.291ZM151.295 104.397C151.295 96.1705 144.626 89.5019 136.4 89.5019V90.5019C144.074 90.5019 150.295 96.7228 150.295 104.397H151.295ZM136.4 89.5019C136.342 89.5019 136.284 89.5022 136.227 89.5029L136.238 90.5028C136.292 90.5022 136.346 90.5019 136.4 90.5019V89.5019ZM135.732 90.0019V90.0029H136.732V90.0019H135.732ZM132.514 90.5019H136.232V89.5019H132.514V90.5019ZM133.009 90.0695C133.147 89.062 133.218 88.0336 133.218 86.9889H132.218C132.218 87.9883 132.15 88.9715 132.019 89.9343L133.009 90.0695ZM133.218 86.9889C133.218 74.5104 123.102 64.3946 110.623 64.3946V65.3946C122.55 65.3946 132.218 75.0627 132.218 86.9889H133.218ZM110.623 64.3946C98.1449 64.3946 88.0291 74.5104 88.0291 86.9889H89.0291C89.0291 75.0627 98.6972 65.3946 110.623 65.3946V64.3946ZM88.0291 86.9889C88.0291 88.1659 88.1192 89.3221 88.2928 90.4511L89.2812 90.2991C89.1153 89.2202 89.0291 88.1148 89.0291 86.9889H88.0291ZM88.9002 89.8881C87.8126 89.6354 86.6797 89.5019 85.5163 89.5019V90.5019C86.603 90.5019 87.6599 90.6265 88.6739 90.8621L88.9002 89.8881ZM85.5163 89.5019C77.2902 89.5019 70.6216 96.1705 70.6216 104.397H71.6216C71.6216 96.7228 77.8425 90.5019 85.5163 90.5019V89.5019ZM70.6216 104.397C70.6216 112.623 77.2902 119.291 85.5163 119.291V118.291C77.8425 118.291 71.6216 112.071 71.6216 104.397H70.6216ZM85.5163 119.291C85.5743 119.291 85.6321 119.291 85.6899 119.29L85.6785 118.29C85.6245 118.291 85.5705 118.291 85.5163 118.291V119.291ZM86.0758 119.101L86.0765 119.1L85.2918 118.481L85.291 118.481L86.0758 119.101ZM136.232 118.291H85.6834V119.291H136.232V118.291ZM135.732 118.79V118.791H136.732V118.79H135.732Z" fill="url(#paint3_linear_366_880)" mask="url(#path-3-inside-2_366_880)"/>
</g>
<defs>
<filter id="filter0_bdd_366_880" x="39.6172" y="0.0524902" width="163.842" height="161.318" filterUnits="userSpaceOnUse" color-interpolation-filters="sRGB">
<feFlood flood-opacity="0" result="BackgroundImageFix"/>
<feGaussianBlur in="BackgroundImageFix" stdDeviation="7"/>
<feComposite in2="SourceAlpha" operator="in" result="effect1_backgroundBlur_366_880"/>
<feColorMatrix in="SourceAlpha" type="matrix" values="0 0 0 0 0 0 0 0 0 0 0 0 0 0 0 0 0 0 127 0" result="hardAlpha"/>
<feOffset dx="-21" dy="15"/>
<feGaussianBlur stdDeviation="25"/>
<feComposite in2="hardAlpha" operator="out"/>
<feColorMatrix type="matrix" values="0 0 0 0 0.113438 0 0 0 0 0.148981 0 0 0 0 0.275 0 0 0 0.25 0"/>
<feBlend mode="normal" in2="effect1_backgroundBlur_366_880" result="effect2_dropShadow_366_880"/>
<feColorMatrix in="SourceAlpha" type="matrix" values="0 0 0 0 0 0 0 0 0 0 0 0 0 0 0 0 0 0 127 0" result="hardAlpha"/>
<feOffset/>
<feGaussianBlur stdDeviation="19"/>
<feComposite in2="hardAlpha" operator="out"/>
<feColorMatrix type="matrix" values="0 0 0 0 0.619608 0 0 0 0 0.423529 0 0 0 0 1 0 0 0 0.4 0"/>
<feBlend mode="normal" in2="effect2_dropShadow_366_880" result="effect3_dropShadow_366_880"/>
<feBlend mode="normal" in="SourceGraphic" in2="effect3_dropShadow_366_880" result="shape"/>
</filter>
<filter id="filter1_bd_366_880" x="0.121582" y="29.8947" width="179.673" height="153.897" filterUnits="userSpaceOnUse" color-interpolation-filters="sRGB">
<feFlood flood-opacity="0" result="BackgroundImageFix"/>
<feGaussianBlur in="BackgroundImageFix" stdDeviation="7"/>
<feComposite in2="SourceAlpha" operator="in" result="effect1_backgroundBlur_366_880"/>
<feColorMatrix in="SourceAlpha" type="matrix" values="0 0 0 0 0 0 0 0 0 0 0 0 0 0 0 0 0 0 127 0" result="hardAlpha"/>
<feOffset dx="-21" dy="15"/>
<feGaussianBlur stdDeviation="25"/>
<feComposite in2="hardAlpha" operator="out"/>
<feColorMatrix type="matrix" values="0 0 0 0 0.113438 0 0 0 0 0.148981 0 0 0 0 0.275 0 0 0 0.25 0"/>
<feBlend mode="normal" in2="effect1_backgroundBlur_366_880" result="effect2_dropShadow_366_880"/>
<feBlend mode="normal" in="SourceGraphic" in2="effect2_dropShadow_366_880" result="shape"/>
</filter>
<linearGradient id="paint0_linear_366_880" x1="119.713" y1="44.1234" x2="147.074" y2="97.3159" gradientUnits="userSpaceOnUse">
<stop offset="0.0001" stop-color="#D4C0FF"/>
<stop offset="1" stop-color="#7E2FFF"/>
</linearGradient>
<linearGradient id="paint1_linear_366_880" x1="121.63" y1="15.4213" x2="137.3" y2="85.2121" gradientUnits="userSpaceOnUse">
<stop stop-color="white"/>
<stop offset="1" stop-color="white" stop-opacity="0"/>
</linearGradient>
<linearGradient id="paint2_linear_366_880" x1="114.664" y1="66.5159" x2="114.664" y2="124.881" gradientUnits="userSpaceOnUse">
<stop stop-color="white"/>
<stop offset="1" stop-color="white" stop-opacity="0"/>
</linearGradient>
<linearGradient id="paint3_linear_366_880" x1="110.958" y1="64.8947" x2="110.958" y2="118.791" gradientUnits="userSpaceOnUse">
<stop stop-color="white"/>
<stop offset="1" stop-color="white" stop-opacity="0"/>
</linearGradient>
</defs>
</svg>
