<svg width="143" height="119" viewBox="0 0 143 119" fill="none" xmlns="http://www.w3.org/2000/svg">
<g filter="url(#filter0_i_468_866)">
<circle cx="99.6339" cy="42.9495" r="42.607" fill="#FFAB0B"/>
</g>
<path fill-rule="evenodd" clip-rule="evenodd" d="M34.8482 118.235C34.6542 118.239 34.4596 118.241 34.2646 118.241C19.7591 118.241 8 106.482 8 91.9769C8 82.1329 13.4156 73.5539 21.4299 69.0565C21.4261 68.8177 21.4241 68.5785 21.4241 68.3388C21.4241 44.324 40.8919 24.8563 64.9066 24.8563C85.6213 24.8563 102.953 39.3413 107.325 58.735C123.175 59.4006 135.821 72.461 135.821 88.475C135.821 104.915 122.494 118.241 106.054 118.241C105.664 118.241 105.274 118.234 104.887 118.219V118.241H34.8482V118.235Z" fill="url(#paint0_linear_468_866)"/>
<g style="mix-blend-mode:soft-light" filter="url(#filter1_di_468_866)">
<circle cx="34.2646" cy="91.977" r="26.2646" fill="#848484"/>
</g>
<defs>
<filter id="filter0_i_468_866" x="47.0269" y="0.342529" width="95.2139" height="98.2141" filterUnits="userSpaceOnUse" color-interpolation-filters="sRGB">
<feFlood flood-opacity="0" result="BackgroundImageFix"/>
<feBlend mode="normal" in="SourceGraphic" in2="BackgroundImageFix" result="shape"/>
<feColorMatrix in="SourceAlpha" type="matrix" values="0 0 0 0 0 0 0 0 0 0 0 0 0 0 0 0 0 0 127 0" result="hardAlpha"/>
<feOffset dx="-10" dy="13"/>
<feGaussianBlur stdDeviation="12"/>
<feComposite in2="hardAlpha" operator="arithmetic" k2="-1" k3="1"/>
<feColorMatrix type="matrix" values="0 0 0 0 1 0 0 0 0 0.886275 0 0 0 0 0 0 0 0 0.9 0"/>
<feBlend mode="normal" in2="shape" result="effect1_innerShadow_468_866"/>
</filter>
<filter id="filter1_di_468_866" x="0" y="49.7124" width="82.5293" height="80.5293" filterUnits="userSpaceOnUse" color-interpolation-filters="sRGB">
<feFlood flood-opacity="0" result="BackgroundImageFix"/>
<feColorMatrix in="SourceAlpha" type="matrix" values="0 0 0 0 0 0 0 0 0 0 0 0 0 0 0 0 0 0 127 0" result="hardAlpha"/>
<feOffset dx="-2" dy="-10"/>
<feGaussianBlur stdDeviation="3"/>
<feColorMatrix type="matrix" values="0 0 0 0 0 0 0 0 0 0 0 0 0 0 0 0 0 0 0.22 0"/>
<feBlend mode="normal" in2="BackgroundImageFix" result="effect1_dropShadow_468_866"/>
<feBlend mode="normal" in="SourceGraphic" in2="effect1_dropShadow_468_866" result="shape"/>
<feColorMatrix in="SourceAlpha" type="matrix" values="0 0 0 0 0 0 0 0 0 0 0 0 0 0 0 0 0 0 127 0" result="hardAlpha"/>
<feOffset dx="22" dy="12"/>
<feGaussianBlur stdDeviation="11"/>
<feComposite in2="hardAlpha" operator="arithmetic" k2="-1" k3="1"/>
<feColorMatrix type="matrix" values="0 0 0 0 1 0 0 0 0 1 0 0 0 0 1 0 0 0 0.74 0"/>
<feBlend mode="normal" in2="shape" result="effect2_innerShadow_468_866"/>
</filter>
<linearGradient id="paint0_linear_468_866" x1="77.8557" y1="27.6653" x2="77.8557" y2="128.793" gradientUnits="userSpaceOnUse">
<stop stop-color="white"/>
<stop offset="1" stop-color="white" stop-opacity="0"/>
</linearGradient>
</defs>
</svg>
