<svg width="201" height="171" viewBox="0 0 201 171" fill="none" xmlns="http://www.w3.org/2000/svg">
<g filter="url(#filter0_bd_366_886)">
<mask id="path-1-inside-1_366_886" fill="white">
<path fill-rule="evenodd" clip-rule="evenodd" d="M135.48 88.0206C135.535 88.0212 135.59 88.0216 135.645 88.0216C143.457 88.0216 149.789 81.6887 149.789 73.8768C149.789 66.0649 143.457 59.7321 135.645 59.7321C135.59 59.7321 135.535 59.7324 135.48 59.733V59.7321H131.826C131.958 58.7641 132.026 57.7758 132.026 56.7716C132.026 44.7812 122.306 35.061 110.316 35.061C98.3254 35.061 88.6053 44.7812 88.6053 56.7716C88.6053 57.9029 88.6918 59.0141 88.8586 60.0988C87.8261 59.8589 86.7502 59.7321 85.6447 59.7321C77.8328 59.7321 71.5 66.0649 71.5 73.8768C71.5 81.6887 77.8328 88.0216 85.6447 88.0216C85.6999 88.0216 85.755 88.0212 85.81 88.0206L85.8092 88.0216H135.48V88.0206Z"/>
</mask>
<path fill-rule="evenodd" clip-rule="evenodd" d="M135.48 88.0206C135.535 88.0212 135.59 88.0216 135.645 88.0216C143.457 88.0216 149.789 81.6887 149.789 73.8768C149.789 66.0649 143.457 59.7321 135.645 59.7321C135.59 59.7321 135.535 59.7324 135.48 59.733V59.7321H131.826C131.958 58.7641 132.026 57.7758 132.026 56.7716C132.026 44.7812 122.306 35.061 110.316 35.061C98.3254 35.061 88.6053 44.7812 88.6053 56.7716C88.6053 57.9029 88.6918 59.0141 88.8586 60.0988C87.8261 59.8589 86.7502 59.7321 85.6447 59.7321C77.8328 59.7321 71.5 66.0649 71.5 73.8768C71.5 81.6887 77.8328 88.0216 85.6447 88.0216C85.6999 88.0216 85.755 88.0212 85.81 88.0206L85.8092 88.0216H135.48V88.0206Z" fill="url(#paint0_linear_366_886)" shape-rendering="crispEdges"/>
<path d="M135.48 88.0206L135.486 87.5207C135.352 87.5191 135.224 87.5711 135.129 87.6651C135.034 87.759 134.98 87.887 134.98 88.0206H135.48ZM135.48 59.733H134.98C134.98 59.8666 135.034 59.9947 135.129 60.0886C135.224 60.1825 135.352 60.2345 135.486 60.233L135.48 59.733ZM135.48 59.7321H135.98C135.98 59.4559 135.756 59.2321 135.48 59.2321V59.7321ZM131.826 59.7321L131.331 59.6645C131.311 59.8076 131.355 59.9521 131.449 60.0609C131.544 60.1697 131.682 60.2321 131.826 60.2321V59.7321ZM88.8586 60.0988L88.7455 60.5858C88.9071 60.6234 89.0769 60.5783 89.1986 60.4655C89.3202 60.3527 89.378 60.1868 89.3528 60.0228L88.8586 60.0988ZM85.81 88.0206L86.2026 88.3302C86.3218 88.1789 86.3436 87.9726 86.2586 87.7998C86.1735 87.627 85.9968 87.5184 85.8042 87.5206L85.81 88.0206ZM85.8092 88.0216L85.4165 87.712C85.298 87.8625 85.2757 88.0674 85.3593 88.2398C85.4429 88.4121 85.6177 88.5216 85.8092 88.5216V88.0216ZM135.48 88.0216V88.5216C135.756 88.5216 135.98 88.2977 135.98 88.0216H135.48ZM135.475 88.5206C135.531 88.5212 135.588 88.5216 135.645 88.5216V87.5216C135.592 87.5216 135.539 87.5213 135.486 87.5207L135.475 88.5206ZM135.645 88.5216C143.733 88.5216 150.289 81.9649 150.289 73.8768H149.289C149.289 81.4126 143.181 87.5216 135.645 87.5216V88.5216ZM150.289 73.8768C150.289 65.7888 143.733 59.2321 135.645 59.2321V60.2321C143.181 60.2321 149.289 66.341 149.289 73.8768H150.289ZM135.645 59.2321C135.588 59.2321 135.531 59.2324 135.475 59.2331L135.486 60.233C135.539 60.2324 135.592 60.2321 135.645 60.2321V59.2321ZM134.98 59.7321V59.733H135.98V59.7321H134.98ZM131.826 60.2321H135.48V59.2321H131.826V60.2321ZM132.322 59.7996C132.457 58.8093 132.526 57.7984 132.526 56.7716H131.526C131.526 57.7531 131.46 58.7189 131.331 59.6645L132.322 59.7996ZM132.526 56.7716C132.526 44.505 122.582 34.561 110.316 34.561V35.561C122.03 35.561 131.526 45.0573 131.526 56.7716H132.526ZM110.316 34.561C98.0493 34.561 88.1053 44.505 88.1053 56.7716H89.1053C89.1053 45.0573 98.6015 35.561 110.316 35.561V34.561ZM88.1053 56.7716C88.1053 57.9285 88.1938 59.0651 88.3644 60.1748L89.3528 60.0228C89.1898 58.9632 89.1053 57.8774 89.1053 56.7716H88.1053ZM88.9718 59.6118C87.9024 59.3633 86.7886 59.2321 85.6447 59.2321V60.2321C86.7119 60.2321 87.7498 60.3545 88.7455 60.5858L88.9718 59.6118ZM85.6447 59.2321C77.5567 59.2321 71 65.7888 71 73.8768H72C72 66.341 78.109 60.2321 85.6447 60.2321V59.2321ZM71 73.8768C71 81.9649 77.5567 88.5216 85.6447 88.5216V87.5216C78.109 87.5216 72 81.4126 72 73.8768H71ZM85.6447 88.5216C85.7018 88.5216 85.7588 88.5212 85.8157 88.5206L85.8042 87.5206C85.7511 87.5213 85.698 87.5216 85.6447 87.5216V88.5216ZM86.2019 88.3311L86.2026 88.3302L85.4173 87.7111L85.4165 87.712L86.2019 88.3311ZM135.48 87.5216H85.8092V88.5216H135.48V87.5216ZM134.98 88.0206V88.0216H135.98V88.0206H134.98Z" fill="url(#paint1_linear_366_886)" mask="url(#path-1-inside-1_366_886)"/>
</g>
<g filter="url(#filter1_bd_366_886)">
<mask id="path-3-inside-2_366_886" fill="white">
<path fill-rule="evenodd" clip-rule="evenodd" d="M161.159 73.3343C161.198 73.3348 161.238 73.335 161.277 73.335C166.923 73.335 171.5 68.7584 171.5 63.1128C171.5 57.4672 166.923 52.8905 161.277 52.8905C161.238 52.8905 161.198 52.8908 161.159 52.8912V52.8905H158.518C158.613 52.191 158.663 51.4767 158.663 50.751C158.663 42.0857 151.638 35.061 142.973 35.061C134.307 35.061 127.283 42.0857 127.283 50.751C127.283 51.5686 127.345 52.3717 127.466 53.1556C126.72 52.9822 125.942 52.8905 125.143 52.8905C119.497 52.8905 114.921 57.4672 114.921 63.1128C114.921 68.7584 119.497 73.335 125.143 73.335C125.183 73.335 125.223 73.3348 125.262 73.3343L125.262 73.335H161.159V73.3343Z"/>
</mask>
<path fill-rule="evenodd" clip-rule="evenodd" d="M161.159 73.3343C161.198 73.3348 161.238 73.335 161.277 73.335C166.923 73.335 171.5 68.7584 171.5 63.1128C171.5 57.4672 166.923 52.8905 161.277 52.8905C161.238 52.8905 161.198 52.8908 161.159 52.8912V52.8905H158.518C158.613 52.191 158.663 51.4767 158.663 50.751C158.663 42.0857 151.638 35.061 142.973 35.061C134.307 35.061 127.283 42.0857 127.283 50.751C127.283 51.5686 127.345 52.3717 127.466 53.1556C126.72 52.9822 125.942 52.8905 125.143 52.8905C119.497 52.8905 114.921 57.4672 114.921 63.1128C114.921 68.7584 119.497 73.335 125.143 73.335C125.183 73.335 125.223 73.3348 125.262 73.3343L125.262 73.335H161.159V73.3343Z" fill="url(#paint2_linear_366_886)" shape-rendering="crispEdges"/>
<path d="M161.159 73.3343L161.164 72.8344C161.031 72.8329 160.902 72.8849 160.807 72.9788C160.712 73.0727 160.659 73.2008 160.659 73.3343H161.159ZM161.159 52.8912H160.659C160.659 53.0248 160.712 53.1528 160.807 53.2468C160.902 53.3407 161.031 53.3927 161.164 53.3912L161.159 52.8912ZM161.159 52.8905H161.659C161.659 52.6144 161.435 52.3905 161.159 52.3905V52.8905ZM158.518 52.8905L158.022 52.823C158.003 52.966 158.046 53.1106 158.141 53.2193C158.236 53.3281 158.373 53.3905 158.518 53.3905V52.8905ZM127.466 53.1556L127.353 53.6426C127.514 53.6801 127.684 53.635 127.806 53.5222C127.927 53.4094 127.985 53.2436 127.96 53.0795L127.466 53.1556ZM125.262 73.3343L125.655 73.6441C125.774 73.4929 125.796 73.2865 125.711 73.1137C125.626 72.9408 125.449 72.8322 125.257 72.8344L125.262 73.3343ZM125.262 73.335L124.869 73.0253C124.751 73.1757 124.728 73.3807 124.812 73.5531C124.896 73.7255 125.07 73.835 125.262 73.835V73.335ZM161.159 73.335V73.835C161.435 73.835 161.659 73.6112 161.659 73.335H161.159ZM161.153 73.8343C161.194 73.8348 161.236 73.835 161.277 73.835V72.835C161.24 72.835 161.202 72.8348 161.164 72.8344L161.153 73.8343ZM161.277 73.835C167.199 73.835 172 69.0345 172 63.1128H171C171 68.4822 166.647 72.835 161.277 72.835V73.835ZM172 63.1128C172 57.191 167.199 52.3905 161.277 52.3905V53.3905C166.647 53.3905 171 57.7433 171 63.1128H172ZM161.277 52.3905C161.236 52.3905 161.194 52.3908 161.153 52.3912L161.164 53.3912C161.202 53.3907 161.24 53.3905 161.277 53.3905V52.3905ZM160.659 52.8905V52.8912H161.659V52.8905H160.659ZM158.518 53.3905H161.159V52.3905H158.518V53.3905ZM159.013 52.9581C159.112 52.2362 159.163 51.4994 159.163 50.751H158.163C158.163 51.4541 158.115 52.1457 158.022 52.823L159.013 52.9581ZM159.163 50.751C159.163 41.8095 151.914 34.561 142.973 34.561V35.561C151.362 35.561 158.163 42.3618 158.163 50.751H159.163ZM142.973 34.561C134.031 34.561 126.783 41.8095 126.783 50.751H127.783C127.783 42.3618 134.583 35.561 142.973 35.561V34.561ZM126.783 50.751C126.783 51.5942 126.847 52.4226 126.972 53.2316L127.96 53.0795C127.843 52.3207 127.783 51.5431 127.783 50.751H126.783ZM127.579 52.6685C126.796 52.4866 125.98 52.3905 125.143 52.3905V53.3905C125.904 53.3905 126.643 53.4778 127.353 53.6426L127.579 52.6685ZM125.143 52.3905C119.221 52.3905 114.421 57.191 114.421 63.1128H115.421C115.421 57.7433 119.774 53.3905 125.143 53.3905V52.3905ZM114.421 63.1128C114.421 69.0345 119.221 73.835 125.143 73.835V72.835C119.774 72.835 115.421 68.4822 115.421 63.1128H114.421ZM125.143 73.835C125.185 73.835 125.227 73.8348 125.268 73.8343L125.257 72.8344C125.219 72.8348 125.181 72.835 125.143 72.835V73.835ZM125.654 73.6448L125.655 73.6441L124.87 73.0246L124.869 73.0253L125.654 73.6448ZM161.159 72.835H125.262V73.835H161.159V72.835ZM160.659 73.3343V73.335H161.659V73.3343H160.659Z" fill="url(#paint3_linear_366_886)" mask="url(#path-3-inside-2_366_886)"/>
</g>
<g filter="url(#filter2_bdd_366_886)">
<path d="M102.591 79.1902C103.722 77.7391 106.046 78.4461 106.177 80.281L106.563 85.6866C106.768 88.5473 104.04 90.7237 101.296 89.8891C98.5521 89.0544 97.4981 85.7277 99.2607 83.4653L102.591 79.1902Z" fill="url(#paint4_linear_366_886)" stroke="url(#paint5_linear_366_886)" stroke-width="0.5" stroke-linecap="round"/>
<path d="M121.508 79.1902C122.639 77.7391 124.963 78.4461 125.094 80.281L125.48 85.6866C125.685 88.5473 122.957 90.7237 120.213 89.8891C117.469 89.0544 116.415 85.7277 118.178 83.4653L121.508 79.1902Z" fill="url(#paint6_linear_366_886)" stroke="url(#paint7_linear_366_886)" stroke-width="0.5" stroke-linecap="round"/>
<path d="M140.425 79.1902C141.556 77.7391 143.88 78.4461 144.011 80.281L144.397 85.6866C144.602 88.5473 141.874 90.7237 139.13 89.8891C136.386 89.0544 135.332 85.7277 137.095 83.4653L140.425 79.1902Z" fill="url(#paint8_linear_366_886)" stroke="url(#paint9_linear_366_886)" stroke-width="0.5" stroke-linecap="round"/>
</g>
<g filter="url(#filter3_bdd_366_886)">
<path d="M107.583 94.164C108.713 92.7128 111.038 93.4199 111.169 95.2548L111.555 100.66C111.759 103.521 109.031 105.697 106.287 104.863C103.543 104.028 102.489 100.701 104.252 98.439L107.583 94.164Z" fill="url(#paint10_linear_366_886)" stroke="url(#paint11_linear_366_886)" stroke-width="0.5" stroke-linecap="round"/>
<path d="M123.565 94.164C124.696 92.7128 127.02 93.4199 127.151 95.2548L127.537 100.66C127.741 103.521 125.013 105.697 122.27 104.863C119.526 104.028 118.472 100.701 120.234 98.439L123.565 94.164Z" fill="url(#paint12_linear_366_886)" stroke="url(#paint13_linear_366_886)" stroke-width="0.5" stroke-linecap="round"/>
</g>
<defs>
<filter id="filter0_bd_366_886" x="0.5" y="0.0610352" width="178.29" height="152.961" filterUnits="userSpaceOnUse" color-interpolation-filters="sRGB">
<feFlood flood-opacity="0" result="BackgroundImageFix"/>
<feGaussianBlur in="BackgroundImageFix" stdDeviation="7"/>
<feComposite in2="SourceAlpha" operator="in" result="effect1_backgroundBlur_366_886"/>
<feColorMatrix in="SourceAlpha" type="matrix" values="0 0 0 0 0 0 0 0 0 0 0 0 0 0 0 0 0 0 127 0" result="hardAlpha"/>
<feOffset dx="-21" dy="15"/>
<feGaussianBlur stdDeviation="25"/>
<feComposite in2="hardAlpha" operator="out"/>
<feColorMatrix type="matrix" values="0 0 0 0 0.113725 0 0 0 0 0.14902 0 0 0 0 0.27451 0 0 0 0.25 0"/>
<feBlend mode="normal" in2="effect1_backgroundBlur_366_886" result="effect2_dropShadow_366_886"/>
<feBlend mode="normal" in="SourceGraphic" in2="effect2_dropShadow_366_886" result="shape"/>
</filter>
<filter id="filter1_bd_366_886" x="43.9209" y="0.0610352" width="156.579" height="138.274" filterUnits="userSpaceOnUse" color-interpolation-filters="sRGB">
<feFlood flood-opacity="0" result="BackgroundImageFix"/>
<feGaussianBlur in="BackgroundImageFix" stdDeviation="7"/>
<feComposite in2="SourceAlpha" operator="in" result="effect1_backgroundBlur_366_886"/>
<feColorMatrix in="SourceAlpha" type="matrix" values="0 0 0 0 0 0 0 0 0 0 0 0 0 0 0 0 0 0 127 0" result="hardAlpha"/>
<feOffset dx="-21" dy="15"/>
<feGaussianBlur stdDeviation="25"/>
<feComposite in2="hardAlpha" operator="out"/>
<feColorMatrix type="matrix" values="0 0 0 0 0.113438 0 0 0 0 0.148981 0 0 0 0 0.275 0 0 0 0.25 0"/>
<feBlend mode="normal" in2="effect1_backgroundBlur_366_886" result="effect2_dropShadow_366_886"/>
<feBlend mode="normal" in="SourceGraphic" in2="effect2_dropShadow_366_886" result="shape"/>
</filter>
<filter id="filter2_bdd_366_886" x="27.145" y="30.1632" width="158.513" height="125.156" filterUnits="userSpaceOnUse" color-interpolation-filters="sRGB">
<feFlood flood-opacity="0" result="BackgroundImageFix"/>
<feGaussianBlur in="BackgroundImageFix" stdDeviation="7"/>
<feComposite in2="SourceAlpha" operator="in" result="effect1_backgroundBlur_366_886"/>
<feColorMatrix in="SourceAlpha" type="matrix" values="0 0 0 0 0 0 0 0 0 0 0 0 0 0 0 0 0 0 127 0" result="hardAlpha"/>
<feOffset dx="-21" dy="15"/>
<feGaussianBlur stdDeviation="25"/>
<feComposite in2="hardAlpha" operator="out"/>
<feColorMatrix type="matrix" values="0 0 0 0 0.113438 0 0 0 0 0.148981 0 0 0 0 0.275 0 0 0 0.25 0"/>
<feBlend mode="normal" in2="effect1_backgroundBlur_366_886" result="effect2_dropShadow_366_886"/>
<feColorMatrix in="SourceAlpha" type="matrix" values="0 0 0 0 0 0 0 0 0 0 0 0 0 0 0 0 0 0 127 0" result="hardAlpha"/>
<feOffset dy="-7"/>
<feGaussianBlur stdDeviation="20.5"/>
<feComposite in2="hardAlpha" operator="out"/>
<feColorMatrix type="matrix" values="0 0 0 0 0.1375 0 0 0 0 0.74125 0 0 0 0 1 0 0 0 0.3 0"/>
<feBlend mode="normal" in2="effect2_dropShadow_366_886" result="effect3_dropShadow_366_886"/>
<feBlend mode="normal" in="SourceGraphic" in2="effect3_dropShadow_366_886" result="shape"/>
</filter>
<filter id="filter3_bdd_366_886" x="32.1362" y="45.137" width="136.662" height="125.156" filterUnits="userSpaceOnUse" color-interpolation-filters="sRGB">
<feFlood flood-opacity="0" result="BackgroundImageFix"/>
<feGaussianBlur in="BackgroundImageFix" stdDeviation="7"/>
<feComposite in2="SourceAlpha" operator="in" result="effect1_backgroundBlur_366_886"/>
<feColorMatrix in="SourceAlpha" type="matrix" values="0 0 0 0 0 0 0 0 0 0 0 0 0 0 0 0 0 0 127 0" result="hardAlpha"/>
<feOffset dx="-21" dy="15"/>
<feGaussianBlur stdDeviation="25"/>
<feComposite in2="hardAlpha" operator="out"/>
<feColorMatrix type="matrix" values="0 0 0 0 0.113438 0 0 0 0 0.148981 0 0 0 0 0.275 0 0 0 0.25 0"/>
<feBlend mode="normal" in2="effect1_backgroundBlur_366_886" result="effect2_dropShadow_366_886"/>
<feColorMatrix in="SourceAlpha" type="matrix" values="0 0 0 0 0 0 0 0 0 0 0 0 0 0 0 0 0 0 127 0" result="hardAlpha"/>
<feOffset dy="-7"/>
<feGaussianBlur stdDeviation="20.5"/>
<feComposite in2="hardAlpha" operator="out"/>
<feColorMatrix type="matrix" values="0 0 0 0 0.1375 0 0 0 0 0.74125 0 0 0 0 1 0 0 0 0.3 0"/>
<feBlend mode="normal" in2="effect2_dropShadow_366_886" result="effect3_dropShadow_366_886"/>
<feBlend mode="normal" in="SourceGraphic" in2="effect3_dropShadow_366_886" result="shape"/>
</filter>
<linearGradient id="paint0_linear_366_886" x1="110.645" y1="18.1202" x2="110.645" y2="95.4229" gradientUnits="userSpaceOnUse">
<stop stop-color="white"/>
<stop offset="1" stop-color="white" stop-opacity="0"/>
</linearGradient>
<linearGradient id="paint1_linear_366_886" x1="110.645" y1="35.061" x2="110.645" y2="88.0216" gradientUnits="userSpaceOnUse">
<stop stop-color="white"/>
<stop offset="1" stop-color="white" stop-opacity="0"/>
</linearGradient>
<linearGradient id="paint2_linear_366_886" x1="145.842" y1="36.2124" x2="145.842" y2="77.6597" gradientUnits="userSpaceOnUse">
<stop stop-color="white"/>
<stop offset="1" stop-color="white" stop-opacity="0"/>
</linearGradient>
<linearGradient id="paint3_linear_366_886" x1="143.21" y1="35.061" x2="143.21" y2="73.335" gradientUnits="userSpaceOnUse">
<stop stop-color="white"/>
<stop offset="1" stop-color="white" stop-opacity="0"/>
</linearGradient>
<linearGradient id="paint4_linear_366_886" x1="106.008" y1="74.3981" x2="101.223" y2="90.1282" gradientUnits="userSpaceOnUse">
<stop stop-color="#138EFF"/>
<stop offset="1" stop-color="#00E0FF"/>
</linearGradient>
<linearGradient id="paint5_linear_366_886" x1="106.008" y1="74.3981" x2="101.223" y2="90.1282" gradientUnits="userSpaceOnUse">
<stop stop-color="white"/>
<stop offset="1" stop-color="white" stop-opacity="0"/>
</linearGradient>
<linearGradient id="paint6_linear_366_886" x1="124.925" y1="74.3981" x2="120.14" y2="90.1282" gradientUnits="userSpaceOnUse">
<stop stop-color="#138EFF"/>
<stop offset="1" stop-color="#00E0FF"/>
</linearGradient>
<linearGradient id="paint7_linear_366_886" x1="124.925" y1="74.3981" x2="120.14" y2="90.1282" gradientUnits="userSpaceOnUse">
<stop stop-color="white"/>
<stop offset="1" stop-color="white" stop-opacity="0"/>
</linearGradient>
<linearGradient id="paint8_linear_366_886" x1="143.842" y1="74.3981" x2="139.057" y2="90.1282" gradientUnits="userSpaceOnUse">
<stop stop-color="#138EFF"/>
<stop offset="1" stop-color="#00E0FF"/>
</linearGradient>
<linearGradient id="paint9_linear_366_886" x1="143.842" y1="74.3981" x2="139.057" y2="90.1282" gradientUnits="userSpaceOnUse">
<stop stop-color="white"/>
<stop offset="1" stop-color="white" stop-opacity="0"/>
</linearGradient>
<linearGradient id="paint10_linear_366_886" x1="110.999" y1="89.3718" x2="106.214" y2="105.102" gradientUnits="userSpaceOnUse">
<stop stop-color="#138EFF"/>
<stop offset="1" stop-color="#00E0FF"/>
</linearGradient>
<linearGradient id="paint11_linear_366_886" x1="110.999" y1="89.3718" x2="106.214" y2="105.102" gradientUnits="userSpaceOnUse">
<stop stop-color="white"/>
<stop offset="1" stop-color="white" stop-opacity="0"/>
</linearGradient>
<linearGradient id="paint12_linear_366_886" x1="126.982" y1="89.3718" x2="122.197" y2="105.102" gradientUnits="userSpaceOnUse">
<stop stop-color="#138EFF"/>
<stop offset="1" stop-color="#00E0FF"/>
</linearGradient>
<linearGradient id="paint13_linear_366_886" x1="126.982" y1="89.3718" x2="122.197" y2="105.102" gradientUnits="userSpaceOnUse">
<stop stop-color="white"/>
<stop offset="1" stop-color="white" stop-opacity="0"/>
</linearGradient>
</defs>
</svg>
