<svg width="100" height="104" viewBox="0 0 100 104" fill="none" xmlns="http://www.w3.org/2000/svg">
<path d="M93.1595 26.5885C89.5453 22.9829 84.7177 20.4657 79.1142 19.2609C78.5889 19.1479 78.0973 18.9136 77.6786 18.5769C77.2599 18.2401 76.9256 17.8101 76.7026 17.3213C74.642 12.8207 71.5222 8.886 67.6099 5.8536C62.6034 2.02386 56.5151 0.000152444 50 0.000152444C42.5761 -0.0234141 35.4033 2.68616 29.8491 7.61222C24.6336 12.2588 21.0323 18.6769 19.4116 26.1101C19.2765 26.7393 18.9685 27.3183 18.5223 27.782C18.076 28.2457 17.5093 28.5758 16.8858 28.7351C11.4978 30.0928 9.18965 31.4377 6.28017 34.0282C2.15517 37.7006 0 42.7027 0 48.4484C0 55.0325 2.42026 60.4398 6.99784 64.0864C11.0086 67.2782 16.4871 68.9657 22.8448 68.9657H73.2759C80.431 68.9657 87.0927 66.4958 92.0259 62.0088C97.1638 57.3428 100 50.873 100 43.7933C100 37.0066 97.6293 31.0583 93.1595 26.5885V26.5885Z" fill="#CAD7DF"/>
<path d="M18.9657 93.1033C18.3417 93.1029 17.7294 92.9332 17.1942 92.6122C16.659 92.2912 16.221 91.831 15.9268 91.2806C15.6326 90.7303 15.4932 90.1104 15.5236 89.487C15.554 88.8637 15.753 88.2603 16.0994 87.7412L22.9959 77.3964C23.2472 77.0197 23.5703 76.6962 23.9466 76.4443C24.323 76.1925 24.7453 76.0172 25.1893 75.9285C25.6334 75.8399 26.0906 75.8396 26.5348 75.9276C26.979 76.0156 27.4015 76.1903 27.7782 76.4416C28.1549 76.693 28.4785 77.016 28.7303 77.3924C28.9822 77.7687 29.1574 78.191 29.2461 78.6351C29.3347 79.0791 29.335 79.5363 29.247 79.9805C29.159 80.4247 28.9843 80.8473 28.733 81.224L21.8364 91.5688C21.5213 92.0412 21.0943 92.4284 20.5935 92.6961C20.0927 92.9638 19.5336 93.1036 18.9657 93.1033V93.1033Z" fill="#484D50"/>
<path d="M29.3098 103.448C28.6859 103.447 28.0739 103.277 27.539 102.956C27.0041 102.635 26.5664 102.175 26.2725 101.625C25.9785 101.074 25.8394 100.454 25.8698 99.8313C25.9003 99.2082 26.0993 98.605 26.4456 98.086L40.2387 77.3964C40.49 77.0197 40.813 76.6962 41.1894 76.4443C41.5657 76.1925 41.988 76.0172 42.4321 75.9285C42.8762 75.8399 43.3334 75.8396 43.7776 75.9276C44.2218 76.0156 44.6443 76.1903 45.021 76.4416C45.3977 76.693 45.7212 77.016 45.973 77.3924C46.2249 77.7687 46.4001 78.191 46.4888 78.6351C46.5775 79.0791 46.5778 79.5363 46.4897 79.9805C46.4017 80.4247 46.227 80.8473 45.9757 81.224L32.1826 101.914C31.8673 102.386 31.44 102.774 30.9388 103.041C30.4376 103.309 29.878 103.449 29.3098 103.448V103.448Z" fill="#484D50"/>
<path d="M53.4477 93.1038C52.8236 93.1034 52.2113 92.9337 51.6761 92.6127C51.141 92.2917 50.7029 91.8315 50.4087 91.2811C50.1145 90.7308 49.9752 90.1109 50.0056 89.4875C50.036 88.8642 50.2349 88.2608 50.5813 87.7417L57.4778 77.3969C57.9854 76.6361 58.7744 76.1081 59.6713 75.929C60.5681 75.75 61.4994 75.9346 62.2602 76.4421C63.021 76.9497 63.5489 77.7387 63.728 78.6356C63.907 79.5324 63.7225 80.4637 63.2149 81.2245L56.3184 91.5693C56.0032 92.0417 55.5763 92.4289 55.0755 92.6966C54.5747 92.9643 54.0155 93.1041 53.4477 93.1038V93.1038Z" fill="#484D50"/>
<path d="M63.7919 103.448C63.1678 103.448 62.5556 103.278 62.0204 102.957C61.4852 102.636 61.0471 102.176 60.7529 101.625C60.4587 101.075 60.3194 100.455 60.3498 99.8319C60.3802 99.2086 60.5792 98.6052 60.9255 98.086L74.7186 77.3964C75.2262 76.6356 76.0152 76.1076 76.9121 75.9286C77.8089 75.7495 78.7402 75.9341 79.501 76.4416C80.2617 76.9492 80.7897 77.7382 80.9688 78.6351C81.1478 79.5319 80.9633 80.4632 80.4557 81.224L66.6626 101.914C66.3474 102.386 65.9205 102.773 65.4197 103.041C64.9189 103.309 64.3598 103.448 63.7919 103.448V103.448Z" fill="#484D50"/>
</svg>
