<svg width="301" height="300" viewBox="0 0 301 300" fill="none" xmlns="http://www.w3.org/2000/svg">
<g filter="url(#filter0_f_366_885)">
<circle cx="150.5" cy="150" r="50" fill="#FFC701" fill-opacity="0.35"/>
</g>
<path d="M198.611 151.639C198.611 178.21 177.071 199.75 150.5 199.75C123.929 199.75 102.389 178.21 102.389 151.639C102.389 125.068 123.929 103.529 150.5 103.529C177.071 103.529 198.611 125.068 198.611 151.639Z" fill="url(#paint0_linear_366_885)" stroke="url(#paint1_linear_366_885)" stroke-width="0.5" stroke-linecap="round"/>
<mask id="mask0_366_885" style="mask-type:alpha" maskUnits="userSpaceOnUse" x="102" y="130" width="97" height="71">
<path d="M198.861 151.639C198.861 178.348 177.209 200 150.5 200C123.791 200 102.139 178.348 102.139 151.639C102.139 124.931 120.102 131.148 146.811 131.148C173.52 131.148 198.861 124.931 198.861 151.639Z" fill="url(#paint2_linear_366_885)"/>
</mask>
<g mask="url(#mask0_366_885)">
<g filter="url(#filter1_f_366_885)">
<path fill-rule="evenodd" clip-rule="evenodd" d="M224.271 240.164C224.271 259.63 208.491 275.41 189.025 275.41C188.888 275.41 188.751 275.409 188.615 275.408V275.41H64.8444L64.846 275.408C64.709 275.409 64.5718 275.41 64.4344 275.41C44.9686 275.41 29.1884 259.63 29.1884 240.164C29.1884 220.699 44.9686 204.918 64.4344 204.918C81.2133 204.918 95.2538 216.643 98.8102 232.346L110.746 217.213L148.041 204.918H188.615V204.92C188.751 204.919 188.888 204.918 189.025 204.918C208.491 204.918 224.271 220.698 224.271 240.164Z" fill="#E18700"/>
</g>
</g>
<defs>
<filter id="filter0_f_366_885" x="0.5" y="0" width="300" height="300" filterUnits="userSpaceOnUse" color-interpolation-filters="sRGB">
<feFlood flood-opacity="0" result="BackgroundImageFix"/>
<feBlend mode="normal" in="SourceGraphic" in2="BackgroundImageFix" result="shape"/>
<feGaussianBlur stdDeviation="50" result="effect1_foregroundBlur_366_885"/>
</filter>
<filter id="filter1_f_366_885" x="15.1885" y="190.918" width="223.082" height="98.4921" filterUnits="userSpaceOnUse" color-interpolation-filters="sRGB">
<feFlood flood-opacity="0" result="BackgroundImageFix"/>
<feBlend mode="normal" in="SourceGraphic" in2="BackgroundImageFix" result="shape"/>
<feGaussianBlur stdDeviation="7" result="effect1_foregroundBlur_366_885"/>
</filter>
<linearGradient id="paint0_linear_366_885" x1="150.5" y1="103.279" x2="150.5" y2="200" gradientUnits="userSpaceOnUse">
<stop stop-color="#FFE600"/>
<stop offset="1" stop-color="#FF7A00"/>
</linearGradient>
<linearGradient id="paint1_linear_366_885" x1="150.5" y1="103.279" x2="150.5" y2="200" gradientUnits="userSpaceOnUse">
<stop stop-color="white"/>
<stop offset="1" stop-color="white" stop-opacity="0"/>
</linearGradient>
<linearGradient id="paint2_linear_366_885" x1="150.5" y1="103.279" x2="150.5" y2="200" gradientUnits="userSpaceOnUse">
<stop stop-color="#FFD600"/>
<stop offset="1" stop-color="#FF7A00"/>
</linearGradient>
</defs>
</svg>
