<svg width="140" height="140" viewBox="0 0 140 140" fill="none" xmlns="http://www.w3.org/2000/svg">
<circle cx="70" cy="70" r="63.75" fill="url(#paint0_linear_468_844)" stroke="url(#paint1_linear_468_844)" stroke-width="0.5" stroke-linecap="round"/>
<g clip-path="url(#clip0_468_844)">
<path d="M42.0479 68.8202C42.3169 68.6546 42.602 68.506 42.8959 68.3921C43.5182 68.151 43.9458 67.7121 44.1018 67.0845C44.33 66.1642 45.0431 65.758 45.8159 65.657C47.3021 65.4632 48.2297 64.4754 49.0216 63.4408C49.6124 62.6687 49.8357 61.6087 49.4694 60.5717C49.3849 60.3322 49.3781 60.1392 49.4746 59.8593C49.5958 59.5093 49.4608 59.0651 49.4165 58.6636C48.9812 54.7255 47.4281 51.2058 45.3682 47.8768C45.1735 47.5621 44.9788 47.248 44.7822 46.935C44.2771 46.1302 44.0691 45.2611 43.9503 44.3069C43.6992 42.2886 43.6236 40.2421 43.0091 38.2705C42.3738 36.2329 42.4199 34.156 42.7914 32.0577C42.9832 30.9738 42.9396 29.8499 43.0519 28.7491C43.3088 26.224 43.8988 23.7834 45.1312 21.5438C45.6804 20.5459 46.3216 19.597 46.9537 18.6471C47.2141 18.2558 47.5222 17.8423 48.1143 18.0604C48.4257 18.1751 48.84 18.9677 48.8144 19.3982C48.8072 19.5202 48.7466 19.6437 48.7595 19.7612C48.7865 20.0083 48.8451 20.2519 48.892 20.497C48.9618 20.864 49.0536 21.2287 49.0967 21.5986C49.1366 21.9406 49.1266 22.2891 49.1355 22.6348C49.1456 23.0382 49.175 23.4428 49.1544 23.8447C49.1205 24.5118 49.0769 25.151 49.4105 25.7943C49.5905 26.142 49.4896 26.6258 49.5704 27.0372C49.6555 27.4713 49.8156 27.8901 49.9265 28.3194C50.0937 28.9639 50.2779 29.6064 50.3986 30.2601C50.6095 31.3976 50.7435 32.5502 50.9721 33.6841C51.2706 35.1649 51.6388 36.6316 51.9587 38.1084C52.0956 38.7404 52.1744 39.3849 52.3031 40.0189C52.3475 40.2374 52.4723 40.4384 52.5449 40.6525C52.6698 41.0212 52.7845 41.393 52.8975 41.7654C52.9173 41.8308 52.8887 41.9149 52.9165 41.9741C53.2827 42.7487 53.6567 43.5192 54.0253 44.2925C54.2257 44.7124 54.4211 45.1352 54.6149 45.5581C54.6513 45.6372 54.6622 45.7281 54.6994 45.8069C55.4804 47.4512 56.3131 49.0738 57.0331 50.7444C57.8278 52.5884 58.3661 54.5052 58.6027 56.5224C58.8442 58.5778 59.2472 60.6158 59.6309 62.6521C59.7487 63.2775 60.0202 63.8772 60.2519 64.4765C60.4014 64.8634 60.9497 65.0698 61.3769 64.97C63.6399 64.4418 65.9107 63.8708 68.244 63.9111C69.6412 63.9354 71.0307 64.2835 72.4276 64.4572C76.6541 64.9822 80.8797 65.5128 85.1101 66.0026C88.0907 66.3478 91.0774 66.4121 94.0585 65.9663C94.2147 65.9428 94.3734 65.9339 94.5318 65.9295C94.5774 65.9283 94.6242 65.9654 94.7861 66.0346C94.5592 66.1948 94.4207 66.3588 94.2515 66.4016C93.5036 66.5893 92.7492 66.7549 91.9924 66.9044C91.3589 67.0296 90.705 67.0712 90.0836 67.2379C88.6533 67.6224 87.2318 67.4697 85.7962 67.3034C84.5981 67.1645 83.3927 67.0541 82.188 67.0223C81.7318 67.0102 81.2754 67.2961 80.8073 67.3679C80.2981 67.4463 79.7752 67.445 79.2578 67.4584C78.6671 67.4737 78.0755 67.4632 77.4847 67.47C76.8527 67.4777 76.2078 67.4147 75.5924 67.5217C74.5958 67.6954 73.6177 67.9797 72.6336 68.2227C71.6519 68.4654 70.6729 68.7206 69.6901 68.9601C68.9968 69.1293 68.2994 69.2839 67.6023 69.437C67.5034 69.4588 67.3757 69.4729 67.2934 69.4298C66.9125 69.229 66.7022 69.3688 66.6158 69.8117C66.174 69.678 65.7754 69.5573 65.3765 69.4366C65.3457 69.483 65.3147 69.5294 65.284 69.5758C66.9748 70.7102 68.6353 71.8934 70.3648 72.9651C72.1061 74.0437 74.0942 74.5162 76.1052 74.8918C76.0958 74.9758 76.0865 75.0597 76.0772 75.1442C75.6286 75.2113 75.1601 75.3953 74.7357 75.3223C73.6947 75.143 72.6746 74.8434 71.6453 74.5958C71.4397 74.5465 71.2673 74.4472 71.0601 74.71C70.9483 74.8523 70.567 74.8255 70.3131 74.8042C69.6827 74.7508 69.0576 74.6329 68.4273 74.588C68.0311 74.5598 67.6285 74.6171 67.2288 74.6337C67.0729 74.6401 66.8791 74.7019 66.766 74.6337C65.8271 74.0639 64.7811 74.2775 63.7897 74.2642C62.1927 74.2428 60.5903 74.3325 58.9955 74.4468C57.4387 74.5582 55.9693 74.2816 54.5507 73.671C52.6572 72.8557 50.7233 72.1821 48.7062 71.7206C47.5754 71.4617 46.4383 71.1799 45.461 70.4255C44.586 69.7503 43.5409 69.7349 42.4966 70.1162C41.9772 70.306 41.4434 70.4562 40.8074 70.6588C40.979 69.7845 41.3969 69.2199 42.0479 68.8202Z" fill="#0A0A0A"/>
</g>
<g clip-path="url(#clip1_468_844)">
<path d="M77.0498 115.925C77.1818 115.844 77.3218 115.771 77.4661 115.715C77.7716 115.597 77.9815 115.381 78.058 115.073C78.1701 114.622 78.5202 114.422 78.8995 114.373C79.6291 114.277 80.0845 113.792 80.4732 113.285C80.7632 112.906 80.8729 112.385 80.693 111.876C80.6516 111.759 80.6482 111.664 80.6956 111.526C80.7551 111.355 80.6889 111.137 80.6671 110.939C80.4534 109.006 79.6909 107.278 78.6797 105.644C78.5842 105.49 78.4886 105.335 78.3921 105.182C78.1441 104.787 78.042 104.36 77.9837 103.892C77.8604 102.901 77.8233 101.896 77.5216 100.928C77.2098 99.928 77.2324 98.9084 77.4148 97.8784C77.5089 97.3463 77.4875 96.7945 77.5427 96.2541C77.6688 95.0146 77.9584 93.8164 78.5634 92.717C78.833 92.2271 79.1478 91.7613 79.4581 91.295C79.5859 91.1029 79.7372 90.8999 80.0278 91.0069C80.1807 91.0633 80.3841 91.4523 80.3715 91.6637C80.368 91.7236 80.3382 91.7842 80.3446 91.8419C80.3578 91.9632 80.3866 92.0828 80.4096 92.2031C80.4439 92.3833 80.4889 92.5623 80.5101 92.7439C80.5297 92.9118 80.5248 93.0829 80.5291 93.2525C80.5341 93.4506 80.5485 93.6492 80.5384 93.8465C80.5218 94.174 80.5004 94.4878 80.6641 94.8036C80.7525 94.9743 80.703 95.2118 80.7426 95.4138C80.7844 95.6269 80.863 95.8324 80.9175 96.0432C80.9995 96.3596 81.09 96.675 81.1492 96.9959C81.2527 97.5543 81.3185 98.1201 81.4308 98.6768C81.5773 99.4037 81.758 100.124 81.9151 100.849C81.9823 101.159 82.021 101.475 82.0842 101.787C82.1059 101.894 82.1672 101.993 82.2029 102.098C82.2641 102.279 82.3205 102.461 82.3759 102.644C82.3857 102.676 82.3716 102.717 82.3853 102.746C82.565 103.127 82.7487 103.505 82.9296 103.885C83.028 104.091 83.1239 104.298 83.219 104.506C83.2369 104.545 83.2423 104.589 83.2605 104.628C83.6439 105.435 84.0527 106.232 84.4062 107.052C84.7963 107.957 85.0605 108.898 85.1767 109.888C85.2952 110.897 85.4931 111.898 85.6814 112.897C85.7393 113.204 85.8726 113.499 85.9863 113.793C86.0597 113.983 86.3288 114.084 86.5386 114.035C87.6495 113.776 88.7642 113.496 89.9097 113.515C90.5956 113.527 91.2777 113.698 91.9634 113.784C94.0383 114.041 96.1126 114.302 98.1894 114.542C99.6526 114.712 101.119 114.743 102.582 114.524C102.659 114.513 102.737 114.508 102.815 114.506C102.837 114.506 102.86 114.524 102.939 114.558C102.828 114.637 102.76 114.717 102.677 114.738C102.31 114.83 101.94 114.912 101.568 114.985C101.257 115.046 100.936 115.067 100.631 115.149C99.9288 115.337 99.2309 115.262 98.5262 115.181C97.9381 115.113 97.3463 115.058 96.7549 115.043C96.5309 115.037 96.3069 115.177 96.0771 115.212C95.8271 115.251 95.5704 115.25 95.3165 115.257C95.0265 115.264 94.736 115.259 94.446 115.263C94.1358 115.266 93.8192 115.235 93.5171 115.288C93.0278 115.373 92.5477 115.513 92.0646 115.632C91.5827 115.751 91.1021 115.876 90.6196 115.994C90.2792 116.077 89.9369 116.153 89.5947 116.228C89.5461 116.239 89.4834 116.246 89.443 116.225C89.2561 116.126 89.1528 116.195 89.1104 116.412C88.8935 116.346 88.6978 116.287 88.502 116.228C88.4869 116.251 88.4716 116.274 88.4566 116.296C89.2866 116.853 90.1018 117.434 90.9508 117.96C91.8056 118.49 92.7816 118.722 93.7688 118.906C93.7642 118.947 93.7597 118.988 93.7551 119.03C93.5348 119.063 93.3049 119.153 93.0965 119.117C92.5855 119.029 92.0847 118.882 91.5794 118.761C91.4785 118.737 91.3938 118.688 91.2921 118.817C91.2372 118.887 91.0501 118.873 90.9254 118.863C90.6159 118.837 90.3091 118.779 89.9997 118.757C89.8052 118.743 89.6075 118.771 89.4113 118.779C89.3348 118.782 89.2396 118.813 89.1841 118.779C88.7232 118.5 88.2097 118.604 87.723 118.598C86.939 118.587 86.1524 118.631 85.3695 118.688C84.6053 118.742 83.8839 118.606 83.1875 118.307C82.258 117.906 81.3086 117.576 80.3184 117.349C79.7633 117.222 79.2051 117.084 78.7253 116.713C78.2957 116.382 77.7827 116.374 77.27 116.562C77.0151 116.655 76.753 116.729 76.4408 116.828C76.525 116.399 76.7302 116.122 77.0498 115.925Z" fill="#0A0A0A"/>
</g>
<g clip-path="url(#clip2_468_844)">
<path d="M37.4341 108.628C37.5661 108.546 37.7061 108.474 37.8504 108.418C38.1558 108.299 38.3657 108.084 38.4423 107.776C38.5544 107.324 38.9044 107.125 39.2838 107.075C40.0134 106.98 40.4687 106.495 40.8575 105.987C41.1475 105.608 41.2571 105.088 41.0773 104.579C41.0359 104.461 41.0325 104.366 41.0799 104.229C41.1394 104.057 41.0731 103.839 41.0514 103.642C40.8377 101.709 40.0752 99.9807 39.064 98.3465C38.9684 98.192 38.8729 98.0378 38.7764 97.8842C38.5284 97.489 38.4263 97.0624 38.368 96.594C38.2447 95.6032 38.2076 94.5985 37.9059 93.6307C37.5941 92.6304 37.6167 91.6108 37.7991 90.5807C37.8932 90.0487 37.8718 89.4969 37.9269 88.9565C38.053 87.7169 38.3427 86.5188 38.9477 85.4193C39.2173 84.9295 39.5321 84.4637 39.8423 83.9974C39.9702 83.8052 40.1214 83.6023 40.4121 83.7093C40.5649 83.7656 40.7683 84.1547 40.7558 84.3661C40.7523 84.426 40.7225 84.4866 40.7288 84.5443C40.7421 84.6656 40.7709 84.7852 40.7939 84.9055C40.8282 85.0856 40.8732 85.2647 40.8944 85.4463C40.914 85.6142 40.9091 85.7853 40.9134 85.9549C40.9184 86.153 40.9328 86.3516 40.9227 86.5489C40.906 86.8764 40.8847 87.1902 41.0484 87.506C41.1368 87.6767 41.0873 87.9142 41.1269 88.1161C41.1687 88.3293 41.2473 88.5348 41.3017 88.7456C41.3838 89.062 41.4742 89.3774 41.5335 89.6983C41.637 90.2567 41.7028 90.8225 41.815 91.3791C41.9616 92.1061 42.1423 92.8261 42.2994 93.5511C42.3666 93.8613 42.4052 94.1777 42.4684 94.4889C42.4902 94.5962 42.5515 94.6949 42.5871 94.8C42.6484 94.981 42.7047 95.1635 42.7602 95.3463C42.7699 95.3785 42.7559 95.4197 42.7695 95.4488C42.9493 95.8291 43.1329 96.2073 43.3139 96.5869C43.4122 96.7931 43.5082 97.0006 43.6033 97.2082C43.6212 97.2471 43.6266 97.2917 43.6448 97.3303C44.0282 98.1375 44.437 98.9341 44.7904 99.7542C45.1806 100.659 45.4448 101.6 45.5609 102.591C45.6795 103.6 45.8774 104.6 46.0657 105.6C46.1236 105.907 46.2568 106.201 46.3706 106.495C46.4439 106.685 46.7131 106.787 46.9228 106.738C48.0338 106.478 49.1485 106.198 50.2939 106.218C50.9799 106.23 51.662 106.401 52.3477 106.486C54.4225 106.744 56.4969 107.004 58.5737 107.245C60.0369 107.414 61.5031 107.446 62.9665 107.227C63.0432 107.215 63.1211 107.211 63.1989 107.209C63.2213 107.208 63.2442 107.226 63.3237 107.26C63.2123 107.339 63.1443 107.419 63.0613 107.44C62.6941 107.533 62.3238 107.614 61.9523 107.687C61.6413 107.749 61.3203 107.769 61.0152 107.851C60.3131 108.04 59.6152 107.965 58.9105 107.883C58.3223 107.815 57.7306 107.761 57.1392 107.745C56.9152 107.739 56.6912 107.88 56.4614 107.915C56.2114 107.953 55.9547 107.953 55.7008 107.959C55.4107 107.967 55.1203 107.962 54.8303 107.965C54.5201 107.969 54.2035 107.938 53.9013 107.99C53.4121 108.076 52.9319 108.215 52.4488 108.334C51.9669 108.454 51.4863 108.579 51.0039 108.696C50.6635 108.78 50.3211 108.855 49.9789 108.931C49.9304 108.941 49.8677 108.948 49.8273 108.927C49.6403 108.828 49.5371 108.897 49.4947 109.115C49.2778 109.049 49.0821 108.99 48.8863 108.93C48.8712 108.953 48.8559 108.976 48.8409 108.999C49.6709 109.556 50.4861 110.136 51.3351 110.663C52.1899 111.192 53.1659 111.424 54.1531 111.608C54.1485 111.65 54.1439 111.691 54.1394 111.732C53.9191 111.765 53.6891 111.856 53.4808 111.82C52.9697 111.732 52.469 111.585 51.9637 111.463C51.8628 111.439 51.7781 111.39 51.6764 111.519C51.6215 111.589 51.4344 111.576 51.3097 111.565C51.0002 111.539 50.6933 111.481 50.3839 111.459C50.1894 111.445 49.9918 111.474 49.7956 111.482C49.719 111.485 49.6239 111.515 49.5684 111.482C49.1075 111.202 48.594 111.307 48.1073 111.3C47.3233 111.29 46.5367 111.334 45.7538 111.39C44.9895 111.445 44.2682 111.309 43.5718 111.009C42.6422 110.609 41.6929 110.278 40.7026 110.052C40.1476 109.925 39.5893 109.786 39.1096 109.416C38.68 109.084 38.167 109.077 37.6543 109.264C37.3994 109.357 37.1373 109.431 36.8251 109.53C36.9093 109.101 37.1144 108.824 37.4341 108.628Z" fill="#0A0A0A"/>
</g>
<defs>
<linearGradient id="paint0_linear_468_844" x1="70" y1="6" x2="70" y2="134" gradientUnits="userSpaceOnUse">
<stop stop-color="#FFE600"/>
<stop offset="1" stop-color="#FF7A00"/>
</linearGradient>
<linearGradient id="paint1_linear_468_844" x1="70" y1="6" x2="70" y2="134" gradientUnits="userSpaceOnUse">
<stop stop-color="white"/>
<stop offset="1" stop-color="white" stop-opacity="0"/>
</linearGradient>
<clipPath id="clip0_468_844">
<rect width="57.3393" height="57.3393" fill="white" transform="matrix(-1 0 0 1 96.4663 18)"/>
</clipPath>
<clipPath id="clip1_468_844">
<rect width="28.1484" height="28.1484" fill="white" transform="matrix(-1 0 0 1 103.765 90.9773)"/>
</clipPath>
<clipPath id="clip2_468_844">
<rect width="28.1484" height="28.1484" fill="white" transform="matrix(-1 0 0 1 64.1484 83.6797)"/>
</clipPath>
</defs>
</svg>
