<svg width="221" height="185" viewBox="0 0 221 185" fill="none" xmlns="http://www.w3.org/2000/svg">
<g filter="url(#filter0_bd_366_879)">
<mask id="path-1-inside-1_366_879" fill="white">
<path fill-rule="evenodd" clip-rule="evenodd" d="M111.983 69.648C112.018 69.6484 112.053 69.6486 112.088 69.6486C117.077 69.6486 121.122 65.6041 121.122 60.615C121.122 55.6259 117.077 51.5814 112.088 51.5814C112.053 51.5814 112.018 51.5816 111.983 51.582V51.5814H109.649C109.734 50.9632 109.777 50.332 109.777 49.6906C109.777 42.0329 103.569 35.8251 95.9115 35.8251C88.2538 35.8251 82.046 42.0329 82.046 49.6906C82.046 50.4132 82.1012 51.1228 82.2078 51.8156C81.5483 51.6624 80.8612 51.5814 80.1552 51.5814C75.1661 51.5814 71.1216 55.6259 71.1216 60.615C71.1216 65.6041 75.1661 69.6486 80.1552 69.6486C80.1904 69.6486 80.2256 69.6484 80.2607 69.648L80.2602 69.6486H111.983V69.648Z"/>
</mask>
<path fill-rule="evenodd" clip-rule="evenodd" d="M111.983 69.648C112.018 69.6484 112.053 69.6486 112.088 69.6486C117.077 69.6486 121.122 65.6041 121.122 60.615C121.122 55.6259 117.077 51.5814 112.088 51.5814C112.053 51.5814 112.018 51.5816 111.983 51.582V51.5814H109.649C109.734 50.9632 109.777 50.332 109.777 49.6906C109.777 42.0329 103.569 35.8251 95.9115 35.8251C88.2538 35.8251 82.046 42.0329 82.046 49.6906C82.046 50.4132 82.1012 51.1228 82.2078 51.8156C81.5483 51.6624 80.8612 51.5814 80.1552 51.5814C75.1661 51.5814 71.1216 55.6259 71.1216 60.615C71.1216 65.6041 75.1661 69.6486 80.1552 69.6486C80.1904 69.6486 80.2256 69.6484 80.2607 69.648L80.2602 69.6486H111.983V69.648Z" fill="url(#paint0_linear_366_879)" shape-rendering="crispEdges"/>
<path d="M111.983 69.648L111.989 69.148C111.855 69.1465 111.726 69.1985 111.631 69.2924C111.536 69.3864 111.483 69.5144 111.483 69.648H111.983ZM111.983 51.582H111.483C111.483 51.7156 111.536 51.8436 111.631 51.9375C111.726 52.0315 111.855 52.0835 111.989 52.0819L111.983 51.582ZM111.983 51.5814H112.483C112.483 51.3052 112.259 51.0814 111.983 51.0814V51.5814ZM109.649 51.5814L109.154 51.5138C109.134 51.6569 109.178 51.8014 109.273 51.9102C109.367 52.019 109.505 52.0814 109.649 52.0814V51.5814ZM82.2078 51.8156L82.0946 52.3026C82.2562 52.3402 82.426 52.2951 82.5477 52.1823C82.6694 52.0694 82.7272 51.9036 82.702 51.7396L82.2078 51.8156ZM80.2607 69.648L80.6531 69.9578C80.7725 69.8066 80.7944 69.6003 80.7094 69.4274C80.6244 69.2545 80.4477 69.1458 80.255 69.148L80.2607 69.648ZM80.2602 69.6486L79.8678 69.3388C79.7491 69.4892 79.7267 69.6942 79.8103 69.8666C79.8939 70.0391 80.0686 70.1486 80.2602 70.1486V69.6486ZM111.983 69.6486V70.1486C112.259 70.1486 112.483 69.9247 112.483 69.6486H111.983ZM111.977 70.148C112.014 70.1484 112.051 70.1486 112.088 70.1486V69.1486C112.055 69.1486 112.022 69.1484 111.989 69.148L111.977 70.148ZM112.088 70.1486C117.353 70.1486 121.622 65.8803 121.622 60.615H120.622C120.622 65.328 116.801 69.1486 112.088 69.1486V70.1486ZM121.622 60.615C121.622 55.3497 117.353 51.0814 112.088 51.0814V52.0814C116.801 52.0814 120.622 55.902 120.622 60.615H121.622ZM112.088 51.0814C112.051 51.0814 112.014 51.0816 111.977 51.082L111.989 52.0819C112.022 52.0816 112.055 52.0814 112.088 52.0814V51.0814ZM111.483 51.5814V51.582H112.483V51.5814H111.483ZM109.649 52.0814H111.983V51.0814H109.649V52.0814ZM110.145 51.6489C110.232 51.0084 110.277 50.3546 110.277 49.6906H109.277C109.277 50.3093 109.235 50.9179 109.154 51.5138L110.145 51.6489ZM110.277 49.6906C110.277 41.7567 103.845 35.3251 95.9115 35.3251V36.3251C103.293 36.3251 109.277 42.309 109.277 49.6906H110.277ZM95.9115 35.3251C87.9776 35.3251 81.546 41.7567 81.546 49.6906H82.546C82.546 42.309 88.5299 36.3251 95.9115 36.3251V35.3251ZM81.546 49.6906C81.546 50.4387 81.6032 51.1738 81.7136 51.8916L82.702 51.7396C82.5993 51.0719 82.546 50.3876 82.546 49.6906H81.546ZM82.3209 51.3285C81.6247 51.1668 80.8996 51.0814 80.1552 51.0814V52.0814C80.8229 52.0814 81.472 52.158 82.0946 52.3026L82.3209 51.3285ZM80.1552 51.0814C74.8899 51.0814 70.6216 55.3497 70.6216 60.615H71.6216C71.6216 55.902 75.4422 52.0814 80.1552 52.0814V51.0814ZM70.6216 60.615C70.6216 65.8803 74.8899 70.1486 80.1552 70.1486V69.1486C75.4422 69.1486 71.6216 65.328 71.6216 60.615H70.6216ZM80.1552 70.1486C80.1923 70.1486 80.2294 70.1484 80.2664 70.148L80.255 69.148C80.2218 69.1484 80.1885 69.1486 80.1552 69.1486V70.1486ZM80.6527 69.9584L80.6531 69.9578L79.8683 69.3382L79.8678 69.3388L80.6527 69.9584ZM111.983 69.1486H80.2602V70.1486H111.983V69.1486ZM111.483 69.648V69.6486H112.483V69.648H111.483Z" fill="url(#paint1_linear_366_879)" mask="url(#path-1-inside-1_366_879)"/>
</g>
<g filter="url(#filter1_bd_366_879)">
<mask id="path-3-inside-2_366_879" fill="white">
<path fill-rule="evenodd" clip-rule="evenodd" d="M139.29 92.801C139.339 92.8015 139.387 92.8018 139.436 92.8018C146.339 92.8018 151.936 87.2054 151.936 80.3018C151.936 73.3983 146.339 67.8018 139.436 67.8018C139.387 67.8018 139.339 67.8021 139.29 67.8026V67.8018H136.061C136.178 66.9464 136.238 66.073 136.238 65.1855C136.238 54.5894 127.648 45.9995 117.052 45.9995C106.456 45.9995 97.8658 54.5894 97.8658 65.1855C97.8658 66.1854 97.9422 67.1673 98.0897 68.1259C97.1772 67.9139 96.2264 67.8018 95.2495 67.8018C88.3459 67.8018 82.7495 73.3983 82.7495 80.3018C82.7495 87.2054 88.3459 92.8018 95.2495 92.8018C95.2982 92.8018 95.3469 92.8015 95.3955 92.801L95.3948 92.8018H139.29V92.801Z"/>
</mask>
<path fill-rule="evenodd" clip-rule="evenodd" d="M139.29 92.801C139.339 92.8015 139.387 92.8018 139.436 92.8018C146.339 92.8018 151.936 87.2054 151.936 80.3018C151.936 73.3983 146.339 67.8018 139.436 67.8018C139.387 67.8018 139.339 67.8021 139.29 67.8026V67.8018H136.061C136.178 66.9464 136.238 66.073 136.238 65.1855C136.238 54.5894 127.648 45.9995 117.052 45.9995C106.456 45.9995 97.8658 54.5894 97.8658 65.1855C97.8658 66.1854 97.9422 67.1673 98.0897 68.1259C97.1772 67.9139 96.2264 67.8018 95.2495 67.8018C88.3459 67.8018 82.7495 73.3983 82.7495 80.3018C82.7495 87.2054 88.3459 92.8018 95.2495 92.8018C95.2982 92.8018 95.3469 92.8015 95.3955 92.801L95.3948 92.8018H139.29V92.801Z" fill="url(#paint2_linear_366_879)" shape-rendering="crispEdges"/>
<path d="M139.29 92.801L139.296 92.301C139.162 92.2995 139.034 92.3515 138.939 92.4454C138.844 92.5393 138.79 92.6674 138.79 92.801H139.29ZM139.29 67.8026H138.79C138.79 67.9362 138.844 68.0643 138.939 68.1582C139.034 68.2521 139.162 68.3041 139.296 68.3026L139.29 67.8026ZM139.29 67.8018H139.79C139.79 67.5257 139.566 67.3018 139.29 67.3018V67.8018ZM136.061 67.8018L135.566 67.7343C135.546 67.8773 135.589 68.0218 135.684 68.1306C135.779 68.2394 135.917 68.3018 136.061 68.3018V67.8018ZM98.0897 68.1259L97.9765 68.6129C98.1382 68.6505 98.3079 68.6054 98.4296 68.4926C98.5513 68.3798 98.6091 68.2139 98.5839 68.0499L98.0897 68.1259ZM95.3955 92.801L95.7881 93.1106C95.9074 92.9594 95.9292 92.7531 95.8441 92.5803C95.7591 92.4074 95.5824 92.2988 95.3898 92.301L95.3955 92.801ZM95.3948 92.8018L95.0023 92.4922C94.8836 92.6426 94.8613 92.8476 94.9449 93.02C95.0285 93.1923 95.2033 93.3018 95.3948 93.3018V92.8018ZM139.29 92.8018V93.3018C139.566 93.3018 139.79 93.078 139.79 92.8018H139.29ZM139.284 93.301C139.335 93.3015 139.385 93.3018 139.436 93.3018V92.3018C139.389 92.3018 139.342 92.3016 139.296 92.301L139.284 93.301ZM139.436 93.3018C146.615 93.3018 152.436 87.4815 152.436 80.3018H151.436C151.436 86.9292 146.063 92.3018 139.436 92.3018V93.3018ZM152.436 80.3018C152.436 73.1221 146.615 67.3018 139.436 67.3018V68.3018C146.063 68.3018 151.436 73.6744 151.436 80.3018H152.436ZM139.436 67.3018C139.385 67.3018 139.335 67.3021 139.284 67.3027L139.296 68.3026C139.342 68.3021 139.389 68.3018 139.436 68.3018V67.3018ZM138.79 67.8018V67.8026H139.79V67.8018H138.79ZM136.061 68.3018H139.29V67.3018H136.061V68.3018ZM136.556 67.8694C136.676 66.9916 136.738 66.0957 136.738 65.1855H135.738C135.738 66.0503 135.679 66.9012 135.566 67.7343L136.556 67.8694ZM136.738 65.1855C136.738 54.3132 127.924 45.4995 117.052 45.4995V46.4995C127.372 46.4995 135.738 54.8655 135.738 65.1855H136.738ZM117.052 45.4995C106.18 45.4995 97.3658 54.3132 97.3658 65.1855H98.3658C98.3658 54.8655 106.732 46.4995 117.052 46.4995V45.4995ZM97.3658 65.1855C97.3658 66.2109 97.4442 67.2183 97.5955 68.2019L98.5839 68.0499C98.4403 67.1164 98.3658 66.1598 98.3658 65.1855H97.3658ZM98.2028 67.6389C97.2535 67.4183 96.2648 67.3018 95.2495 67.3018V68.3018C96.1881 68.3018 97.1009 68.4095 97.9765 68.6129L98.2028 67.6389ZM95.2495 67.3018C88.0698 67.3018 82.2495 73.1221 82.2495 80.3018H83.2495C83.2495 73.6744 88.6221 68.3018 95.2495 68.3018V67.3018ZM82.2495 80.3018C82.2495 87.4815 88.0698 93.3018 95.2495 93.3018V92.3018C88.6221 92.3018 83.2495 86.9292 83.2495 80.3018H82.2495ZM95.2495 93.3018C95.3001 93.3018 95.3507 93.3015 95.4012 93.3009L95.3898 92.301C95.3431 92.3016 95.2963 92.3018 95.2495 92.3018V93.3018ZM95.7874 93.1115L95.7881 93.1106L95.0029 92.4913L95.0023 92.4922L95.7874 93.1115ZM139.29 92.3018H95.3948V93.3018H139.29V92.3018ZM138.79 92.801V92.8018H139.79V92.801H138.79Z" fill="url(#paint3_linear_366_879)" mask="url(#path-3-inside-2_366_879)"/>
</g>
<g filter="url(#filter2_bdd_366_879)">
<path d="M131.169 95.2207L143.518 72.6219C143.869 71.9801 144.542 71.5809 145.273 71.5809H155.752C157.255 71.5809 158.221 73.1773 157.524 74.5089L150.998 86.9669C150.301 88.2985 151.267 89.8949 152.77 89.8949H157.927C159.656 89.8949 160.571 91.9401 159.418 93.2285L137.36 117.881C135.885 119.529 133.222 117.919 133.996 115.848L139.589 100.88C140.078 99.5727 139.111 98.1798 137.716 98.1798H132.924C131.405 98.1798 130.44 96.5535 131.169 95.2207Z" fill="url(#paint4_linear_366_879)"/>
<path d="M131.388 95.3406L143.737 72.7418C144.044 72.1802 144.633 71.8309 145.273 71.8309H155.752C157.068 71.8309 157.913 73.2277 157.302 74.3929L150.777 86.8509C149.992 88.349 151.079 90.1449 152.77 90.1449H157.927C159.44 90.1449 160.24 91.9345 159.232 93.0618L137.174 117.715C135.883 119.157 133.553 117.748 134.23 115.935L139.823 100.967C140.373 99.4968 139.286 97.9298 137.716 97.9298H132.924C131.595 97.9298 130.751 96.5068 131.388 95.3406Z" stroke="url(#paint5_linear_366_879)" stroke-width="0.5" stroke-linecap="round"/>
</g>
<g filter="url(#filter3_bd_366_879)">
<mask id="path-7-inside-3_366_879" fill="white">
<path fill-rule="evenodd" clip-rule="evenodd" d="M161.983 79.8224C162.018 79.8228 162.053 79.823 162.088 79.823C167.077 79.823 171.122 75.7785 171.122 70.7894C171.122 65.8003 167.077 61.7558 162.088 61.7558C162.053 61.7558 162.018 61.756 161.983 61.7564V61.7558H159.649C159.734 61.1376 159.777 60.5064 159.777 59.865C159.777 52.2073 153.569 45.9995 145.911 45.9995C138.254 45.9995 132.046 52.2073 132.046 59.865C132.046 60.5876 132.101 61.2972 132.208 61.99C131.548 61.8368 130.861 61.7558 130.155 61.7558C125.166 61.7558 121.122 65.8003 121.122 70.7894C121.122 75.7785 125.166 79.823 130.155 79.823C130.19 79.823 130.226 79.8228 130.261 79.8224L130.26 79.823H161.983V79.8224Z"/>
</mask>
<path fill-rule="evenodd" clip-rule="evenodd" d="M161.983 79.8224C162.018 79.8228 162.053 79.823 162.088 79.823C167.077 79.823 171.122 75.7785 171.122 70.7894C171.122 65.8003 167.077 61.7558 162.088 61.7558C162.053 61.7558 162.018 61.756 161.983 61.7564V61.7558H159.649C159.734 61.1376 159.777 60.5064 159.777 59.865C159.777 52.2073 153.569 45.9995 145.911 45.9995C138.254 45.9995 132.046 52.2073 132.046 59.865C132.046 60.5876 132.101 61.2972 132.208 61.99C131.548 61.8368 130.861 61.7558 130.155 61.7558C125.166 61.7558 121.122 65.8003 121.122 70.7894C121.122 75.7785 125.166 79.823 130.155 79.823C130.19 79.823 130.226 79.8228 130.261 79.8224L130.26 79.823H161.983V79.8224Z" fill="url(#paint6_linear_366_879)" shape-rendering="crispEdges"/>
<path d="M161.983 79.8224L161.989 79.3224C161.855 79.3209 161.726 79.3729 161.631 79.4669C161.536 79.5608 161.483 79.6888 161.483 79.8224H161.983ZM161.983 61.7564H161.483C161.483 61.89 161.536 62.018 161.631 62.1119C161.726 62.2059 161.855 62.2579 161.989 62.2564L161.983 61.7564ZM161.983 61.7558H162.483C162.483 61.4796 162.259 61.2558 161.983 61.2558V61.7558ZM159.649 61.7558L159.154 61.6882C159.134 61.8313 159.178 61.9758 159.273 62.0846C159.367 62.1934 159.505 62.2558 159.649 62.2558V61.7558ZM132.208 61.99L132.095 62.477C132.256 62.5146 132.426 62.4695 132.548 62.3567C132.669 62.2439 132.727 62.078 132.702 61.914L132.208 61.99ZM130.261 79.8224L130.653 80.1323C130.773 79.981 130.794 79.7747 130.709 79.6018C130.624 79.4289 130.448 79.3202 130.255 79.3224L130.261 79.8224ZM130.26 79.823L129.868 79.5132C129.749 79.6636 129.727 79.8686 129.81 80.041C129.894 80.2135 130.069 80.323 130.26 80.323V79.823ZM161.983 79.823V80.323C162.259 80.323 162.483 80.0992 162.483 79.823H161.983ZM161.977 80.3224C162.014 80.3228 162.051 80.323 162.088 80.323V79.323C162.055 79.323 162.022 79.3228 161.989 79.3224L161.977 80.3224ZM162.088 80.323C167.353 80.323 171.622 76.0547 171.622 70.7894H170.622C170.622 75.5024 166.801 79.323 162.088 79.323V80.323ZM171.622 70.7894C171.622 65.5241 167.353 61.2558 162.088 61.2558V62.2558C166.801 62.2558 170.622 66.0764 170.622 70.7894H171.622ZM162.088 61.2558C162.051 61.2558 162.014 61.256 161.977 61.2564L161.989 62.2564C162.022 62.256 162.055 62.2558 162.088 62.2558V61.2558ZM161.483 61.7558V61.7564H162.483V61.7558H161.483ZM159.649 62.2558H161.983V61.2558H159.649V62.2558ZM160.145 61.8233C160.232 61.1828 160.277 60.529 160.277 59.865H159.277C159.277 60.4837 159.235 61.0923 159.154 61.6882L160.145 61.8233ZM160.277 59.865C160.277 51.9312 153.845 45.4995 145.911 45.4995V46.4995C153.293 46.4995 159.277 52.4835 159.277 59.865H160.277ZM145.911 45.4995C137.978 45.4995 131.546 51.9312 131.546 59.865H132.546C132.546 52.4835 138.53 46.4995 145.911 46.4995V45.4995ZM131.546 59.865C131.546 60.6131 131.603 61.3482 131.714 62.066L132.702 61.914C132.599 61.2463 132.546 60.5621 132.546 59.865H131.546ZM132.321 61.503C131.625 61.3412 130.9 61.2558 130.155 61.2558V62.2558C130.823 62.2558 131.472 62.3324 132.095 62.477L132.321 61.503ZM130.155 61.2558C124.89 61.2558 120.622 65.5241 120.622 70.7894H121.622C121.622 66.0764 125.442 62.2558 130.155 62.2558V61.2558ZM120.622 70.7894C120.622 76.0547 124.89 80.323 130.155 80.323V79.323C125.442 79.323 121.622 75.5024 121.622 70.7894H120.622ZM130.155 80.323C130.192 80.323 130.229 80.3228 130.266 80.3224L130.255 79.3224C130.222 79.3228 130.189 79.323 130.155 79.323V80.323ZM130.653 80.1329L130.653 80.1323L129.868 79.5126L129.868 79.5132L130.653 80.1329ZM161.983 79.323H130.26V80.323H161.983V79.323ZM161.483 79.8224V79.823H162.483V79.8224H161.483Z" fill="url(#paint7_linear_366_879)" mask="url(#path-7-inside-3_366_879)"/>
</g>
<g filter="url(#filter4_bdd_366_879)">
<path d="M84.3768 96.6432C85.3595 95.3818 87.38 95.9964 87.4939 97.5913L87.835 102.368C88.0141 104.876 85.6227 106.784 83.2175 106.052C80.8122 105.321 79.8882 102.404 81.4334 100.421L84.3768 96.6432Z" fill="url(#paint8_linear_366_879)" stroke="url(#paint9_linear_366_879)" stroke-width="0.5" stroke-linecap="round"/>
<path d="M101.094 96.6432C102.077 95.3818 104.097 95.9964 104.211 97.5913L104.552 102.368C104.731 104.876 102.34 106.784 99.9347 106.052C97.5295 105.321 96.6055 102.404 98.1506 100.421L101.094 96.6432Z" fill="url(#paint10_linear_366_879)" stroke="url(#paint11_linear_366_879)" stroke-width="0.5" stroke-linecap="round"/>
<path d="M117.811 96.6432C118.794 95.3818 120.815 95.9964 120.928 97.5913L121.27 102.368C121.449 104.876 119.057 106.784 116.652 106.052C114.247 105.321 113.323 102.404 114.868 100.421L117.811 96.6432Z" fill="url(#paint12_linear_366_879)" stroke="url(#paint13_linear_366_879)" stroke-width="0.5" stroke-linecap="round"/>
</g>
<g filter="url(#filter5_bdd_366_879)">
<path d="M90.7723 109.876C91.755 108.614 93.7755 109.229 93.8894 110.824L94.2305 115.601C94.4096 118.109 92.0182 120.016 89.613 119.285C87.2077 118.553 86.2837 115.637 87.8289 113.654L90.7723 109.876Z" fill="url(#paint14_linear_366_879)" stroke="url(#paint15_linear_366_879)" stroke-width="0.5" stroke-linecap="round"/>
<path d="M107.633 109.876C108.615 108.614 110.636 109.229 110.75 110.824L111.091 115.601C111.27 118.109 108.879 120.016 106.473 119.285C104.068 118.553 103.144 115.637 104.689 113.654L107.633 109.876Z" fill="url(#paint16_linear_366_879)" stroke="url(#paint17_linear_366_879)" stroke-width="0.5" stroke-linecap="round"/>
</g>
<defs>
<filter id="filter0_bd_366_879" x="0.121582" y="0.825073" width="150" height="133.823" filterUnits="userSpaceOnUse" color-interpolation-filters="sRGB">
<feFlood flood-opacity="0" result="BackgroundImageFix"/>
<feGaussianBlur in="BackgroundImageFix" stdDeviation="7"/>
<feComposite in2="SourceAlpha" operator="in" result="effect1_backgroundBlur_366_879"/>
<feColorMatrix in="SourceAlpha" type="matrix" values="0 0 0 0 0 0 0 0 0 0 0 0 0 0 0 0 0 0 127 0" result="hardAlpha"/>
<feOffset dx="-21" dy="15"/>
<feGaussianBlur stdDeviation="25"/>
<feComposite in2="hardAlpha" operator="out"/>
<feColorMatrix type="matrix" values="0 0 0 0 0.113438 0 0 0 0 0.148981 0 0 0 0 0.275 0 0 0 0.25 0"/>
<feBlend mode="normal" in2="effect1_backgroundBlur_366_879" result="effect2_dropShadow_366_879"/>
<feBlend mode="normal" in="SourceGraphic" in2="effect2_dropShadow_366_879" result="shape"/>
</filter>
<filter id="filter1_bd_366_879" x="11.7495" y="10.9995" width="169.186" height="146.802" filterUnits="userSpaceOnUse" color-interpolation-filters="sRGB">
<feFlood flood-opacity="0" result="BackgroundImageFix"/>
<feGaussianBlur in="BackgroundImageFix" stdDeviation="7"/>
<feComposite in2="SourceAlpha" operator="in" result="effect1_backgroundBlur_366_879"/>
<feColorMatrix in="SourceAlpha" type="matrix" values="0 0 0 0 0 0 0 0 0 0 0 0 0 0 0 0 0 0 127 0" result="hardAlpha"/>
<feOffset dx="-21" dy="15"/>
<feGaussianBlur stdDeviation="25"/>
<feComposite in2="hardAlpha" operator="out"/>
<feColorMatrix type="matrix" values="0 0 0 0 0.113725 0 0 0 0 0.14902 0 0 0 0 0.27451 0 0 0 0.25 0"/>
<feBlend mode="normal" in2="effect1_backgroundBlur_366_879" result="effect2_dropShadow_366_879"/>
<feBlend mode="normal" in="SourceGraphic" in2="effect2_dropShadow_366_879" result="shape"/>
</filter>
<filter id="filter2_bdd_366_879" x="59.9209" y="10.5809" width="161.01" height="172.98" filterUnits="userSpaceOnUse" color-interpolation-filters="sRGB">
<feFlood flood-opacity="0" result="BackgroundImageFix"/>
<feGaussianBlur in="BackgroundImageFix" stdDeviation="7"/>
<feComposite in2="SourceAlpha" operator="in" result="effect1_backgroundBlur_366_879"/>
<feColorMatrix in="SourceAlpha" type="matrix" values="0 0 0 0 0 0 0 0 0 0 0 0 0 0 0 0 0 0 127 0" result="hardAlpha"/>
<feOffset dx="-21" dy="15"/>
<feGaussianBlur stdDeviation="25"/>
<feComposite in2="hardAlpha" operator="out"/>
<feColorMatrix type="matrix" values="0 0 0 0 0.113438 0 0 0 0 0.148981 0 0 0 0 0.275 0 0 0 0.25 0"/>
<feBlend mode="normal" in2="effect1_backgroundBlur_366_879" result="effect2_dropShadow_366_879"/>
<feColorMatrix in="SourceAlpha" type="matrix" values="0 0 0 0 0 0 0 0 0 0 0 0 0 0 0 0 0 0 127 0" result="hardAlpha"/>
<feOffset/>
<feGaussianBlur stdDeviation="30.5"/>
<feComposite in2="hardAlpha" operator="out"/>
<feColorMatrix type="matrix" values="0 0 0 0 1 0 0 0 0 0.721569 0 0 0 0 0.00392157 0 0 0 0.49 0"/>
<feBlend mode="normal" in2="effect2_dropShadow_366_879" result="effect3_dropShadow_366_879"/>
<feBlend mode="normal" in="SourceGraphic" in2="effect3_dropShadow_366_879" result="shape"/>
</filter>
<filter id="filter3_bd_366_879" x="50.1216" y="10.9995" width="150" height="133.823" filterUnits="userSpaceOnUse" color-interpolation-filters="sRGB">
<feFlood flood-opacity="0" result="BackgroundImageFix"/>
<feGaussianBlur in="BackgroundImageFix" stdDeviation="7"/>
<feComposite in2="SourceAlpha" operator="in" result="effect1_backgroundBlur_366_879"/>
<feColorMatrix in="SourceAlpha" type="matrix" values="0 0 0 0 0 0 0 0 0 0 0 0 0 0 0 0 0 0 127 0" result="hardAlpha"/>
<feOffset dx="-21" dy="15"/>
<feGaussianBlur stdDeviation="25"/>
<feComposite in2="hardAlpha" operator="out"/>
<feColorMatrix type="matrix" values="0 0 0 0 0.113438 0 0 0 0 0.148981 0 0 0 0 0.275 0 0 0 0.25 0"/>
<feBlend mode="normal" in2="effect1_backgroundBlur_366_879" result="effect2_dropShadow_366_879"/>
<feBlend mode="normal" in="SourceGraphic" in2="effect2_dropShadow_366_879" result="shape"/>
</filter>
<filter id="filter4_bdd_366_879" x="9.42432" y="47.7178" width="153.105" height="123.743" filterUnits="userSpaceOnUse" color-interpolation-filters="sRGB">
<feFlood flood-opacity="0" result="BackgroundImageFix"/>
<feGaussianBlur in="BackgroundImageFix" stdDeviation="7"/>
<feComposite in2="SourceAlpha" operator="in" result="effect1_backgroundBlur_366_879"/>
<feColorMatrix in="SourceAlpha" type="matrix" values="0 0 0 0 0 0 0 0 0 0 0 0 0 0 0 0 0 0 127 0" result="hardAlpha"/>
<feOffset dx="-21" dy="15"/>
<feGaussianBlur stdDeviation="25"/>
<feComposite in2="hardAlpha" operator="out"/>
<feColorMatrix type="matrix" values="0 0 0 0 0.113438 0 0 0 0 0.148981 0 0 0 0 0.275 0 0 0 0.25 0"/>
<feBlend mode="normal" in2="effect1_backgroundBlur_366_879" result="effect2_dropShadow_366_879"/>
<feColorMatrix in="SourceAlpha" type="matrix" values="0 0 0 0 0 0 0 0 0 0 0 0 0 0 0 0 0 0 127 0" result="hardAlpha"/>
<feOffset dy="-7"/>
<feGaussianBlur stdDeviation="20.5"/>
<feComposite in2="hardAlpha" operator="out"/>
<feColorMatrix type="matrix" values="0 0 0 0 0.1375 0 0 0 0 0.74125 0 0 0 0 1 0 0 0 0.3 0"/>
<feBlend mode="normal" in2="effect2_dropShadow_366_879" result="effect3_dropShadow_366_879"/>
<feBlend mode="normal" in="SourceGraphic" in2="effect3_dropShadow_366_879" result="shape"/>
</filter>
<filter id="filter5_bdd_366_879" x="15.8198" y="60.9503" width="136.531" height="123.743" filterUnits="userSpaceOnUse" color-interpolation-filters="sRGB">
<feFlood flood-opacity="0" result="BackgroundImageFix"/>
<feGaussianBlur in="BackgroundImageFix" stdDeviation="7"/>
<feComposite in2="SourceAlpha" operator="in" result="effect1_backgroundBlur_366_879"/>
<feColorMatrix in="SourceAlpha" type="matrix" values="0 0 0 0 0 0 0 0 0 0 0 0 0 0 0 0 0 0 127 0" result="hardAlpha"/>
<feOffset dx="-21" dy="15"/>
<feGaussianBlur stdDeviation="25"/>
<feComposite in2="hardAlpha" operator="out"/>
<feColorMatrix type="matrix" values="0 0 0 0 0.113438 0 0 0 0 0.148981 0 0 0 0 0.275 0 0 0 0.25 0"/>
<feBlend mode="normal" in2="effect1_backgroundBlur_366_879" result="effect2_dropShadow_366_879"/>
<feColorMatrix in="SourceAlpha" type="matrix" values="0 0 0 0 0 0 0 0 0 0 0 0 0 0 0 0 0 0 127 0" result="hardAlpha"/>
<feOffset dy="-7"/>
<feGaussianBlur stdDeviation="20.5"/>
<feComposite in2="hardAlpha" operator="out"/>
<feColorMatrix type="matrix" values="0 0 0 0 0.1375 0 0 0 0 0.74125 0 0 0 0 1 0 0 0 0.3 0"/>
<feBlend mode="normal" in2="effect2_dropShadow_366_879" result="effect3_dropShadow_366_879"/>
<feBlend mode="normal" in="SourceGraphic" in2="effect3_dropShadow_366_879" result="shape"/>
</filter>
<linearGradient id="paint0_linear_366_879" x1="98.4472" y1="36.8425" x2="98.4472" y2="73.4704" gradientUnits="userSpaceOnUse">
<stop stop-color="white"/>
<stop offset="1" stop-color="white" stop-opacity="0"/>
</linearGradient>
<linearGradient id="paint1_linear_366_879" x1="96.1216" y1="35.8251" x2="96.1216" y2="69.6486" gradientUnits="userSpaceOnUse">
<stop stop-color="white"/>
<stop offset="1" stop-color="white" stop-opacity="0"/>
</linearGradient>
<linearGradient id="paint2_linear_366_879" x1="117.343" y1="31.0286" x2="117.343" y2="99.3425" gradientUnits="userSpaceOnUse">
<stop stop-color="white"/>
<stop offset="1" stop-color="white" stop-opacity="0"/>
</linearGradient>
<linearGradient id="paint3_linear_366_879" x1="117.343" y1="45.9995" x2="117.343" y2="92.8018" gradientUnits="userSpaceOnUse">
<stop stop-color="white"/>
<stop offset="1" stop-color="white" stop-opacity="0"/>
</linearGradient>
<linearGradient id="paint4_linear_366_879" x1="149.174" y1="74.7786" x2="141.906" y2="106.319" gradientUnits="userSpaceOnUse">
<stop stop-color="#FF4D00"/>
<stop offset="1" stop-color="#FFB800"/>
</linearGradient>
<linearGradient id="paint5_linear_366_879" x1="139.435" y1="105.883" x2="152.662" y2="77.5402" gradientUnits="userSpaceOnUse">
<stop stop-color="white"/>
<stop offset="1" stop-color="white" stop-opacity="0"/>
</linearGradient>
<linearGradient id="paint6_linear_366_879" x1="148.447" y1="47.017" x2="148.447" y2="83.6449" gradientUnits="userSpaceOnUse">
<stop stop-color="white"/>
<stop offset="1" stop-color="white" stop-opacity="0"/>
</linearGradient>
<linearGradient id="paint7_linear_366_879" x1="146.122" y1="45.9995" x2="146.122" y2="79.823" gradientUnits="userSpaceOnUse">
<stop stop-color="white"/>
<stop offset="1" stop-color="white" stop-opacity="0"/>
</linearGradient>
<linearGradient id="paint8_linear_366_879" x1="87.3732" y1="92.3904" x2="83.1447" y2="106.291" gradientUnits="userSpaceOnUse">
<stop stop-color="#138EFF"/>
<stop offset="1" stop-color="#00E0FF"/>
</linearGradient>
<linearGradient id="paint9_linear_366_879" x1="87.3732" y1="92.3904" x2="83.1447" y2="106.291" gradientUnits="userSpaceOnUse">
<stop stop-color="white"/>
<stop offset="1" stop-color="white" stop-opacity="0"/>
</linearGradient>
<linearGradient id="paint10_linear_366_879" x1="104.09" y1="92.3904" x2="99.862" y2="106.291" gradientUnits="userSpaceOnUse">
<stop stop-color="#138EFF"/>
<stop offset="1" stop-color="#00E0FF"/>
</linearGradient>
<linearGradient id="paint11_linear_366_879" x1="104.09" y1="92.3904" x2="99.862" y2="106.291" gradientUnits="userSpaceOnUse">
<stop stop-color="white"/>
<stop offset="1" stop-color="white" stop-opacity="0"/>
</linearGradient>
<linearGradient id="paint12_linear_366_879" x1="120.808" y1="92.3904" x2="116.579" y2="106.291" gradientUnits="userSpaceOnUse">
<stop stop-color="#138EFF"/>
<stop offset="1" stop-color="#00E0FF"/>
</linearGradient>
<linearGradient id="paint13_linear_366_879" x1="120.808" y1="92.3904" x2="116.579" y2="106.291" gradientUnits="userSpaceOnUse">
<stop stop-color="white"/>
<stop offset="1" stop-color="white" stop-opacity="0"/>
</linearGradient>
<linearGradient id="paint14_linear_366_879" x1="93.7687" y1="105.623" x2="89.5402" y2="119.524" gradientUnits="userSpaceOnUse">
<stop stop-color="#138EFF"/>
<stop offset="1" stop-color="#00E0FF"/>
</linearGradient>
<linearGradient id="paint15_linear_366_879" x1="93.7687" y1="105.623" x2="89.5402" y2="119.524" gradientUnits="userSpaceOnUse">
<stop stop-color="white"/>
<stop offset="1" stop-color="white" stop-opacity="0"/>
</linearGradient>
<linearGradient id="paint16_linear_366_879" x1="110.629" y1="105.623" x2="106.401" y2="119.524" gradientUnits="userSpaceOnUse">
<stop stop-color="#138EFF"/>
<stop offset="1" stop-color="#00E0FF"/>
</linearGradient>
<linearGradient id="paint17_linear_366_879" x1="110.629" y1="105.623" x2="106.401" y2="119.524" gradientUnits="userSpaceOnUse">
<stop stop-color="white"/>
<stop offset="1" stop-color="white" stop-opacity="0"/>
</linearGradient>
</defs>
</svg>
