<svg width="201" height="191" viewBox="0 0 201 191" fill="none" xmlns="http://www.w3.org/2000/svg">
<g filter="url(#filter0_bdd_366_888)">
<path d="M97.7879 98.5574L112.049 72.4587C112.4 71.8169 113.073 71.4177 113.804 71.4177H126.254C127.757 71.4177 128.723 73.0141 128.025 74.3457L120.238 89.2134C119.54 90.5451 120.506 92.1414 122.009 92.1414H128.869C130.598 92.1414 131.512 94.1866 130.359 95.475L104.075 124.852C102.6 126.5 99.9367 124.89 100.711 122.818L107.662 104.216C108.15 102.909 107.184 101.516 105.788 101.516H99.5429C98.0241 101.516 97.0596 99.8901 97.7879 98.5574Z" fill="url(#paint0_linear_366_888)"/>
<path d="M98.0072 98.6772L112.269 72.5786C112.576 72.017 113.165 71.6677 113.804 71.6677H126.254C127.569 71.6677 128.414 73.0645 127.804 74.2297L120.016 89.0974C119.231 90.5955 120.318 92.3914 122.009 92.3914H128.869C130.381 92.3914 131.182 94.181 130.173 95.3083L103.888 124.685C102.598 126.127 100.268 124.718 100.945 122.906L107.896 104.304C108.446 102.833 107.358 101.266 105.788 101.266H99.5429C98.214 101.266 97.37 99.8434 98.0072 98.6772Z" stroke="url(#paint1_linear_366_888)" stroke-width="0.5" stroke-linecap="round"/>
</g>
<g filter="url(#filter1_bd_366_888)">
<mask id="path-3-inside-1_366_888" fill="white">
<path fill-rule="evenodd" clip-rule="evenodd" d="M135.48 88.1931C135.535 88.1937 135.59 88.194 135.645 88.194C143.457 88.194 149.789 81.8612 149.789 74.0493C149.789 66.2374 143.457 59.9046 135.645 59.9046C135.59 59.9046 135.535 59.9049 135.48 59.9055V59.9046H131.826C131.958 58.9366 132.026 57.9483 132.026 56.944C132.026 44.9537 122.306 35.2335 110.316 35.2335C98.3254 35.2335 88.6053 44.9537 88.6053 56.944C88.6053 58.0754 88.6918 59.1866 88.8586 60.2713C87.8261 60.0314 86.7502 59.9046 85.6447 59.9046C77.8328 59.9046 71.5 66.2374 71.5 74.0493C71.5 81.8612 77.8328 88.194 85.6447 88.194C85.6999 88.194 85.755 88.1937 85.81 88.1931L85.8092 88.194H135.48V88.1931Z"/>
</mask>
<path fill-rule="evenodd" clip-rule="evenodd" d="M135.48 88.1931C135.535 88.1937 135.59 88.194 135.645 88.194C143.457 88.194 149.789 81.8612 149.789 74.0493C149.789 66.2374 143.457 59.9046 135.645 59.9046C135.59 59.9046 135.535 59.9049 135.48 59.9055V59.9046H131.826C131.958 58.9366 132.026 57.9483 132.026 56.944C132.026 44.9537 122.306 35.2335 110.316 35.2335C98.3254 35.2335 88.6053 44.9537 88.6053 56.944C88.6053 58.0754 88.6918 59.1866 88.8586 60.2713C87.8261 60.0314 86.7502 59.9046 85.6447 59.9046C77.8328 59.9046 71.5 66.2374 71.5 74.0493C71.5 81.8612 77.8328 88.194 85.6447 88.194C85.6999 88.194 85.755 88.1937 85.81 88.1931L85.8092 88.194H135.48V88.1931Z" fill="url(#paint2_linear_366_888)" shape-rendering="crispEdges"/>
<path d="M135.48 88.1931L135.486 87.6931C135.352 87.6916 135.224 87.7436 135.129 87.8375C135.034 87.9315 134.98 88.0595 134.98 88.1931H135.48ZM135.48 59.9055H134.98C134.98 60.0391 135.034 60.1671 135.129 60.2611C135.224 60.355 135.352 60.407 135.486 60.4055L135.48 59.9055ZM135.48 59.9046H135.98C135.98 59.6284 135.756 59.4046 135.48 59.4046V59.9046ZM131.826 59.9046L131.331 59.837C131.311 59.9801 131.355 60.1246 131.449 60.2334C131.544 60.3422 131.682 60.4046 131.826 60.4046V59.9046ZM88.8586 60.2713L88.7455 60.7583C88.9071 60.7959 89.0769 60.7508 89.1986 60.638C89.3202 60.5251 89.378 60.3593 89.3528 60.1953L88.8586 60.2713ZM85.81 88.1931L86.2026 88.5026C86.3218 88.3514 86.3436 88.1451 86.2586 87.9723C86.1735 87.7995 85.9968 87.6909 85.8042 87.6931L85.81 88.1931ZM85.8092 88.194L85.4165 87.8845C85.298 88.0349 85.2757 88.2399 85.3593 88.4123C85.4429 88.5846 85.6177 88.694 85.8092 88.694V88.194ZM135.48 88.194V88.694C135.756 88.694 135.98 88.4702 135.98 88.194H135.48ZM135.475 88.6931C135.531 88.6937 135.588 88.694 135.645 88.694V87.694C135.592 87.694 135.539 87.6937 135.486 87.6931L135.475 88.6931ZM135.645 88.694C143.733 88.694 150.289 82.1374 150.289 74.0493H149.289C149.289 81.5851 143.181 87.694 135.645 87.694V88.694ZM150.289 74.0493C150.289 65.9612 143.733 59.4046 135.645 59.4046V60.4046C143.181 60.4046 149.289 66.5135 149.289 74.0493H150.289ZM135.645 59.4046C135.588 59.4046 135.531 59.4049 135.475 59.4055L135.486 60.4055C135.539 60.4049 135.592 60.4046 135.645 60.4046V59.4046ZM134.98 59.9046V59.9055H135.98V59.9046H134.98ZM131.826 60.4046H135.48V59.4046H131.826V60.4046ZM132.322 59.9721C132.457 58.9818 132.526 57.9709 132.526 56.944H131.526C131.526 57.9256 131.46 58.8913 131.331 59.837L132.322 59.9721ZM132.526 56.944C132.526 44.6775 122.582 34.7335 110.316 34.7335V35.7335C122.03 35.7335 131.526 45.2298 131.526 56.944H132.526ZM110.316 34.7335C98.0493 34.7335 88.1053 44.6775 88.1053 56.944H89.1053C89.1053 45.2298 98.6015 35.7335 110.316 35.7335V34.7335ZM88.1053 56.944C88.1053 58.101 88.1938 59.2375 88.3644 60.3473L89.3528 60.1953C89.1898 59.1357 89.1053 58.0499 89.1053 56.944H88.1053ZM88.9718 59.7843C87.9024 59.5358 86.7886 59.4046 85.6447 59.4046V60.4046C86.7119 60.4046 87.7498 60.527 88.7455 60.7583L88.9718 59.7843ZM85.6447 59.4046C77.5567 59.4046 71 65.9612 71 74.0493H72C72 66.5135 78.109 60.4046 85.6447 60.4046V59.4046ZM71 74.0493C71 82.1374 77.5567 88.694 85.6447 88.694V87.694C78.109 87.694 72 81.5851 72 74.0493H71ZM85.6447 88.694C85.7018 88.694 85.7588 88.6937 85.8157 88.6931L85.8042 87.6931C85.7511 87.6937 85.698 87.694 85.6447 87.694V88.694ZM86.2019 88.5036L86.2026 88.5026L85.4173 87.8836L85.4165 87.8845L86.2019 88.5036ZM135.48 87.694H85.8092V88.694H135.48V87.694ZM134.98 88.1931V88.194H135.98V88.1931H134.98Z" fill="url(#paint3_linear_366_888)" mask="url(#path-3-inside-1_366_888)"/>
</g>
<g filter="url(#filter2_bd_366_888)">
<mask id="path-5-inside-2_366_888" fill="white">
<path fill-rule="evenodd" clip-rule="evenodd" d="M161.159 73.5068C161.198 73.5073 161.238 73.5075 161.277 73.5075C166.923 73.5075 171.5 68.9309 171.5 63.2853C171.5 57.6397 166.923 53.063 161.277 53.063C161.238 53.063 161.198 53.0632 161.159 53.0637V53.063H158.518C158.613 52.3635 158.663 51.6492 158.663 50.9235C158.663 42.2582 151.638 35.2335 142.973 35.2335C134.307 35.2335 127.283 42.2582 127.283 50.9235C127.283 51.7411 127.345 52.5441 127.466 53.328C126.72 53.1547 125.942 53.063 125.143 53.063C119.497 53.063 114.921 57.6397 114.921 63.2853C114.921 68.9309 119.497 73.5075 125.143 73.5075C125.183 73.5075 125.223 73.5073 125.262 73.5068L125.262 73.5075H161.159V73.5068Z"/>
</mask>
<path fill-rule="evenodd" clip-rule="evenodd" d="M161.159 73.5068C161.198 73.5073 161.238 73.5075 161.277 73.5075C166.923 73.5075 171.5 68.9309 171.5 63.2853C171.5 57.6397 166.923 53.063 161.277 53.063C161.238 53.063 161.198 53.0632 161.159 53.0637V53.063H158.518C158.613 52.3635 158.663 51.6492 158.663 50.9235C158.663 42.2582 151.638 35.2335 142.973 35.2335C134.307 35.2335 127.283 42.2582 127.283 50.9235C127.283 51.7411 127.345 52.5441 127.466 53.328C126.72 53.1547 125.942 53.063 125.143 53.063C119.497 53.063 114.921 57.6397 114.921 63.2853C114.921 68.9309 119.497 73.5075 125.143 73.5075C125.183 73.5075 125.223 73.5073 125.262 73.5068L125.262 73.5075H161.159V73.5068Z" fill="url(#paint4_linear_366_888)" shape-rendering="crispEdges"/>
<path d="M161.159 73.5068L161.164 73.0069C161.031 73.0053 160.902 73.0573 160.807 73.1513C160.712 73.2452 160.659 73.3732 160.659 73.5068H161.159ZM161.159 53.0637H160.659C160.659 53.1973 160.712 53.3253 160.807 53.4193C160.902 53.5132 161.031 53.5652 161.164 53.5637L161.159 53.0637ZM161.159 53.063H161.659C161.659 52.7869 161.435 52.563 161.159 52.563V53.063ZM158.518 53.063L158.022 52.9955C158.003 53.1385 158.046 53.283 158.141 53.3918C158.236 53.5006 158.373 53.563 158.518 53.563V53.063ZM127.466 53.328L127.353 53.8151C127.514 53.8526 127.684 53.8075 127.806 53.6947C127.927 53.5819 127.985 53.416 127.96 53.252L127.466 53.328ZM125.262 73.5068L125.655 73.8166C125.774 73.6653 125.796 73.459 125.711 73.2862C125.626 73.1133 125.449 73.0047 125.257 73.0069L125.262 73.5068ZM125.262 73.5075L124.869 73.1978C124.751 73.3482 124.728 73.5532 124.812 73.7256C124.896 73.898 125.07 74.0075 125.262 74.0075V73.5075ZM161.159 73.5075V74.0075C161.435 74.0075 161.659 73.7836 161.659 73.5075H161.159ZM161.153 74.0068C161.194 74.0073 161.236 74.0075 161.277 74.0075V73.0075C161.24 73.0075 161.202 73.0073 161.164 73.0069L161.153 74.0068ZM161.277 74.0075C167.199 74.0075 172 69.207 172 63.2853H171C171 68.6547 166.647 73.0075 161.277 73.0075V74.0075ZM172 63.2853C172 57.3635 167.199 52.563 161.277 52.563V53.563C166.647 53.563 171 57.9158 171 63.2853H172ZM161.277 52.563C161.236 52.563 161.194 52.5633 161.153 52.5637L161.164 53.5637C161.202 53.5632 161.24 53.563 161.277 53.563V52.563ZM160.659 53.063V53.0637H161.659V53.063H160.659ZM158.518 53.563H161.159V52.563H158.518V53.563ZM159.013 53.1306C159.112 52.4087 159.163 51.6719 159.163 50.9235H158.163C158.163 51.6266 158.115 52.3182 158.022 52.9955L159.013 53.1306ZM159.163 50.9235C159.163 41.982 151.914 34.7335 142.973 34.7335V35.7335C151.362 35.7335 158.163 42.5343 158.163 50.9235H159.163ZM142.973 34.7335C134.031 34.7335 126.783 41.982 126.783 50.9235H127.783C127.783 42.5343 134.583 35.7335 142.973 35.7335V34.7335ZM126.783 50.9235C126.783 51.7666 126.847 52.5951 126.972 53.404L127.96 53.252C127.843 52.4932 127.783 51.7156 127.783 50.9235H126.783ZM127.579 52.841C126.796 52.6591 125.98 52.563 125.143 52.563V53.563C125.904 53.563 126.643 53.6503 127.353 53.8151L127.579 52.841ZM125.143 52.563C119.221 52.563 114.421 57.3635 114.421 63.2853H115.421C115.421 57.9158 119.774 53.563 125.143 53.563V52.563ZM114.421 63.2853C114.421 69.207 119.221 74.0075 125.143 74.0075V73.0075C119.774 73.0075 115.421 68.6547 115.421 63.2853H114.421ZM125.143 74.0075C125.185 74.0075 125.227 74.0073 125.268 74.0068L125.257 73.0069C125.219 73.0073 125.181 73.0075 125.143 73.0075V74.0075ZM125.654 73.8172L125.655 73.8166L124.87 73.1971L124.869 73.1978L125.654 73.8172ZM161.159 73.0075H125.262V74.0075H161.159V73.0075ZM160.659 73.5068V73.5075H161.659V73.5068H160.659Z" fill="url(#paint5_linear_366_888)" mask="url(#path-5-inside-2_366_888)"/>
</g>
<defs>
<filter id="filter0_bdd_366_888" x="26.54" y="10.4177" width="165.333" height="180.114" filterUnits="userSpaceOnUse" color-interpolation-filters="sRGB">
<feFlood flood-opacity="0" result="BackgroundImageFix"/>
<feGaussianBlur in="BackgroundImageFix" stdDeviation="7"/>
<feComposite in2="SourceAlpha" operator="in" result="effect1_backgroundBlur_366_888"/>
<feColorMatrix in="SourceAlpha" type="matrix" values="0 0 0 0 0 0 0 0 0 0 0 0 0 0 0 0 0 0 127 0" result="hardAlpha"/>
<feOffset dx="-21" dy="15"/>
<feGaussianBlur stdDeviation="25"/>
<feComposite in2="hardAlpha" operator="out"/>
<feColorMatrix type="matrix" values="0 0 0 0 0.113438 0 0 0 0 0.148981 0 0 0 0 0.275 0 0 0 0.25 0"/>
<feBlend mode="normal" in2="effect1_backgroundBlur_366_888" result="effect2_dropShadow_366_888"/>
<feColorMatrix in="SourceAlpha" type="matrix" values="0 0 0 0 0 0 0 0 0 0 0 0 0 0 0 0 0 0 127 0" result="hardAlpha"/>
<feOffset/>
<feGaussianBlur stdDeviation="30.5"/>
<feComposite in2="hardAlpha" operator="out"/>
<feColorMatrix type="matrix" values="0 0 0 0 1 0 0 0 0 0.721569 0 0 0 0 0.00392157 0 0 0 0.49 0"/>
<feBlend mode="normal" in2="effect2_dropShadow_366_888" result="effect3_dropShadow_366_888"/>
<feBlend mode="normal" in="SourceGraphic" in2="effect3_dropShadow_366_888" result="shape"/>
</filter>
<filter id="filter1_bd_366_888" x="0.5" y="0.233521" width="178.29" height="152.961" filterUnits="userSpaceOnUse" color-interpolation-filters="sRGB">
<feFlood flood-opacity="0" result="BackgroundImageFix"/>
<feGaussianBlur in="BackgroundImageFix" stdDeviation="7"/>
<feComposite in2="SourceAlpha" operator="in" result="effect1_backgroundBlur_366_888"/>
<feColorMatrix in="SourceAlpha" type="matrix" values="0 0 0 0 0 0 0 0 0 0 0 0 0 0 0 0 0 0 127 0" result="hardAlpha"/>
<feOffset dx="-21" dy="15"/>
<feGaussianBlur stdDeviation="25"/>
<feComposite in2="hardAlpha" operator="out"/>
<feColorMatrix type="matrix" values="0 0 0 0 0.113725 0 0 0 0 0.14902 0 0 0 0 0.27451 0 0 0 0.25 0"/>
<feBlend mode="normal" in2="effect1_backgroundBlur_366_888" result="effect2_dropShadow_366_888"/>
<feBlend mode="normal" in="SourceGraphic" in2="effect2_dropShadow_366_888" result="shape"/>
</filter>
<filter id="filter2_bd_366_888" x="43.9209" y="0.233521" width="156.579" height="138.274" filterUnits="userSpaceOnUse" color-interpolation-filters="sRGB">
<feFlood flood-opacity="0" result="BackgroundImageFix"/>
<feGaussianBlur in="BackgroundImageFix" stdDeviation="7"/>
<feComposite in2="SourceAlpha" operator="in" result="effect1_backgroundBlur_366_888"/>
<feColorMatrix in="SourceAlpha" type="matrix" values="0 0 0 0 0 0 0 0 0 0 0 0 0 0 0 0 0 0 127 0" result="hardAlpha"/>
<feOffset dx="-21" dy="15"/>
<feGaussianBlur stdDeviation="25"/>
<feComposite in2="hardAlpha" operator="out"/>
<feColorMatrix type="matrix" values="0 0 0 0 0.113438 0 0 0 0 0.148981 0 0 0 0 0.275 0 0 0 0.25 0"/>
<feBlend mode="normal" in2="effect1_backgroundBlur_366_888" result="effect2_dropShadow_366_888"/>
<feBlend mode="normal" in="SourceGraphic" in2="effect2_dropShadow_366_888" result="shape"/>
</filter>
<linearGradient id="paint0_linear_366_888" x1="118.375" y1="75.0361" x2="110.151" y2="110.727" gradientUnits="userSpaceOnUse">
<stop stop-color="#FF4D00"/>
<stop offset="1" stop-color="#FFB800"/>
</linearGradient>
<linearGradient id="paint1_linear_366_888" x1="107.355" y1="110.234" x2="122.322" y2="78.1611" gradientUnits="userSpaceOnUse">
<stop stop-color="white"/>
<stop offset="1" stop-color="white" stop-opacity="0"/>
</linearGradient>
<linearGradient id="paint2_linear_366_888" x1="110.645" y1="18.2927" x2="110.645" y2="95.5954" gradientUnits="userSpaceOnUse">
<stop stop-color="white"/>
<stop offset="1" stop-color="white" stop-opacity="0"/>
</linearGradient>
<linearGradient id="paint3_linear_366_888" x1="110.645" y1="35.2335" x2="110.645" y2="88.194" gradientUnits="userSpaceOnUse">
<stop stop-color="white"/>
<stop offset="1" stop-color="white" stop-opacity="0"/>
</linearGradient>
<linearGradient id="paint4_linear_366_888" x1="145.842" y1="36.3848" x2="145.842" y2="77.8322" gradientUnits="userSpaceOnUse">
<stop stop-color="white"/>
<stop offset="1" stop-color="white" stop-opacity="0"/>
</linearGradient>
<linearGradient id="paint5_linear_366_888" x1="143.21" y1="35.2335" x2="143.21" y2="73.5075" gradientUnits="userSpaceOnUse">
<stop stop-color="white"/>
<stop offset="1" stop-color="white" stop-opacity="0"/>
</linearGradient>
</defs>
</svg>
