<svg width="100" height="102" viewBox="0 0 100 102" fill="none" xmlns="http://www.w3.org/2000/svg">
<g filter="url(#filter0_b_471_919)">
<mask id="path-1-inside-1_471_919" fill="white">
<path d="M39.1349 77.3326L47.9922 61.2619C48.344 60.6237 49.015 60.2273 49.7438 60.2273H56.6376C58.144 60.2273 59.1097 61.8296 58.406 63.1616L54.2056 71.1122C53.5019 72.4441 54.4676 74.0465 55.974 74.0465H58.0016C59.7344 74.0465 60.6473 76.0999 59.4864 77.3864L45.1406 93.2832C43.6602 94.9237 41.005 93.3056 41.7843 91.2379L44.8879 83.0033C45.3809 81.6953 44.4143 80.298 43.0164 80.298H40.8864C39.3645 80.298 38.4002 78.6655 39.1349 77.3326Z"/>
</mask>
<path d="M39.1349 77.3326L47.9922 61.2619C48.344 60.6237 49.015 60.2273 49.7438 60.2273H56.6376C58.144 60.2273 59.1097 61.8296 58.406 63.1616L54.2056 71.1122C53.5019 72.4441 54.4676 74.0465 55.974 74.0465H58.0016C59.7344 74.0465 60.6473 76.0999 59.4864 77.3864L45.1406 93.2832C43.6602 94.9237 41.005 93.3056 41.7843 91.2379L44.8879 83.0033C45.3809 81.6953 44.4143 80.298 43.0164 80.298H40.8864C39.3645 80.298 38.4002 78.6655 39.1349 77.3326Z" fill="url(#paint0_linear_471_919)"/>
<path d="M39.1349 77.3326L47.9922 61.2619C48.344 60.6237 49.015 60.2273 49.7438 60.2273H56.6376C58.144 60.2273 59.1097 61.8296 58.406 63.1616L54.2056 71.1122C53.5019 72.4441 54.4676 74.0465 55.974 74.0465H58.0016C59.7344 74.0465 60.6473 76.0999 59.4864 77.3864L45.1406 93.2832C43.6602 94.9237 41.005 93.3056 41.7843 91.2379L44.8879 83.0033C45.3809 81.6953 44.4143 80.298 43.0164 80.298H40.8864C39.3645 80.298 38.4002 78.6655 39.1349 77.3326Z" stroke="url(#paint1_linear_471_919)" stroke-linecap="round" mask="url(#path-1-inside-1_471_919)"/>
</g>
<g filter="url(#filter1_b_471_919)">
<mask id="path-2-inside-2_471_919" fill="white">
<path d="M61.8614 77.3326L70.7188 61.2619C71.0705 60.6237 71.7416 60.2273 72.4704 60.2273H79.3642C80.8706 60.2273 81.8363 61.8296 81.1326 63.1616L76.9321 71.1122C76.2285 72.4441 77.1941 74.0465 78.7005 74.0465H80.7282C82.461 74.0465 83.3739 76.0999 82.213 77.3864L67.8672 93.2832C66.3867 94.9237 63.7316 93.3056 64.5109 91.2379L67.6145 83.0033C68.1075 81.6953 67.1408 80.298 65.743 80.298H63.613C62.091 80.298 61.1268 78.6655 61.8614 77.3326Z"/>
</mask>
<path d="M61.8614 77.3326L70.7188 61.2619C71.0705 60.6237 71.7416 60.2273 72.4704 60.2273H79.3642C80.8706 60.2273 81.8363 61.8296 81.1326 63.1616L76.9321 71.1122C76.2285 72.4441 77.1941 74.0465 78.7005 74.0465H80.7282C82.461 74.0465 83.3739 76.0999 82.213 77.3864L67.8672 93.2832C66.3867 94.9237 63.7316 93.3056 64.5109 91.2379L67.6145 83.0033C68.1075 81.6953 67.1408 80.298 65.743 80.298H63.613C62.091 80.298 61.1268 78.6655 61.8614 77.3326Z" fill="url(#paint2_linear_471_919)"/>
<path d="M61.8614 77.3326L70.7188 61.2619C71.0705 60.6237 71.7416 60.2273 72.4704 60.2273H79.3642C80.8706 60.2273 81.8363 61.8296 81.1326 63.1616L76.9321 71.1122C76.2285 72.4441 77.1941 74.0465 78.7005 74.0465H80.7282C82.461 74.0465 83.3739 76.0999 82.213 77.3864L67.8672 93.2832C66.3867 94.9237 63.7316 93.3056 64.5109 91.2379L67.6145 83.0033C68.1075 81.6953 67.1408 80.298 65.743 80.298H63.613C62.091 80.298 61.1268 78.6655 61.8614 77.3326Z" stroke="url(#paint3_linear_471_919)" stroke-linecap="round" mask="url(#path-2-inside-2_471_919)"/>
</g>
<g filter="url(#filter2_b_471_919)">
<mask id="path-3-inside-3_471_919" fill="white">
<path d="M16.4073 77.3326L25.2647 61.2619C25.6164 60.6237 26.2875 60.2273 27.0162 60.2273H33.9101C35.4165 60.2273 36.3822 61.8296 35.6785 63.1616L31.478 71.1122C30.7744 72.4441 31.74 74.0465 33.2464 74.0465H35.2741C37.0069 74.0465 37.9198 76.0999 36.7589 77.3864L22.4131 93.2832C20.9326 94.9237 18.2775 93.3056 19.0568 91.2379L22.1604 83.0033C22.6534 81.6953 21.6867 80.298 20.2889 80.298H18.1589C16.6369 80.298 15.6727 78.6655 16.4073 77.3326Z"/>
</mask>
<path d="M16.4073 77.3326L25.2647 61.2619C25.6164 60.6237 26.2875 60.2273 27.0162 60.2273H33.9101C35.4165 60.2273 36.3822 61.8296 35.6785 63.1616L31.478 71.1122C30.7744 72.4441 31.74 74.0465 33.2464 74.0465H35.2741C37.0069 74.0465 37.9198 76.0999 36.7589 77.3864L22.4131 93.2832C20.9326 94.9237 18.2775 93.3056 19.0568 91.2379L22.1604 83.0033C22.6534 81.6953 21.6867 80.298 20.2889 80.298H18.1589C16.6369 80.298 15.6727 78.6655 16.4073 77.3326Z" fill="url(#paint4_linear_471_919)"/>
<path d="M16.4073 77.3326L25.2647 61.2619C25.6164 60.6237 26.2875 60.2273 27.0162 60.2273H33.9101C35.4165 60.2273 36.3822 61.8296 35.6785 63.1616L31.478 71.1122C30.7744 72.4441 31.74 74.0465 33.2464 74.0465H35.2741C37.0069 74.0465 37.9198 76.0999 36.7589 77.3864L22.4131 93.2832C20.9326 94.9237 18.2775 93.3056 19.0568 91.2379L22.1604 83.0033C22.6534 81.6953 21.6867 80.298 20.2889 80.298H18.1589C16.6369 80.298 15.6727 78.6655 16.4073 77.3326Z" stroke="url(#paint5_linear_471_919)" stroke-linecap="round" mask="url(#path-3-inside-3_471_919)"/>
</g>
<g filter="url(#filter3_b_471_919)">
<path d="M93.1595 26.2863C89.5453 22.7217 84.7177 20.2331 79.1142 19.042C78.5889 18.9302 78.0973 18.6987 77.6786 18.3657C77.2599 18.0328 76.9256 17.6077 76.7026 17.1244C74.642 12.675 71.5222 8.785 67.6099 5.78707C62.6034 2.00086 56.5151 0.000150711 50 0.000150711C42.5761 -0.023148 35.4033 2.65563 29.8491 7.5257C24.6336 12.1194 21.0323 18.4646 19.4116 25.8133C19.2765 26.4353 18.9685 27.0078 18.5223 27.4662C18.076 27.9247 17.5093 28.251 16.8858 28.4085C11.4978 29.7508 9.18965 31.0803 6.28017 33.6414C2.15517 37.2721 0 42.2174 0 47.8978C0 54.407 2.42026 59.7529 6.99784 63.358C11.0086 66.5135 16.4871 68.1818 22.8448 68.1818H73.2759C80.431 68.1818 87.0927 65.7401 92.0259 61.304C97.1638 56.6911 100 50.2948 100 43.2955C100 36.586 97.6293 30.7053 93.1595 26.2863Z" fill="#CAD7DF"/>
</g>
<defs>
<filter id="filter0_b_471_919" x="24.8838" y="46.2273" width="49.1216" height="61.7295" filterUnits="userSpaceOnUse" color-interpolation-filters="sRGB">
<feFlood flood-opacity="0" result="BackgroundImageFix"/>
<feGaussianBlur in="BackgroundImageFix" stdDeviation="7"/>
<feComposite in2="SourceAlpha" operator="in" result="effect1_backgroundBlur_471_919"/>
<feBlend mode="normal" in="SourceGraphic" in2="effect1_backgroundBlur_471_919" result="shape"/>
</filter>
<filter id="filter1_b_471_919" x="47.6104" y="46.2273" width="49.1216" height="61.7295" filterUnits="userSpaceOnUse" color-interpolation-filters="sRGB">
<feFlood flood-opacity="0" result="BackgroundImageFix"/>
<feGaussianBlur in="BackgroundImageFix" stdDeviation="7"/>
<feComposite in2="SourceAlpha" operator="in" result="effect1_backgroundBlur_471_919"/>
<feBlend mode="normal" in="SourceGraphic" in2="effect1_backgroundBlur_471_919" result="shape"/>
</filter>
<filter id="filter2_b_471_919" x="2.15625" y="46.2273" width="49.1216" height="61.7295" filterUnits="userSpaceOnUse" color-interpolation-filters="sRGB">
<feFlood flood-opacity="0" result="BackgroundImageFix"/>
<feGaussianBlur in="BackgroundImageFix" stdDeviation="7"/>
<feComposite in2="SourceAlpha" operator="in" result="effect1_backgroundBlur_471_919"/>
<feBlend mode="normal" in="SourceGraphic" in2="effect1_backgroundBlur_471_919" result="shape"/>
</filter>
<filter id="filter3_b_471_919" x="-15" y="-15" width="130" height="98.1819" filterUnits="userSpaceOnUse" color-interpolation-filters="sRGB">
<feFlood flood-opacity="0" result="BackgroundImageFix"/>
<feGaussianBlur in="BackgroundImageFix" stdDeviation="7.5"/>
<feComposite in2="SourceAlpha" operator="in" result="effect1_backgroundBlur_471_919"/>
<feBlend mode="normal" in="SourceGraphic" in2="effect1_backgroundBlur_471_919" result="shape"/>
</filter>
<linearGradient id="paint0_linear_471_919" x1="52.4341" y1="62.6402" x2="46.9924" y2="86.4602" gradientUnits="userSpaceOnUse">
<stop stop-color="#FF4D00"/>
<stop offset="1" stop-color="#FFB800"/>
</linearGradient>
<linearGradient id="paint1_linear_471_919" x1="45.0226" y1="86.1108" x2="54.9481" y2="64.6588" gradientUnits="userSpaceOnUse">
<stop stop-color="white"/>
<stop offset="1" stop-color="white" stop-opacity="0"/>
</linearGradient>
<linearGradient id="paint2_linear_471_919" x1="75.1607" y1="62.6402" x2="69.719" y2="86.4602" gradientUnits="userSpaceOnUse">
<stop stop-color="#FF4D00"/>
<stop offset="1" stop-color="#FFB800"/>
</linearGradient>
<linearGradient id="paint3_linear_471_919" x1="67.7492" y1="86.1108" x2="77.6747" y2="64.6588" gradientUnits="userSpaceOnUse">
<stop stop-color="white"/>
<stop offset="1" stop-color="white" stop-opacity="0"/>
</linearGradient>
<linearGradient id="paint4_linear_471_919" x1="29.7066" y1="62.6402" x2="24.2649" y2="86.4602" gradientUnits="userSpaceOnUse">
<stop stop-color="#FF4D00"/>
<stop offset="1" stop-color="#FFB800"/>
</linearGradient>
<linearGradient id="paint5_linear_471_919" x1="22.2951" y1="86.1108" x2="32.2206" y2="64.6588" gradientUnits="userSpaceOnUse">
<stop stop-color="white"/>
<stop offset="1" stop-color="white" stop-opacity="0"/>
</linearGradient>
</defs>
</svg>
