<svg width="10" height="15" viewBox="0 0 10 15" fill="none" xmlns="http://www.w3.org/2000/svg">
<path d="M10 9.62859C9.99997 10.6522 9.62069 11.6379 8.93845 12.3873C9.75663 11.4686 9.42948 9.96921 8.32512 9.49046C7.79802 9.29984 6.80373 8.95921 6.26623 8.76671C6.02394 8.6691 5.82244 8.48834 5.69631 8.25546C5.46334 7.64609 4.98515 6.40047 4.74972 5.78797C4.69163 5.60984 4.56016 5.39734 4.58768 5.20172C4.61581 4.82797 5.0304 4.57484 5.36794 4.73047L7.61946 5.91047C7.9992 6.09297 8.41746 6.34297 8.7177 6.64296C9.12202 7.02277 9.44476 7.48426 9.66549 7.99819C9.88623 8.51213 10.0001 9.06731 10 9.62859ZM9.11945 10.8086C8.95802 10.0623 8.42541 9.71858 7.76438 9.54109C6.83063 10.1048 4.79681 11.3398 3.51329 12.1223C2.83881 12.5473 2.21081 12.9661 1.72834 12.8986C1.32563 12.8922 0.937361 12.7442 0.628868 12.4796C0.320374 12.2149 0.110481 11.8497 0.0345028 11.4455C0.0271649 11.4155 0.0296109 11.4267 0.0338914 11.4517C0.104039 12.0415 0.301857 12.6079 0.612975 13.1098C0.971153 13.688 1.46648 14.1644 2.05296 14.4946C2.63944 14.8248 3.29805 14.9981 3.96762 14.9986C5.13435 15.0373 6.12986 14.278 7.08563 13.6886C7.26418 13.5711 7.57727 13.3786 7.90013 13.1692L8.77029 12.2255C9.10844 11.8648 9.23747 11.3342 9.11945 10.8086ZM1.75708 12.6648C2.01513 12.6648 2.25972 12.6023 2.47436 12.4836C2.69144 12.3492 3.06384 12.1217 3.5139 11.8473L3.51451 2.8136C3.51451 2.19485 3.2106 1.6486 2.74586 1.32485C2.69694 1.28797 0.966418 0.136726 0.917498 0.102352C0.547545 -0.167648 -0.0138051 0.130477 0.000259238 0.600476V9.90483L0.255252 11.3798C0.317445 11.7404 0.502106 12.0669 0.776716 12.302C1.05133 12.537 1.39889 12.6655 1.75708 12.6648Z" fill="white"/>
</svg>
