<svg width="10" height="15" viewBox="0 0 10 15" fill="none" xmlns="http://www.w3.org/2000/svg">
<path d="M5.01642 4.73023C4.73996 4.76236 4.52911 4.98689 4.5095 5.27006C4.50105 5.39203 4.50369 5.40028 4.78027 6.11197C5.40943 7.73106 5.56187 8.12073 5.58749 8.17558C5.64962 8.3084 5.73694 8.43332 5.84608 8.54548C5.9298 8.63153 5.98503 8.67781 6.0784 8.74021C6.24258 8.84985 6.32401 8.88012 6.96279 9.06927C7.58497 9.25352 7.92492 9.37596 8.21782 9.52134C8.5973 9.70971 8.8621 9.92393 9.02958 10.1781C9.14973 10.3605 9.25616 10.6876 9.30243 11.0169C9.32057 11.1456 9.32065 11.4301 9.30267 11.5464C9.2636 11.799 9.18558 12.0106 9.0662 12.1877C9.00272 12.2819 9.02481 12.2661 9.11709 12.1513C9.37832 11.8265 9.6444 11.2715 9.78017 10.7681C9.94451 10.1589 9.96687 9.50475 9.84451 8.88563C9.60626 7.67993 8.84509 6.63939 7.77311 6.05394C7.70575 6.01712 7.4492 5.88263 7.10139 5.70182C7.04803 5.67407 6.99471 5.64624 6.94143 5.61834C6.90628 5.59985 6.8343 5.56226 6.78151 5.53485C6.72873 5.50741 6.57679 5.42827 6.44389 5.35893L6.11336 5.18661C6.00552 5.1304 5.89772 5.07411 5.78996 5.01774C5.44528 4.83732 5.2994 4.76438 5.25781 4.75174C5.2142 4.73845 5.10339 4.72143 5.0756 4.72372C5.06971 4.72418 5.04313 4.72713 5.01642 4.73023Z" fill="url(#paint0_radial_473_370)"/>
<path d="M5.76753 10.7746C5.74842 10.786 5.72164 10.8023 5.70795 10.811C5.69423 10.8197 5.66389 10.8386 5.6404 10.853C5.46971 10.9579 5.29912 11.0631 5.12863 11.1683C5.02427 11.2327 4.92001 11.2973 4.81585 11.362C4.76981 11.3907 4.72361 11.4191 4.67725 11.4472C4.65966 11.4577 4.58451 11.504 4.51021 11.5501C4.41435 11.6095 4.3184 11.6687 4.22235 11.7278C4.11089 11.7964 3.99953 11.865 3.88825 11.9339C3.79121 11.9939 3.69408 12.0538 3.59687 12.1136C3.53625 12.1508 3.48028 12.1866 3.47245 12.1933C3.46082 12.2033 2.92189 12.5371 2.65147 12.7019C2.44605 12.827 2.20846 12.9107 1.96526 12.9436C1.85204 12.9589 1.63775 12.9589 1.52484 12.9437C1.21865 12.9023 0.936648 12.7881 0.695068 12.6078C0.600342 12.537 0.421937 12.3588 0.353762 12.2667C0.193031 12.0497 0.0890809 11.817 0.0352455 11.5537C0.0228429 11.4931 0.0111378 11.4419 0.00919992 11.44C0.00416133 11.4349 0.0132695 11.5264 0.0296643 11.6461C0.046718 11.7706 0.0830346 11.9506 0.12218 12.1046C0.425038 13.2961 1.28687 14.2653 2.45349 14.7264C2.78945 14.8591 3.12847 14.9428 3.49733 14.9838C3.63593 14.9993 4.02828 15.0055 4.17289 14.9945C4.83632 14.9443 5.41393 14.749 6.00647 14.3745C6.05926 14.3412 6.1584 14.2786 6.22681 14.2356C6.29092 14.1952 6.3549 14.1546 6.41874 14.1139C6.45587 14.09 6.50068 14.0619 6.51824 14.0513C6.54452 14.0353 6.57059 14.0189 6.59645 14.0022C6.62188 13.9857 6.73059 13.9169 6.83811 13.8493L7.26802 13.5778L7.41565 13.4845L7.42096 13.4812L7.43724 13.4709L7.44495 13.466L7.55363 13.3974L7.92919 13.1601C8.40778 12.8594 8.55049 12.7538 8.77281 12.5361C8.86552 12.4453 9.00524 12.2903 9.01218 12.2706C9.01361 12.2666 9.03846 12.2283 9.06737 12.1855C9.18504 12.0114 9.26349 11.7981 9.3024 11.5466C9.32043 11.4302 9.32031 11.1457 9.30221 11.017C9.26721 10.7682 9.18768 10.486 9.10194 10.3062C8.96137 10.0116 8.66192 9.74378 8.2317 9.52813C8.11291 9.46856 7.99024 9.41407 7.97656 9.4148C7.97005 9.41515 7.56971 9.65983 7.0869 9.95858C6.60409 10.2574 6.18507 10.5167 6.15573 10.5349C6.11855 10.5579 6.08124 10.5807 6.0438 10.6033L5.76753 10.7746Z" fill="url(#paint1_radial_473_370)"/>
<path d="M0.00205419 9.34127L0.00414714 11.4222L0.0310842 11.543C0.115267 11.9208 0.261192 12.1932 0.514866 12.4462C0.634164 12.5651 0.725401 12.6369 0.854699 12.7134C1.12833 12.8753 1.42278 12.9552 1.74529 12.9551C2.08311 12.9549 2.37534 12.8706 2.67646 12.6866C2.72727 12.6555 2.92641 12.5329 3.11892 12.4141L3.46899 12.1982V7.26037L3.46891 5.00181C3.46883 3.56089 3.4662 2.70514 3.46162 2.63802C3.43294 2.21613 3.25648 1.82828 2.95978 1.53491C2.86874 1.44488 2.79095 1.38473 2.55917 1.22524C2.40277 1.11758 2.24639 1.00989 2.09004 0.902146C1.7631 0.676791 1.43613 0.451463 1.10915 0.226162C0.885163 0.0717098 0.867644 0.0610125 0.799933 0.0367885C0.711874 0.00527802 0.618544 -0.00631072 0.529827 0.00326258C0.271231 0.0311686 0.0642226 0.217906 0.010426 0.471735C0.00205419 0.511268 0.000503858 1.03683 0.000387583 3.88941L0.000271308 7.26041H0L0.00205419 9.34127Z" fill="url(#paint2_linear_473_370)"/>
<defs>
<radialGradient id="paint0_radial_473_370" cx="0" cy="0" r="1" gradientUnits="userSpaceOnUse" gradientTransform="translate(110.916 -556.519) rotate(-140.294) scale(659.683 910.464)">
<stop stop-color="#00CACC"/>
<stop offset="1" stop-color="#048FCE"/>
</radialGradient>
<radialGradient id="paint1_radial_473_370" cx="0" cy="0" r="1" gradientUnits="userSpaceOnUse" gradientTransform="translate(167.863 324.522) rotate(-35.5312) scale(946.817 742.178)">
<stop stop-color="#00BBEC"/>
<stop offset="1" stop-color="#2756A9"/>
</radialGradient>
<linearGradient id="paint2_linear_473_370" x1="173.449" y1="0" x2="173.449" y2="1295.51" gradientUnits="userSpaceOnUse">
<stop stop-color="#00BBEC"/>
<stop offset="1" stop-color="#2756A9"/>
</linearGradient>
</defs>
</svg>
