<svg width="25" height="24" viewBox="0 0 25 24" fill="none" xmlns="http://www.w3.org/2000/svg">
<path d="M7.1499 16C6.95212 16 6.75878 16.0586 6.59433 16.1685C6.42988 16.2784 6.30171 16.4346 6.22602 16.6173C6.15033 16.8 6.13053 17.0011 6.16911 17.1951C6.2077 17.3891 6.30294 17.5673 6.44279 17.7071C6.58265 17.847 6.76083 17.9422 6.95481 17.9808C7.14879 18.0194 7.34986 17.9996 7.53258 17.9239C7.71531 17.8482 7.87149 17.72 7.98137 17.5556C8.09125 17.3911 8.1499 17.1978 8.1499 17C8.1499 16.7348 8.04454 16.4804 7.85701 16.2929C7.66947 16.1054 7.41512 16 7.1499 16ZM19.2099 12L20.4399 10.77C21.0017 10.2075 21.3173 9.445 21.3173 8.65C21.3173 7.855 21.0017 7.0925 20.4399 6.53L17.6099 3.71C17.0474 3.1482 16.2849 2.83264 15.4899 2.83264C14.6949 2.83264 13.9324 3.1482 13.3699 3.71L12.1499 4.94C12.1342 4.15479 11.8112 3.40706 11.2503 2.85736C10.6894 2.30766 9.93526 1.99984 9.1499 2H5.1499C4.35425 2 3.59119 2.31607 3.02858 2.87868C2.46597 3.44129 2.1499 4.20435 2.1499 5V19C2.1499 19.7956 2.46597 20.5587 3.02858 21.1213C3.59119 21.6839 4.35425 22 5.1499 22H19.1499C19.9455 22 20.7086 21.6839 21.2712 21.1213C21.8338 20.5587 22.1499 19.7956 22.1499 19V15C22.1501 14.2146 21.8422 13.4605 21.2925 12.8996C20.7428 12.3387 19.9951 12.0157 19.2099 12ZM10.1499 19C10.1499 19.2652 10.0445 19.5196 9.85701 19.7071C9.66947 19.8946 9.41512 20 9.1499 20H5.1499C4.88468 20 4.63033 19.8946 4.44279 19.7071C4.25526 19.5196 4.1499 19.2652 4.1499 19V5C4.1499 4.73478 4.25526 4.48043 4.44279 4.29289C4.63033 4.10536 4.88468 4 5.1499 4H9.1499C9.41512 4 9.66947 4.10536 9.85701 4.29289C10.0445 4.48043 10.1499 4.73478 10.1499 5V19ZM12.1499 7.76L14.7899 5.12C14.9773 4.93375 15.2307 4.82921 15.4949 4.82921C15.7591 4.82921 16.0125 4.93375 16.1999 5.12L19.0299 8C19.2161 8.18736 19.3207 8.44081 19.3207 8.705C19.3207 8.96919 19.2161 9.22264 19.0299 9.41L16.1499 12.29L12.1499 16.24V7.76ZM20.1499 19C20.1499 19.2652 20.0445 19.5196 19.857 19.7071C19.6695 19.8946 19.4151 20 19.1499 20H11.9699C12.0725 19.7036 12.1298 19.3935 12.1399 19.08L17.2199 14H19.1499C19.4151 14 19.6695 14.1054 19.857 14.2929C20.0445 14.4804 20.1499 14.7348 20.1499 15V19Z" fill="white"/>
</svg>
