<svg width="25" height="24" viewBox="0 0 25 24" fill="none" xmlns="http://www.w3.org/2000/svg">
<g clip-path="url(#clip0_355_525)">
<path d="M18.7003 10H17.4403C17.0662 8.551 16.2931 7.23599 15.209 6.2044C14.1248 5.1728 12.773 4.46599 11.3072 4.16428C9.84143 3.86256 8.3204 3.97804 6.91696 4.49759C5.51352 5.01714 4.28395 5.91993 3.36796 7.10338C2.45197 8.28683 1.8863 9.70348 1.73521 11.1924C1.58413 12.6812 1.8537 14.1826 2.51328 15.526C3.17287 16.8693 4.19602 18.0007 5.46649 18.7916C6.73695 19.5824 8.20378 20.0011 9.70031 20H18.7003C20.0264 20 21.2982 19.4732 22.2358 18.5355C23.1735 17.5979 23.7003 16.3261 23.7003 15C23.7003 13.6739 23.1735 12.4021 22.2358 11.4645C21.2982 10.5268 20.0264 10 18.7003 10Z" fill="white" stroke="white" stroke-width="2" stroke-linecap="round" stroke-linejoin="round"/>
</g>
<defs>
<clipPath id="clip0_355_525">
<rect width="24" height="24" fill="white" transform="translate(0.700195)"/>
</clipPath>
</defs>
</svg>
