<svg width="25" height="24" viewBox="0 0 25 24" fill="none" xmlns="http://www.w3.org/2000/svg">
<g clip-path="url(#clip0_355_528)">
<path d="M19.2499 16.9001C20.4651 16.6533 21.5452 15.9639 22.2806 14.9655C23.016 13.9672 23.3543 12.7312 23.2296 11.4976C23.105 10.2639 22.5265 9.12052 21.6063 8.28943C20.6861 7.45834 19.4899 6.99881 18.2499 7.00006H16.9899C16.6586 5.71737 16.014 4.53705 15.1138 3.56504C14.2137 2.59304 13.0863 1.85979 11.8328 1.43112C10.5792 1.00245 9.23891 0.891787 7.93207 1.10906C6.62523 1.32634 5.3928 1.86475 4.34544 2.67596C3.29808 3.48718 2.46856 4.54579 1.93137 5.75677C1.39418 6.96774 1.16612 8.29317 1.26769 9.61405C1.36925 10.9349 1.79725 12.2099 2.51326 13.3245C3.22926 14.4391 4.21087 15.3585 5.36993 16.0001" stroke="white" stroke-width="2" stroke-linecap="round" stroke-linejoin="round"/>
<path d="M13.25 11L9.25 17H15.25L11.25 23" stroke="white" stroke-width="2" stroke-linecap="round" stroke-linejoin="round"/>
</g>
<defs>
<clipPath id="clip0_355_528">
<rect width="24" height="24" fill="white" transform="translate(0.25)"/>
</clipPath>
</defs>
</svg>
