<svg width="25" height="24" viewBox="0 0 25 24" fill="none" xmlns="http://www.w3.org/2000/svg">
<g clip-path="url(#clip0_355_523)">
<path d="M20.5498 17.58C21.6011 17.1195 22.4619 16.3115 22.9879 15.2915C23.5139 14.2715 23.673 13.1016 23.4384 11.9781C23.2039 10.8547 22.59 9.84617 21.6999 9.12179C20.8097 8.39742 19.6975 8.00131 18.5498 7.99996H17.2898C16.9729 6.77248 16.3687 5.63791 15.5271 4.68976C14.6856 3.74161 13.6308 3.00703 12.4496 2.54658C11.2684 2.08612 9.99475 1.91297 8.73352 2.0414C7.4723 2.16983 6.25965 2.59615 5.19553 3.28524C4.13142 3.97433 3.2463 4.90644 2.61314 6.00475C1.97998 7.10307 1.61691 8.33613 1.55385 9.60231C1.49079 10.8685 1.72955 12.1315 2.25044 13.2873C2.77134 14.4431 3.55946 15.4585 4.54984 16.25" stroke="white" stroke-width="2" stroke-linecap="round" stroke-linejoin="round"/>
<path d="M8.5498 16H8.5598" stroke="white" stroke-width="2" stroke-linecap="round" stroke-linejoin="round"/>
<path d="M8.5498 20H8.5598" stroke="white" stroke-width="2" stroke-linecap="round" stroke-linejoin="round"/>
<path d="M12.5498 18H12.5598" stroke="white" stroke-width="2" stroke-linecap="round" stroke-linejoin="round"/>
<path d="M12.5498 22H12.5598" stroke="white" stroke-width="2" stroke-linecap="round" stroke-linejoin="round"/>
<path d="M16.5498 16H16.5598" stroke="white" stroke-width="2" stroke-linecap="round" stroke-linejoin="round"/>
<path d="M16.5498 20H16.5598" stroke="white" stroke-width="2" stroke-linecap="round" stroke-linejoin="round"/>
</g>
<defs>
<clipPath id="clip0_355_523">
<rect width="24" height="24" fill="white" transform="translate(0.549805)"/>
</clipPath>
</defs>
</svg>
