<svg width="25" height="24" viewBox="0 0 25 24" fill="none" xmlns="http://www.w3.org/2000/svg">
<g clip-path="url(#clip0_355_529)">
<path d="M16.3999 13V21" stroke="white" stroke-width="2" stroke-linecap="round" stroke-linejoin="round"/>
<path d="M8.3999 13V21" stroke="white" stroke-width="2" stroke-linecap="round" stroke-linejoin="round"/>
<path d="M12.3999 15V23" stroke="white" stroke-width="2" stroke-linecap="round" stroke-linejoin="round"/>
<path d="M20.3999 16.58C21.4512 16.1195 22.312 15.3115 22.838 14.2915C23.364 13.2715 23.5231 12.1016 23.2885 10.9781C23.054 9.85472 22.4401 8.84617 21.55 8.12179C20.6598 7.39742 19.5476 7.00131 18.3999 6.99996H17.1399C16.823 5.77248 16.2188 4.63791 15.3772 3.68976C14.5357 2.74161 13.4809 2.00703 12.2997 1.54658C11.1185 1.08612 9.84484 0.912974 8.58362 1.0414C7.32239 1.16983 6.10975 1.59615 5.04563 2.28524C3.98151 2.97433 3.0964 3.90644 2.46324 5.00475C1.83008 6.10307 1.46701 7.33613 1.40395 8.60231C1.34089 9.86849 1.57964 11.1315 2.10054 12.2873C2.62144 13.4431 3.40955 14.4585 4.39994 15.25" stroke="white" stroke-width="2" stroke-linecap="round" stroke-linejoin="round"/>
</g>
<defs>
<clipPath id="clip0_355_529">
<rect width="24" height="24" fill="white" transform="translate(0.399902)"/>
</clipPath>
</defs>
</svg>
