<svg width="25" height="24" viewBox="0 0 25 24" fill="none" xmlns="http://www.w3.org/2000/svg">
<g clip-path="url(#clip0_355_531)">
<path d="M8.1001 19V21" stroke="white" stroke-width="2" stroke-linecap="round" stroke-linejoin="round"/>
<path d="M8.1001 13V15" stroke="white" stroke-width="2" stroke-linecap="round" stroke-linejoin="round"/>
<path d="M16.1001 19V21" stroke="white" stroke-width="2" stroke-linecap="round" stroke-linejoin="round"/>
<path d="M16.1001 13V15" stroke="white" stroke-width="2" stroke-linecap="round" stroke-linejoin="round"/>
<path d="M12.1001 21V23" stroke="white" stroke-width="2" stroke-linecap="round" stroke-linejoin="round"/>
<path d="M12.1001 15V17" stroke="white" stroke-width="2" stroke-linecap="round" stroke-linejoin="round"/>
<path d="M20.1001 16.58C21.1514 16.1195 22.0122 15.3115 22.5382 14.2915C23.0642 13.2715 23.2233 12.1016 22.9887 10.9781C22.7542 9.85472 22.1403 8.84617 21.2502 8.12179C20.36 7.39742 19.2478 7.00131 18.1001 6.99996H16.8401C16.5231 5.77248 15.919 4.63791 15.0774 3.68976C14.2359 2.74161 13.1811 2.00703 11.9999 1.54658C10.8187 1.08612 9.54504 0.912974 8.28381 1.0414C7.02259 1.16983 5.80994 1.59615 4.74583 2.28524C3.68171 2.97433 2.79659 3.90644 2.16344 5.00475C1.53028 6.10307 1.1672 7.33613 1.10414 8.60231C1.04108 9.86849 1.27984 11.1315 1.80074 12.2873C2.32163 13.4431 3.10975 14.4585 4.10013 15.25" stroke="white" stroke-width="2" stroke-linecap="round" stroke-linejoin="round"/>
</g>
<defs>
<clipPath id="clip0_355_531">
<rect width="24" height="24" fill="white" transform="translate(0.100098)"/>
</clipPath>
</defs>
</svg>
