<svg width="15" height="15" viewBox="0 0 15 15" fill="none" xmlns="http://www.w3.org/2000/svg">
<path d="M7.5 0C3.35672 0 0 3.35672 0 7.5C0 11.6433 3.35672 15 7.5 15C11.6433 15 15 11.6433 15 7.5C15 3.35672 11.6433 0 7.5 0ZM7.5 14.3752C3.70359 14.3752 0.624844 11.2964 0.624844 7.5C0.624844 3.70359 3.70359 0.624844 7.5 0.624844C11.2964 0.624844 14.3752 3.70359 14.3752 7.5C14.3752 11.2964 11.2964 14.3752 7.5 14.3752ZM13.8867 7.5C13.8867 10.5028 11.8139 13.02 9.02109 13.7034C8.85281 13.3762 8.68922 13.0664 8.55234 12.8048C8.955 12.9586 9.75844 13.2516 9.93187 13.1883C10.1686 13.0978 10.11 11.2205 9.84656 11.1595C9.63422 11.1131 8.82609 11.6845 8.50641 11.9166L8.52844 12.0141C8.57719 12.2606 8.61891 12.6342 8.54813 12.7927C8.5391 12.8179 8.52299 12.8401 8.50172 12.8564C8.32594 12.9736 7.82766 13.0345 7.56422 12.9736C7.54969 12.9713 7.5375 12.9661 7.5225 12.9614C7.09031 13.208 6.26766 13.6547 6.11625 13.5694C5.91094 13.4498 5.88187 11.8945 5.91094 11.5139C5.93297 11.2256 6.94359 11.692 7.43672 11.9386C7.54641 11.8359 7.81266 11.7675 8.04938 11.7431C7.69313 10.8764 7.43156 9.88266 7.59047 9.17719C7.59047 9.17953 7.59281 9.17953 7.59281 9.17953C7.815 9.33328 9.29953 9.83625 10.0369 9.82172C10.7742 9.80719 11.9827 9.35766 11.8509 8.99391C11.7192 8.6325 10.5155 9.31359 9.26297 9.19641C8.33297 9.11109 8.16937 8.69344 8.37422 8.39062C8.63297 8.00719 9.10406 8.46141 9.88078 8.22937C10.6594 7.99734 11.7483 7.5825 12.1514 7.35797C13.0866 6.83531 11.7609 6.62062 11.4483 6.76453C11.153 6.90375 10.1227 7.1625 9.64406 7.27734C9.91031 6.33 9.26578 4.68469 8.54531 3.96422C8.31094 3.72984 7.94953 3.58313 7.54172 3.50531C7.38563 3.29063 7.13391 3.08531 6.77766 2.895C6.08738 2.53319 5.29846 2.40475 4.52906 2.52891L4.51453 2.53125L4.49484 2.53359L4.49719 2.53594C4.40437 2.55281 4.34812 2.58469 4.27266 2.59687C4.36547 2.60672 4.71469 2.77031 4.93406 2.85797C4.82438 2.89969 4.67531 2.92641 4.56047 2.97281C4.51695 2.97929 4.47432 2.99078 4.43344 3.00703C4.32609 3.05812 4.24313 3.24141 4.24547 3.32953C4.77047 3.27563 5.54672 3.315 6.11578 3.48328C5.71312 3.53953 5.34422 3.64453 5.07797 3.78609C5.06712 3.79128 5.05649 3.79691 5.04609 3.80297C5.01423 3.81472 4.98322 3.82866 4.95328 3.84469C4.09875 4.29375 3.72047 5.34609 3.945 6.60844C4.1475 7.74844 4.98516 11.6644 5.37563 13.5248C2.89266 12.6483 1.11281 10.2825 1.11281 7.49953C1.11281 3.97172 3.97172 1.11281 7.49953 1.11281C11.0273 1.11281 13.8863 3.97172 13.8863 7.49953L13.8867 7.5ZM5.68359 5.98875C5.56168 5.99418 5.44655 6.04643 5.36219 6.13462C5.27784 6.22281 5.23076 6.34015 5.23076 6.46219C5.23076 6.58423 5.27784 6.70156 5.36219 6.78975C5.44655 6.87795 5.56168 6.9302 5.68359 6.93562C6.31594 6.93562 6.31594 5.98828 5.68359 5.98828V5.98875ZM5.89594 6.42563C5.8799 6.42575 5.86399 6.42268 5.84915 6.4166C5.83431 6.41052 5.82082 6.40155 5.80948 6.39021C5.79814 6.37886 5.78917 6.36538 5.78309 6.35054C5.777 6.33569 5.77394 6.31979 5.77406 6.30375C5.77406 6.27143 5.7869 6.24043 5.80976 6.21757C5.83262 6.19472 5.86361 6.18187 5.89594 6.18187C6.05953 6.18187 6.05953 6.42563 5.89594 6.42563ZM8.84766 5.77406C8.79309 5.77221 8.73872 5.78136 8.68776 5.80096C8.63681 5.82056 8.59032 5.85021 8.55107 5.88816C8.51181 5.9261 8.4806 5.97156 8.45928 6.02181C8.43796 6.07207 8.42697 6.12611 8.42697 6.1807C8.42697 6.2353 8.43796 6.28933 8.45928 6.33959C8.4806 6.38985 8.51181 6.43531 8.55107 6.47325C8.59032 6.51119 8.63681 6.54085 8.68776 6.56045C8.73872 6.58005 8.79309 6.5892 8.84766 6.58734C9.38953 6.58734 9.38953 5.77453 8.84766 5.77453V5.77406ZM9.02813 6.15C9.00035 6.14976 8.97379 6.13861 8.95415 6.11898C8.93451 6.09934 8.92337 6.07277 8.92312 6.045C8.92312 5.98875 8.97188 5.94 9.02813 5.94C9.16969 5.94 9.16969 6.15 9.02813 6.15ZM5.82047 5.09016C5.82047 5.09016 5.46422 4.92891 5.11734 5.14641C4.77047 5.36625 4.78266 5.58844 4.78266 5.58844C4.78266 5.58844 4.59938 5.17828 5.09016 4.97578C5.58094 4.77562 5.82 5.09062 5.82 5.09062L5.82047 5.09016ZM9.09422 5.05875C9.09422 5.05875 8.83781 4.91203 8.63766 4.91484C8.2275 4.91953 8.11781 5.10047 8.11781 5.10047C8.11781 5.10047 8.18625 4.67063 8.70844 4.75641C8.87953 4.78828 9.02344 4.90031 9.09422 5.05922V5.05875Z" fill="#FEF1F1"/>
</svg>
