<svg width="15" height="15" viewBox="0 0 15 15" fill="none" xmlns="http://www.w3.org/2000/svg">
<path d="M7.50016 1.10632C11.0314 1.10632 13.8939 3.96891 13.8939 7.5001C13.8939 11.0312 11.0314 13.8938 7.50016 13.8938C3.96903 13.8938 1.10645 11.0312 1.10645 7.5001C1.10645 3.96891 3.96903 1.10632 7.50016 1.10632Z" fill="#DE5833"/>
<path d="M7.5 15C11.6421 15 15 11.6421 15 7.5C15 3.35787 11.6421 0 7.5 0C3.35787 0 0 3.35787 0 7.5C0 11.6421 3.35787 15 7.5 15ZM7.5 14.375C3.70304 14.375 0.625 11.297 0.625 7.5C0.625 3.70304 3.70304 0.625 7.5 0.625C11.297 0.625 14.375 3.70304 14.375 7.5C14.375 11.297 11.297 14.375 7.5 14.375Z" fill="#DE5833"/>
<path d="M4.38524 3.18327C4.38401 3.07575 4.4621 3.01555 4.56586 2.97335C4.51836 2.98112 4.47287 2.99301 4.43191 3.01137C4.32374 3.06039 4.24288 3.24601 4.24365 3.33387C4.76878 3.28079 5.54532 3.31751 6.11317 3.487C6.15508 3.48112 6.19698 3.47523 6.23953 3.47035C5.67314 3.21888 4.99977 3.12177 4.38524 3.18327ZM4.49288 2.53709C4.50471 2.53497 4.51672 2.5335 4.5286 2.53149C4.41532 2.54556 4.35558 2.58605 4.27054 2.6C4.36288 2.60818 4.71275 2.77149 4.93262 2.8613C4.96346 2.84959 4.99123 2.83658 5.01389 2.82122C4.8999 2.80439 4.61665 2.54838 4.49288 2.53709ZM5.0389 3.80862C5.00742 3.82075 4.97752 3.8334 4.95163 3.847C4.09564 4.29797 3.71752 5.35135 3.94286 6.61359C4.14854 7.76225 4.99159 11.6869 5.37759 13.5328C5.49029 13.5724 5.60435 13.6092 5.71981 13.6425C5.37606 11.9806 4.4378 7.6256 4.21887 6.40249C3.99694 5.1582 4.21287 4.26537 5.0389 3.80862Z" fill="#D5D7D8"/>
<path d="M8.50335 12.8636C8.48922 12.873 8.47239 12.8818 8.45444 12.8904C8.44114 12.942 8.42084 12.981 8.39123 13.0007C8.21444 13.118 7.71509 13.1771 7.45144 13.118C7.40606 13.1079 7.37169 13.0913 7.34486 13.0684C6.89471 13.3183 6.24734 13.6511 6.11587 13.5761C5.91048 13.4583 5.8807 11.9017 5.91048 11.5197C5.93219 11.2313 6.94514 11.6984 7.4379 11.9434C7.54684 11.8417 7.81373 11.7736 8.04995 11.7505C7.69302 10.8818 7.42978 9.88811 7.59115 9.18349C7.36811 9.02806 7.0725 8.6676 7.13405 8.29136C7.18149 8.00499 7.92148 7.46321 8.44544 7.43048C8.97056 7.39735 9.13423 7.40483 9.57173 7.30007L9.64288 7.283C9.91218 6.33626 9.26629 4.68919 8.54584 3.96844C8.31096 3.73357 7.94985 3.58573 7.54295 3.5077C7.38647 3.29295 7.13405 3.08762 6.77671 2.89747C6.11316 2.54518 5.29313 2.40176 4.52918 2.53147C4.51729 2.53347 4.50529 2.53494 4.49346 2.53706C4.61722 2.54836 4.90047 2.80437 5.01447 2.8212C4.99181 2.83656 4.96403 2.84956 4.93319 2.86127C4.8262 2.902 4.68078 2.92672 4.56643 2.97333C4.46268 3.01552 4.38458 3.07573 4.38582 3.18325C5.00034 3.12175 5.67372 3.21885 6.2401 3.47033C6.19755 3.47521 6.15565 3.4811 6.11375 3.48698C5.71209 3.54348 5.34292 3.64753 5.0762 3.78824C5.06367 3.79477 5.05178 3.80183 5.03948 3.8086C4.21344 4.26535 3.99752 5.15818 4.21945 6.40247C4.43837 7.62558 5.38276 12.048 5.72651 13.71C6.29166 13.8735 6.82008 14.0042 7.4379 14.0042C7.96238 14.0042 8.59321 13.888 9.08103 13.7688C8.90971 13.4385 8.68931 13.0732 8.55349 12.8113C8.53536 12.8329 8.52106 12.8517 8.50335 12.8636ZM8.84898 6.59232C8.62511 6.59232 8.44249 6.41024 8.44249 6.18507C8.44249 5.96097 8.62511 5.77882 8.84898 5.77882C9.07408 5.77882 9.25599 5.96097 9.25599 6.18507C9.25606 6.23855 9.24557 6.29152 9.22514 6.34094C9.20471 6.39036 9.17474 6.43527 9.13693 6.4731C9.09913 6.51092 9.05424 6.54093 9.00483 6.56138C8.95542 6.58184 8.90246 6.59236 8.84898 6.59232ZM9.09386 5.06172C9.09386 5.06172 8.83744 4.91524 8.63847 4.91771C8.22957 4.92307 8.11822 5.10374 8.11822 5.10374C8.11822 5.10374 8.18684 4.67307 8.70974 4.75946C8.99322 4.8066 9.09386 5.06172 9.09386 5.06172ZM4.78271 5.59121C4.78271 5.59121 4.59857 5.18084 5.08933 4.97974C5.58062 4.77859 5.81985 5.09421 5.81985 5.09421C5.81985 5.09421 5.46309 4.93284 5.11622 5.15082C4.76994 5.36857 4.78271 5.59121 4.78271 5.59121ZM5.21174 6.46585C5.21169 6.40366 5.22391 6.34206 5.24769 6.2846C5.27148 6.22713 5.30636 6.17491 5.35035 6.13094C5.39434 6.08697 5.44656 6.05211 5.50404 6.02834C5.56152 6.00458 5.62312 5.99238 5.68531 5.99245C5.74747 5.99245 5.80902 6.0047 5.86644 6.02849C5.92386 6.05229 5.97603 6.08716 6.01997 6.13112C6.06391 6.17509 6.09876 6.22728 6.12253 6.28471C6.14629 6.34214 6.15851 6.4037 6.15848 6.46585C6.15848 6.72756 5.94661 6.93908 5.68531 6.93908C5.62312 6.93918 5.56153 6.92701 5.50405 6.90327C5.44657 6.87952 5.39434 6.84468 5.35034 6.80072C5.30635 6.75676 5.27147 6.70456 5.24768 6.64709C5.2239 6.58963 5.21168 6.52804 5.21174 6.46585Z" fill="white"/>
<path d="M6.15768 6.46571C6.15771 6.40355 6.14549 6.342 6.12173 6.28456C6.09796 6.22713 6.06311 6.17494 6.01917 6.13098C5.97523 6.08702 5.92306 6.05214 5.86564 6.02835C5.80822 6.00456 5.74667 5.99231 5.68451 5.99231C5.62232 5.99224 5.56072 6.00444 5.50324 6.0282C5.44577 6.05196 5.39354 6.08683 5.34955 6.1308C5.30556 6.17477 5.27068 6.22698 5.2469 6.28445C5.22311 6.34192 5.21089 6.40351 5.21094 6.46571C5.21088 6.5279 5.2231 6.58949 5.24688 6.64695C5.27067 6.70441 5.30555 6.75662 5.34955 6.80057C5.39354 6.84453 5.44577 6.87938 5.50325 6.90312C5.56073 6.92686 5.62232 6.93903 5.68451 6.93893C5.94581 6.93893 6.15768 6.72742 6.15768 6.46571ZM5.89414 6.43093C5.8616 6.43082 5.83044 6.41781 5.80748 6.39475C5.78452 6.37169 5.77164 6.34047 5.77167 6.30793C5.77167 6.27538 5.7846 6.24416 5.80762 6.22114C5.83064 6.19813 5.86186 6.18519 5.89441 6.18519C5.92696 6.18519 5.95818 6.19813 5.98119 6.22114C6.00421 6.24416 6.01714 6.27538 6.01714 6.30793C6.01714 6.32408 6.01396 6.34008 6.00778 6.355C6.0016 6.36992 5.99254 6.38348 5.98112 6.3949C5.96969 6.40632 5.95613 6.41538 5.94121 6.42157C5.92629 6.42775 5.91029 6.43093 5.89414 6.43093Z" fill="#2D4F8E"/>
<path d="M5.89493 6.18506C5.8624 6.18512 5.83122 6.1981 5.80825 6.22114C5.78529 6.24419 5.77241 6.27541 5.77246 6.30794C5.77246 6.37585 5.82772 6.43112 5.89493 6.43094C5.92755 6.43094 5.95884 6.41798 5.9819 6.39491C6.00497 6.37185 6.01793 6.34056 6.01793 6.30794C6.01794 6.29179 6.01476 6.2758 6.00858 6.26088C6.0024 6.24596 5.99334 6.2324 5.98191 6.22099C5.97049 6.20958 5.95693 6.20053 5.942 6.19436C5.92707 6.1882 5.91108 6.18504 5.89493 6.18506Z" fill="white"/>
<path d="M8.84838 5.77881C8.62451 5.77881 8.44189 5.96095 8.44189 6.18506C8.44189 6.41022 8.62451 6.59231 8.84838 6.59231C8.90186 6.59234 8.95482 6.58183 9.00423 6.56137C9.05364 6.54091 9.09853 6.51091 9.13634 6.47308C9.17414 6.43526 9.20411 6.39035 9.22454 6.34093C9.24497 6.2915 9.25546 6.23854 9.2554 6.18506C9.2554 5.96095 9.07349 5.77881 8.84838 5.77881ZM9.02888 6.1551C8.9715 6.1551 8.92412 6.10843 8.92412 6.04982C8.92412 5.99197 8.9715 5.94447 9.02888 5.94447C9.08873 5.94447 9.13463 5.99197 9.13463 6.04982C9.13463 6.10843 9.08873 6.1551 9.02888 6.1551Z" fill="#2D4F8E"/>
<path d="M9.02956 5.94434C8.97218 5.94434 8.9248 5.99183 8.9248 6.04968C8.9248 6.1083 8.97218 6.15496 9.02956 6.15496C9.04346 6.15515 9.05726 6.15256 9.07014 6.14734C9.08303 6.14213 9.09474 6.13438 9.10459 6.12458C9.11445 6.11477 9.12224 6.10309 9.12751 6.09023C9.13279 6.07737 9.13544 6.06358 9.13532 6.04968C9.13532 5.99183 9.08941 5.94434 9.02956 5.94434Z" fill="white"/>
<path d="M5.81903 5.09412C5.81903 5.09412 5.5798 4.77851 5.08851 4.97966C4.59775 5.18075 4.78189 5.59112 4.78189 5.59112C4.78189 5.59112 4.76912 5.36849 5.1154 5.15074C5.46227 4.93275 5.81903 5.09412 5.81903 5.09412ZM8.70892 4.75938C8.18602 4.67299 8.1174 5.10366 8.1174 5.10366C8.1174 5.10366 8.22875 4.92299 8.63765 4.91763C8.83662 4.91516 9.09304 5.06164 9.09304 5.06164C9.09304 5.06164 8.9924 4.80652 8.70892 4.75938Z" fill="url(#paint0_linear_473_369)"/>
<path d="M8.44561 7.43039C7.92166 7.46311 7.18167 8.00489 7.13423 8.29126C7.07267 8.6675 7.36828 9.02796 7.59133 9.18339L7.59315 9.18474C7.81614 9.33987 9.3009 9.84076 10.0375 9.82687C10.775 9.81251 11.9862 9.36088 11.8532 8.99901C11.7207 8.63701 10.5179 9.31839 9.26329 9.2021C8.33415 9.11577 8.17013 8.69951 8.37588 8.39549C8.63464 8.01337 9.10598 8.46799 9.88341 8.23535C10.662 8.00336 11.7509 7.58811 12.1549 7.362C13.089 6.84123 11.764 6.62524 11.451 6.76972C11.1544 6.90679 10.1218 7.16738 9.64306 7.2829L9.57191 7.29997C9.13441 7.40473 8.97074 7.39725 8.44561 7.43039Z" fill="#FDD209"/>
<path d="M7.27496 12.178C7.27496 12.1238 7.31857 12.0758 7.38778 12.0349C7.38972 12.002 7.40761 11.9714 7.43762 11.9434C6.94486 11.6984 5.93191 11.2313 5.9102 11.5196C5.88042 11.9016 5.9102 13.4582 6.11559 13.576C6.24706 13.651 6.89443 13.3182 7.34458 13.0683C7.21469 12.9576 7.27496 12.6889 7.27496 12.178ZM8.54667 12.8086L8.55321 12.8112C8.95657 12.9668 9.75954 13.2599 9.93391 13.1959C10.169 13.106 10.1102 11.2271 9.84629 11.1673C9.63489 11.1204 8.82563 11.6906 8.50724 11.9229C8.56356 12.1607 8.63171 12.6317 8.54667 12.8086Z" fill="#65BC46"/>
<path d="M7.56296 12.9808C7.29842 12.9222 7.38681 12.6575 7.38681 12.0409C7.38681 12.0389 7.3874 12.0369 7.38752 12.0349C7.31831 12.0758 7.2747 12.1238 7.2747 12.178C7.2747 12.6889 7.21444 12.9576 7.34432 13.0683C7.37116 13.0912 7.40553 13.1078 7.4509 13.1179C7.71456 13.177 8.21391 13.1179 8.3907 13.0006C8.4203 12.9809 8.4406 12.9419 8.4539 12.8903C8.24698 12.9894 7.80513 13.0359 7.56296 12.9808Z" fill="#43A244"/>
<path d="M7.4373 11.9434C7.40728 11.9715 7.38939 12.0021 7.38745 12.035C7.38733 12.037 7.38674 12.0389 7.38674 12.0409C7.38674 12.6576 7.29835 12.9222 7.56289 12.9808C7.80506 13.0359 8.24691 12.9895 8.45383 12.8904C8.47178 12.8818 8.48861 12.873 8.50274 12.8636C8.52045 12.8517 8.53475 12.8328 8.54635 12.8087C8.63139 12.6318 8.56324 12.1607 8.50692 11.9229C8.4945 11.8706 8.48273 11.8294 8.47325 11.8053C8.44895 11.7451 8.26174 11.7297 8.04935 11.7504C7.81312 11.7736 7.54623 11.8417 7.4373 11.9434Z" fill="#65BC46"/>
<defs>
<linearGradient id="paint0_linear_473_369" x1="313.264" y1="89.0678" x2="4.74805" y2="89.0678" gradientUnits="userSpaceOnUse">
<stop stop-color="#394A9F"/>
<stop offset="1" stop-color="#6176B9"/>
</linearGradient>
</defs>
</svg>
