<svg width="25" height="24" viewBox="0 0 25 24" fill="none" xmlns="http://www.w3.org/2000/svg">
<path fill-rule="evenodd" clip-rule="evenodd" d="M19.7472 1.5C19.3069 1.5 18.8709 1.58673 18.4641 1.75522C18.0573 1.92372 17.6877 2.1707 17.3763 2.48204L3.75954 16.0989C3.69801 16.1604 3.6536 16.2369 3.63071 16.3209L2.11773 21.8684C2.07052 22.0415 2.11968 22.2267 2.24656 22.3536C2.37343 22.4804 2.55856 22.5296 2.73167 22.4824L8.27926 20.9694C8.36321 20.9465 8.43973 20.9021 8.50125 20.8406L22.1181 7.22376C22.4294 6.91242 22.6764 6.54279 22.8449 6.136C23.0134 5.72921 23.1001 5.29321 23.1001 4.8529C23.1001 4.41259 23.0134 3.9766 22.8449 3.5698C22.6764 3.16301 22.4294 2.79339 22.1181 2.48204C21.8067 2.1707 21.4371 1.92372 21.0303 1.75522C20.6235 1.58673 20.1875 1.5 19.7472 1.5ZM18.8468 2.6791C19.1323 2.56086 19.4382 2.5 19.7472 2.5C20.0562 2.5 20.3622 2.56086 20.6476 2.6791C20.9331 2.79735 21.1925 2.97066 21.411 3.18915C21.6294 3.40764 21.8028 3.66702 21.921 3.95249C22.0392 4.23795 22.1001 4.54391 22.1001 4.8529C22.1001 5.16189 22.0392 5.46785 21.921 5.75332C21.8028 6.03878 21.6294 6.29817 21.411 6.51665L8.08204 19.8456L4.75454 16.5181L18.0835 3.18915C18.3019 2.97066 18.5613 2.79735 18.8468 2.6791Z" fill="white"/>
</svg>
