<svg width="15" height="15" viewBox="0 0 15 15" fill="none" xmlns="http://www.w3.org/2000/svg">
<path d="M7.67567 6.1327V9.03107H11.7908C11.4078 10.8729 9.80452 11.9311 7.67567 11.9311C6.48404 11.9151 5.34677 11.4409 4.50989 10.6111C3.67302 9.78126 3.20383 8.66259 3.20383 7.49706C3.20383 6.33153 3.67302 5.21286 4.50989 4.38305C5.34677 3.55324 6.48404 3.07903 7.67567 3.06299C8.70636 3.06178 9.70531 3.41159 10.501 4.05235L12.7337 1.8687C11.8022 1.06727 10.6857 0.498861 9.48014 0.212241C8.27457 -0.0743784 7.01589 -0.0706479 5.81211 0.223113C4.60834 0.516873 3.49541 1.09189 2.56884 1.89883C1.64227 2.70576 0.92972 3.72051 0.492337 4.856C0.0549548 5.99149 -0.0941993 7.21382 0.0576741 8.41808C0.209548 9.62235 0.657913 10.7726 1.3643 11.7701C2.07068 12.7676 3.01399 13.5827 4.11327 14.1452C5.21255 14.7078 6.43498 15.0011 7.67567 15C11.5117 15 15 12.2713 15 7.49664C14.9941 7.03693 14.9365 6.57925 14.8282 6.13186L7.67567 6.1327Z" fill="white"/>
</svg>
