<svg width="15" height="15" viewBox="0 0 15 15" fill="none" xmlns="http://www.w3.org/2000/svg">
<path d="M14.9994 7.67178C14.9994 7.16054 14.9416 6.6493 14.8837 6.13806H7.65137V9.0352H11.7594C11.5858 9.94403 11.0651 10.7961 10.2551 11.3075V13.182H12.743C14.1895 11.8755 14.9995 9.94403 14.9995 7.67187L14.9994 7.67178Z" fill="#4285F4"/>
<path d="M7.65215 14.9999C9.73504 14.9999 11.4708 14.3182 12.7438 13.1821L10.2558 11.3075C9.56149 11.7619 8.69359 12.046 7.65215 12.046C5.68484 12.046 3.94904 10.7395 3.37044 8.92163H0.824707V10.853C2.15545 13.4093 4.75915 14.9999 7.65215 14.9999Z" fill="#34A853"/>
<path d="M3.37029 8.92156C3.0232 8.01264 3.0232 6.99016 3.37029 6.02442V4.09302H0.824559C-0.274853 6.19489 -0.274853 8.69435 0.824559 10.853L3.37029 8.92156Z" fill="#FBBC04"/>
<path d="M7.65247 2.95702C8.75179 2.95702 9.79323 3.3547 10.6033 4.09314L12.802 1.93454C11.4133 0.684761 9.56181 -0.0536863 7.71025 0.00304901C4.81726 0.00304901 2.15577 1.59368 0.882812 4.14997L3.42863 6.08137C3.94936 4.26353 5.68515 2.95702 7.65247 2.95702Z" fill="#EA4335"/>
</svg>
