<svg width="25" height="24" viewBox="0 0 25 24" fill="none" xmlns="http://www.w3.org/2000/svg">
<path d="M8.44971 12C8.44971 12.2652 8.55507 12.5196 8.7426 12.7071C8.93014 12.8946 9.18449 13 9.44971 13H15.4497C15.7149 13 15.9693 12.8946 16.1568 12.7071C16.3443 12.5196 16.4497 12.2652 16.4497 12C16.4497 11.7348 16.3443 11.4804 16.1568 11.2929C15.9693 11.1054 15.7149 11 15.4497 11H9.44971C9.18449 11 8.93014 11.1054 8.7426 11.2929C8.55507 11.4804 8.44971 11.7348 8.44971 12ZM10.4497 15H7.44971C6.65406 15 5.891 14.6839 5.32839 14.1213C4.76578 13.5587 4.44971 12.7956 4.44971 12C4.44971 11.2044 4.76578 10.4413 5.32839 9.87868C5.891 9.31607 6.65406 9 7.44971 9H10.4497C10.7149 9 10.9693 8.89464 11.1568 8.70711C11.3443 8.51957 11.4497 8.26522 11.4497 8C11.4497 7.73478 11.3443 7.48043 11.1568 7.29289C10.9693 7.10536 10.7149 7 10.4497 7H7.44971C6.12363 7 4.85186 7.52678 3.91418 8.46447C2.97649 9.40215 2.44971 10.6739 2.44971 12C2.44971 13.3261 2.97649 14.5979 3.91418 15.5355C4.85186 16.4732 6.12363 17 7.44971 17H10.4497C10.7149 17 10.9693 16.8946 11.1568 16.7071C11.3443 16.5196 11.4497 16.2652 11.4497 16C11.4497 15.7348 11.3443 15.4804 11.1568 15.2929C10.9693 15.1054 10.7149 15 10.4497 15ZM17.4497 7H14.4497C14.1845 7 13.9301 7.10536 13.7426 7.29289C13.5551 7.48043 13.4497 7.73478 13.4497 8C13.4497 8.26522 13.5551 8.51957 13.7426 8.70711C13.9301 8.89464 14.1845 9 14.4497 9H17.4497C18.2453 9 19.0084 9.31607 19.571 9.87868C20.1336 10.4413 20.4497 11.2044 20.4497 12C20.4497 12.7956 20.1336 13.5587 19.571 14.1213C19.0084 14.6839 18.2453 15 17.4497 15H14.4497C14.1845 15 13.9301 15.1054 13.7426 15.2929C13.5551 15.4804 13.4497 15.7348 13.4497 16C13.4497 16.2652 13.5551 16.5196 13.7426 16.7071C13.9301 16.8946 14.1845 17 14.4497 17H17.4497C18.7758 17 20.0476 16.4732 20.9852 15.5355C21.9229 14.5979 22.4497 13.3261 22.4497 12C22.4497 10.6739 21.9229 9.40215 20.9852 8.46447C20.0476 7.52678 18.7758 7 17.4497 7Z" fill="white"/>
</svg>
