<svg width="25" height="24" viewBox="0 0 25 24" fill="none" xmlns="http://www.w3.org/2000/svg">
<path d="M21.2002 10C21.2002 17 12.2002 23 12.2002 23C12.2002 23 3.2002 17 3.2002 10C3.2002 7.61305 4.14841 5.32387 5.83623 3.63604C7.52406 1.94821 9.81325 1 12.2002 1C14.5871 1 16.8763 1.94821 18.5642 3.63604C20.252 5.32387 21.2002 7.61305 21.2002 10Z" stroke="white" stroke-width="2" stroke-linecap="round" stroke-linejoin="round"/>
<path d="M12.2002 13C13.857 13 15.2002 11.6569 15.2002 10C15.2002 8.34315 13.857 7 12.2002 7C10.5433 7 9.2002 8.34315 9.2002 10C9.2002 11.6569 10.5433 13 12.2002 13Z" fill="white" stroke="white" stroke-width="2" stroke-linecap="round" stroke-linejoin="round"/>
</svg>
