<svg width="12" height="12" viewBox="0 0 20 20" fill="none" xmlns="http://www.w3.org/2000/svg">
<path d="M2.90338 0.445695C2.54788 0.443721 2.21507 0.620063 2.01706 0.91531C1.81905 1.21056 1.7822 1.5854 1.91894 1.91355C1.91894 1.91355 2.37338 3.13043 2.37338 4.17019C2.37338 5.52028 2.07008 6.14843 1.67258 7.02929C1.27508 7.91015 0.783378 9.0435 0.783378 10.76C0.783378 12.3937 1.19489 13.4435 1.52662 14.2443C1.75002 14.7837 1.92872 15.2247 2.0266 15.8416C1.83023 15.6575 1.57117 15.555 1.30199 15.5548C0.870841 15.5554 0.482964 15.817 0.32092 16.2165C0.158877 16.6161 0.254952 17.0739 0.563925 17.3746L2.32473 19.1354C2.52573 19.4 2.83918 19.5551 3.17148 19.5543C3.50377 19.5535 3.81646 19.3969 4.01617 19.1313L5.77283 17.3746C6.04975 17.1088 6.16129 16.714 6.06446 16.3425C5.96762 15.971 5.67752 15.6809 5.30606 15.5841C4.93459 15.4873 4.53979 15.5988 4.27393 15.8757L4.17766 15.972C4.05967 14.8618 3.74804 14.0675 3.48514 13.4328C3.15437 12.6342 2.90338 12.0763 2.90338 10.76C2.90338 9.4099 3.20668 8.78175 3.60418 7.90089C4.00168 7.02003 4.49338 5.88668 4.49338 4.17019C4.49338 2.56419 3.88781 1.12683 3.88781 1.12683C3.73152 0.718505 3.34058 0.448015 2.90338 0.445695ZM10.8534 0.445695C10.4979 0.443721 10.1651 0.620063 9.96706 0.91531C9.76905 1.21056 9.7322 1.5854 9.86894 1.91355C9.86894 1.91355 10.3234 3.13043 10.3234 4.17019C10.3234 5.52028 10.0201 6.14843 9.62258 7.02929C9.22508 7.91015 8.73338 9.0435 8.73338 10.76C8.73338 12.3937 9.14489 13.4435 9.47662 14.2443C9.70002 14.7837 9.87872 15.2247 9.9766 15.8416C9.78023 15.6575 9.52117 15.555 9.25199 15.5548C8.82084 15.5554 8.43296 15.817 8.27092 16.2165C8.10888 16.6161 8.20495 17.0739 8.51392 17.3746L10.2747 19.1354C10.4757 19.4 10.7892 19.5551 11.1215 19.5543C11.4538 19.5535 11.7665 19.3969 11.9662 19.1313L13.7228 17.3746C13.9997 17.1088 14.1113 16.714 14.0145 16.3425C13.9176 15.971 13.6275 15.6809 13.2561 15.5841C12.8846 15.4873 12.4898 15.5988 12.2239 15.8757L12.1277 15.972C12.0097 14.8618 11.698 14.0675 11.4351 13.4328C11.1044 12.6342 10.8534 12.0763 10.8534 10.76C10.8534 9.4099 11.1567 8.78175 11.5542 7.90089C11.9517 7.02003 12.4434 5.88668 12.4434 4.17019C12.4434 2.56419 11.8378 1.12683 11.8378 1.12683C11.6815 0.718505 11.2906 0.448015 10.8534 0.445695ZM16.4184 0.460187C16.1317 0.456133 15.865 0.606766 15.7205 0.854406C15.5759 1.10205 15.5759 1.40833 15.7205 1.65597C15.865 1.90361 16.1317 2.05424 16.4184 2.05019H18.0084C18.457 2.05019 18.8034 2.39654 18.8034 2.84519V4.70019H18.0084C17.7217 4.69613 17.455 4.84677 17.3105 5.09441C17.1659 5.34205 17.1659 5.64833 17.3105 5.89597C17.455 6.14361 17.7217 6.29424 18.0084 6.29019H18.8034V9.20519H18.0084C17.7217 9.20113 17.455 9.35177 17.3105 9.59941C17.1659 9.84705 17.1659 10.1533 17.3105 10.401C17.455 10.6486 17.7217 10.7992 18.0084 10.7952H18.8034V13.7102H18.0084C17.7217 13.7061 17.455 13.8568 17.3105 14.1044C17.1659 14.352 17.1659 14.6583 17.3105 14.906C17.455 15.1536 17.7217 15.3042 18.0084 15.3002H18.8034V17.1552C18.8034 17.6038 18.457 17.9502 18.0084 17.9502H16.4184C16.1317 17.9461 15.865 18.0968 15.7205 18.3444C15.5759 18.592 15.5759 18.8983 15.7205 19.146C15.865 19.3936 16.1317 19.5442 16.4184 19.5402H18.0084C19.3162 19.5402 20.3934 18.463 20.3934 17.1552V14.6356C20.4074 14.5503 20.4074 14.4632 20.3934 14.3779V10.1306C20.4074 10.0453 20.4074 9.95821 20.3934 9.87286V5.62562C20.4074 5.54027 20.4074 5.45321 20.3934 5.36786V2.84519C20.3934 1.53741 19.3162 0.460187 18.0084 0.460187H16.4184Z" fill="white"/>
</svg>
