<svg width="15" height="15  " viewBox="0 0 28 24" fill="none" xmlns="http://www.w3.org/2000/svg">
<path d="M18.1053 10.6552L15.4546 14.8683C15.3462 15.0186 15.2143 15.1505 15.064 15.259C14.7011 15.5121 14.2531 15.6119 13.8172 15.5367C13.3812 15.4616 12.9925 15.2175 12.7353 14.8575C12.4782 14.4975 12.3734 14.0507 12.4437 13.6139C12.514 13.1771 12.7537 12.7857 13.1108 12.5246L17.324 9.87391C17.4198 9.80715 17.5337 9.77136 17.6505 9.77136C17.7672 9.77136 17.8811 9.80715 17.9769 9.87391C18.0972 9.96075 18.1782 10.0917 18.2023 10.2381C18.2263 10.3844 18.1914 10.5344 18.1053 10.6552Z" fill="white"/>
<path d="M14.1934 1.28577C7.29046 1.28577 1.69337 6.87728 1.69337 13.7802C1.68914 16.8342 2.80723 19.7834 4.83511 22.067C4.89649 22.134 4.9523 22.2009 5.01368 22.2623C5.14573 22.4053 5.30604 22.5193 5.48444 22.597C5.66283 22.6748 5.85544 22.7147 6.05006 22.7142C6.24468 22.7137 6.43707 22.6727 6.61505 22.594C6.79302 22.5153 6.95271 22.4004 7.08399 22.2567C7.98885 21.2734 9.08786 20.4885 10.3116 19.9515C11.5353 19.4146 12.857 19.1374 14.1934 19.1374C15.5297 19.1374 16.8515 19.4146 18.0752 19.9515C19.2989 20.4885 20.3979 21.2734 21.3027 22.2567C21.434 22.4004 21.5937 22.5153 21.7717 22.594C21.9496 22.6727 22.142 22.7137 22.3367 22.7142C22.5313 22.7147 22.7239 22.6748 22.9023 22.597C23.0807 22.5193 23.241 22.4053 23.373 22.2623L23.5516 22.067C25.5795 19.7834 26.6976 16.8342 26.6933 13.7802C26.6933 6.87728 21.0963 1.28577 14.1934 1.28577Z" stroke="white" stroke-width="2" stroke-linecap="round" stroke-linejoin="round"/>
<path d="M14.1932 4.85718V6.64289M23.1218 13.7857H21.3361M7.05036 13.7857H5.26465M9.14244 8.73496L7.8796 7.47213M19.244 8.73496L20.5068 7.47213" stroke="white" stroke-width="2" stroke-miterlimit="10" stroke-linecap="round"/>
</svg>
