<svg width="20" height="20" viewBox="0 0 25 24" fill="none" xmlns="http://www.w3.org/2000/svg">
<path d="M9.0498 7.75004C9.0498 5.00004 6.4698 3.24004 6.3598 3.17004C6.19444 3.05827 5.9994 2.99854 5.7998 2.99854C5.6002 2.99854 5.40517 3.05827 5.2398 3.17004C5.1298 3.25004 2.5498 5.00004 2.5498 7.75004C2.5498 8.612 2.89221 9.43865 3.50171 10.0481C4.1112 10.6576 4.93785 11 5.7998 11C6.66176 11 7.48841 10.6576 8.0979 10.0481C8.70739 9.43865 9.0498 8.612 9.0498 7.75004ZM5.7998 9.00004C5.46828 9.00004 5.15034 8.86835 4.91592 8.63393C4.6815 8.39951 4.5498 8.08156 4.5498 7.75004C4.6321 6.80192 5.08046 5.92314 5.7998 5.30004C6.52344 5.91977 6.97276 6.80042 7.0498 7.75004C7.0498 8.08156 6.91811 8.39951 6.68369 8.63393C6.44927 8.86835 6.13133 9.00004 5.7998 9.00004ZM11.8598 10.17C11.6944 10.0583 11.4994 9.99853 11.2998 9.99853C11.1002 9.99853 10.9052 10.0583 10.7398 10.17C10.5698 10.29 6.5498 13.07 6.5498 17.25C6.5498 18.5098 7.05025 19.718 7.94105 20.6088C8.83185 21.4996 10.04 22 11.2998 22C12.5596 22 13.7678 21.4996 14.6586 20.6088C15.5494 19.718 16.0498 18.5098 16.0498 17.25C16.0498 13 12.0498 10.28 11.8598 10.17ZM11.2998 20C10.9387 20 10.5811 19.9289 10.2474 19.7907C9.91378 19.6525 9.61062 19.4499 9.35526 19.1946C9.0999 18.9392 8.89734 18.6361 8.75914 18.3024C8.62094 17.9688 8.5498 17.6112 8.5498 17.25C8.5498 14.94 10.3598 13.08 11.3098 12.25C12.2498 13.04 14.0498 14.88 14.0498 17.25C14.0498 17.6112 13.9787 17.9688 13.8405 18.3024C13.7023 18.6361 13.4997 18.9392 13.2443 19.1946C12.989 19.4499 12.6858 19.6525 12.3522 19.7907C12.0185 19.9289 11.6609 20 11.2998 20ZM18.1098 2.17004C17.9444 2.05827 17.7494 1.99854 17.5498 1.99854C17.3502 1.99854 17.1552 2.05827 16.9898 2.17004C16.8498 2.27004 13.5498 4.55004 13.5498 8.00004C13.5498 9.06091 13.9712 10.0783 14.7214 10.8285C15.4715 11.5786 16.4889 12 17.5498 12C18.6107 12 19.6281 11.5786 20.3782 10.8285C21.1284 10.0783 21.5498 9.06091 21.5498 8.00004C21.5498 4.51004 18.2498 2.26004 18.1098 2.17004ZM17.5498 10C17.0194 10 16.5107 9.78933 16.1356 9.41426C15.7605 9.03918 15.5498 8.53048 15.5498 8.00004C15.6183 7.27796 15.8306 6.57687 16.174 5.93802C16.5175 5.29917 16.9853 4.73546 17.5498 4.28004C18.1164 4.73352 18.5857 5.29676 18.9293 5.93599C19.273 6.57522 19.4841 7.27727 19.5498 8.00004C19.5498 8.53048 19.3391 9.03918 18.964 9.41426C18.5889 9.78933 18.0802 10 17.5498 10Z" fill="white"/>
</svg>
