<svg width="25" height="24" viewBox="0 0 25 24" fill="none" xmlns="http://www.w3.org/2000/svg">
<path d="M22.0097 20.29L18.2997 16.61C19.7398 14.8144 20.4372 12.5353 20.2485 10.2413C20.0598 7.94733 18.9994 5.81281 17.2852 4.27667C15.5711 2.74053 13.3335 1.91954 11.0326 1.9825C8.73175 2.04546 6.54243 2.98759 4.91485 4.61517C3.28727 6.24275 2.34514 8.43207 2.28218 10.7329C2.21922 13.0338 3.04021 15.2714 4.57635 16.9855C6.11249 18.6997 8.24701 19.7601 10.541 19.9488C12.835 20.1375 15.1141 19.4401 16.9097 18L20.5897 21.68C20.6827 21.7738 20.7933 21.8482 20.9151 21.8989C21.037 21.9497 21.1677 21.9758 21.2997 21.9758C21.4317 21.9758 21.5624 21.9497 21.6843 21.8989C21.8062 21.8482 21.9168 21.7738 22.0097 21.68C22.19 21.4936 22.2907 21.2444 22.2907 20.985C22.2907 20.7257 22.19 20.4765 22.0097 20.29ZM11.2997 18C9.91524 18 8.56186 17.5895 7.41071 16.8203C6.25957 16.0511 5.36236 14.9579 4.83255 13.6788C4.30274 12.3997 4.16411 10.9923 4.43421 9.63439C4.70431 8.27653 5.37099 7.02925 6.34996 6.05028C7.32893 5.07131 8.57621 4.40463 9.93407 4.13453C11.292 3.86443 12.6994 4.00306 13.9785 4.53287C15.2576 5.06268 16.3508 5.95989 17.12 7.11103C17.8892 8.26218 18.2997 9.61556 18.2997 11C18.2997 12.8565 17.5622 14.637 16.2495 15.9498C14.9367 17.2625 13.1562 18 11.2997 18Z" fill="white"/>
</svg>
