<svg width="27" height="26" viewBox="0 0 27 26" fill="none" xmlns="http://www.w3.org/2000/svg">
<path d="M13.4998 16.2727C15.3073 16.2727 16.7725 14.8075 16.7725 13C16.7725 11.1925 15.3073 9.72729 13.4998 9.72729C11.6923 9.72729 10.2271 11.1925 10.2271 13C10.2271 14.8075 11.6923 16.2727 13.4998 16.2727Z" stroke="white" stroke-width="2" stroke-linecap="round" stroke-linejoin="round"/>
<path d="M21.5727 16.2727C21.4275 16.6018 21.3842 16.9668 21.4484 17.3206C21.5125 17.6745 21.6812 18.0011 21.9327 18.2582L21.9982 18.3236C22.201 18.5263 22.362 18.7669 22.4718 19.0318C22.5816 19.2966 22.6381 19.5805 22.6381 19.8673C22.6381 20.154 22.5816 20.4379 22.4718 20.7028C22.362 20.9676 22.201 21.2083 21.9982 21.4109C21.7956 21.6138 21.5549 21.7747 21.2901 21.8845C21.0252 21.9943 20.7413 22.0508 20.4545 22.0508C20.1678 22.0508 19.8839 21.9943 19.619 21.8845C19.3542 21.7747 19.1135 21.6138 18.9109 21.4109L18.8455 21.3455C18.5884 21.094 18.2618 20.9253 17.9079 20.8611C17.554 20.7969 17.189 20.8402 16.86 20.9855C16.5373 21.1237 16.2622 21.3534 16.0683 21.646C15.8745 21.9387 15.7705 22.2817 15.7691 22.6327V22.8182C15.7691 23.3968 15.5392 23.9518 15.1301 24.361C14.7209 24.7701 14.1659 25 13.5873 25C13.0086 25 12.4537 24.7701 12.0445 24.361C11.6353 23.9518 11.4055 23.3968 11.4055 22.8182V22.72C11.397 22.3589 11.2801 22.0087 11.07 21.7149C10.8599 21.4212 10.5663 21.1974 10.2273 21.0727C9.89824 20.9275 9.53324 20.8842 9.17936 20.9484C8.82547 21.0125 8.49892 21.1812 8.24182 21.4327L8.17636 21.4982C7.97373 21.701 7.7331 21.862 7.46823 21.9718C7.20336 22.0816 6.91945 22.1381 6.63273 22.1381C6.346 22.1381 6.06209 22.0816 5.79722 21.9718C5.53235 21.862 5.29172 21.701 5.08909 21.4982C4.88623 21.2956 4.7253 21.0549 4.61551 20.7901C4.50571 20.5252 4.44919 20.2413 4.44919 19.9545C4.44919 19.6678 4.50571 19.3839 4.61551 19.119C4.7253 18.8542 4.88623 18.6135 5.08909 18.4109L5.15455 18.3455C5.40604 18.0884 5.57475 17.7618 5.63891 17.4079C5.70308 17.054 5.65976 16.689 5.51455 16.36C5.37626 16.0373 5.14664 15.7622 4.85396 15.5683C4.56128 15.3745 4.21831 15.2705 3.86727 15.2691H3.68182C3.10316 15.2691 2.54821 15.0392 2.13904 14.6301C1.72987 14.2209 1.5 13.6659 1.5 13.0873C1.5 12.5086 1.72987 11.9537 2.13904 11.5445C2.54821 11.1353 3.10316 10.9055 3.68182 10.9055H3.78C4.14108 10.897 4.49128 10.7801 4.78505 10.57C5.07883 10.3599 5.3026 10.0663 5.42727 9.72727C5.57249 9.39824 5.61581 9.03324 5.55164 8.67936C5.48748 8.32547 5.31877 7.99892 5.06727 7.74182L5.00182 7.67636C4.79896 7.47373 4.63803 7.2331 4.52823 6.96823C4.41843 6.70336 4.36192 6.41945 4.36192 6.13273C4.36192 5.846 4.41843 5.56209 4.52823 5.29722C4.63803 5.03235 4.79896 4.79172 5.00182 4.58909C5.20445 4.38623 5.44508 4.2253 5.70995 4.11551C5.97482 4.00571 6.25873 3.94919 6.54545 3.94919C6.83218 3.94919 7.11609 4.00571 7.38096 4.11551C7.64583 4.2253 7.88646 4.38623 8.08909 4.58909L8.15455 4.65455C8.41165 4.90604 8.7382 5.07475 9.09209 5.13891C9.44597 5.20308 9.81096 5.15976 10.14 5.01455H10.2273C10.5499 4.87626 10.8251 4.64664 11.0189 4.35396C11.2128 4.06128 11.3168 3.71831 11.3182 3.36727V3.18182C11.3182 2.60316 11.5481 2.04821 11.9572 1.63904C12.3664 1.22987 12.9213 1 13.5 1C14.0787 1 14.6336 1.22987 15.0428 1.63904C15.4519 2.04821 15.6818 2.60316 15.6818 3.18182V3.28C15.6832 3.63104 15.7872 3.97401 15.9811 4.26669C16.1749 4.55937 16.4501 4.78899 16.7727 4.92727C17.1018 5.07249 17.4668 5.11581 17.8206 5.05164C18.1745 4.98748 18.5011 4.81877 18.7582 4.56727L18.8236 4.50182C19.0263 4.29896 19.2669 4.13803 19.5318 4.02823C19.7966 3.91843 20.0805 3.86192 20.3673 3.86192C20.654 3.86192 20.9379 3.91843 21.2028 4.02823C21.4676 4.13803 21.7083 4.29896 21.9109 4.50182C22.1138 4.70445 22.2747 4.94508 22.3845 5.20995C22.4943 5.47482 22.5508 5.75873 22.5508 6.04545C22.5508 6.33218 22.4943 6.61609 22.3845 6.88096C22.2747 7.14583 22.1138 7.38646 21.9109 7.58909L21.8455 7.65455C21.594 7.91165 21.4253 8.2382 21.3611 8.59209C21.2969 8.94597 21.3402 9.31096 21.4855 9.64V9.72727C21.6237 10.0499 21.8534 10.3251 22.146 10.5189C22.4387 10.7128 22.7817 10.8168 23.1327 10.8182H23.3182C23.8968 10.8182 24.4518 11.0481 24.861 11.4572C25.2701 11.8664 25.5 12.4213 25.5 13C25.5 13.5787 25.2701 14.1336 24.861 14.5428C24.4518 14.9519 23.8968 15.1818 23.3182 15.1818H23.22C22.869 15.1832 22.526 15.2872 22.2333 15.4811C21.9406 15.6749 21.711 15.9501 21.5727 16.2727V16.2727Z" stroke="white" stroke-width="2" stroke-linecap="round" stroke-linejoin="round"/>
</svg>
