<svg width="27" height="26" viewBox="0 0 27 26" fill="none" xmlns="http://www.w3.org/2000/svg">
<path d="M13.7498 16.2727C15.5573 16.2727 17.0225 14.8075 17.0225 13C17.0225 11.1925 15.5573 9.72729 13.7498 9.72729C11.9423 9.72729 10.4771 11.1925 10.4771 13C10.4771 14.8075 11.9423 16.2727 13.7498 16.2727Z" stroke="white" stroke-width="2" stroke-linecap="round" stroke-linejoin="round"/>
<path d="M21.8227 16.2727C21.6775 16.6018 21.6342 16.9668 21.6984 17.3206C21.7625 17.6745 21.9312 18.0011 22.1827 18.2582L22.2482 18.3236C22.451 18.5263 22.612 18.7669 22.7218 19.0318C22.8316 19.2966 22.8881 19.5805 22.8881 19.8673C22.8881 20.154 22.8316 20.4379 22.7218 20.7028C22.612 20.9676 22.451 21.2083 22.2482 21.4109C22.0456 21.6138 21.8049 21.7747 21.5401 21.8845C21.2752 21.9943 20.9913 22.0508 20.7045 22.0508C20.4178 22.0508 20.1339 21.9943 19.869 21.8845C19.6042 21.7747 19.3635 21.6138 19.1609 21.4109L19.0955 21.3455C18.8384 21.094 18.5118 20.9253 18.1579 20.8611C17.804 20.7969 17.439 20.8402 17.11 20.9855C16.7873 21.1237 16.5122 21.3534 16.3183 21.646C16.1245 21.9387 16.0205 22.2817 16.0191 22.6327V22.8182C16.0191 23.3968 15.7892 23.9518 15.3801 24.361C14.9709 24.7701 14.4159 25 13.8373 25C13.2586 25 12.7037 24.7701 12.2945 24.361C11.8853 23.9518 11.6555 23.3968 11.6555 22.8182V22.72C11.647 22.3589 11.5301 22.0087 11.32 21.7149C11.1099 21.4212 10.8163 21.1974 10.4773 21.0727C10.1482 20.9275 9.78324 20.8842 9.42936 20.9484C9.07547 21.0125 8.74892 21.1812 8.49182 21.4327L8.42636 21.4982C8.22373 21.701 7.9831 21.862 7.71823 21.9718C7.45336 22.0816 7.16945 22.1381 6.88273 22.1381C6.596 22.1381 6.31209 22.0816 6.04722 21.9718C5.78235 21.862 5.54172 21.701 5.33909 21.4982C5.13623 21.2956 4.9753 21.0549 4.86551 20.7901C4.75571 20.5252 4.69919 20.2413 4.69919 19.9545C4.69919 19.6678 4.75571 19.3839 4.86551 19.119C4.9753 18.8542 5.13623 18.6135 5.33909 18.4109L5.40455 18.3455C5.65604 18.0884 5.82475 17.7618 5.88891 17.4079C5.95308 17.054 5.90976 16.689 5.76455 16.36C5.62626 16.0373 5.39664 15.7622 5.10396 15.5683C4.81128 15.3745 4.46831 15.2705 4.11727 15.2691H3.93182C3.35316 15.2691 2.79821 15.0392 2.38904 14.6301C1.97987 14.2209 1.75 13.6659 1.75 13.0873C1.75 12.5086 1.97987 11.9537 2.38904 11.5445C2.79821 11.1353 3.35316 10.9055 3.93182 10.9055H4.03C4.39108 10.897 4.74128 10.7801 5.03505 10.57C5.32883 10.3599 5.5526 10.0663 5.67727 9.72727C5.82249 9.39824 5.86581 9.03324 5.80164 8.67936C5.73748 8.32547 5.56877 7.99892 5.31727 7.74182L5.25182 7.67636C5.04896 7.47373 4.88803 7.2331 4.77823 6.96823C4.66843 6.70336 4.61192 6.41945 4.61192 6.13273C4.61192 5.846 4.66843 5.56209 4.77823 5.29722C4.88803 5.03235 5.04896 4.79172 5.25182 4.58909C5.45445 4.38623 5.69508 4.2253 5.95995 4.11551C6.22482 4.00571 6.50873 3.94919 6.79545 3.94919C7.08218 3.94919 7.36609 4.00571 7.63096 4.11551C7.89583 4.2253 8.13646 4.38623 8.33909 4.58909L8.40455 4.65455C8.66165 4.90604 8.9882 5.07475 9.34209 5.13891C9.69597 5.20308 10.061 5.15976 10.39 5.01455H10.4773C10.7999 4.87626 11.0751 4.64664 11.2689 4.35396C11.4628 4.06128 11.5668 3.71831 11.5682 3.36727V3.18182C11.5682 2.60316 11.7981 2.04821 12.2072 1.63904C12.6164 1.22987 13.1713 1 13.75 1C14.3287 1 14.8836 1.22987 15.2928 1.63904C15.7019 2.04821 15.9318 2.60316 15.9318 3.18182V3.28C15.9332 3.63104 16.0372 3.97401 16.2311 4.26669C16.4249 4.55937 16.7001 4.78899 17.0227 4.92727C17.3518 5.07249 17.7168 5.11581 18.0706 5.05164C18.4245 4.98748 18.7511 4.81877 19.0082 4.56727L19.0736 4.50182C19.2763 4.29896 19.5169 4.13803 19.7818 4.02823C20.0466 3.91843 20.3305 3.86192 20.6173 3.86192C20.904 3.86192 21.1879 3.91843 21.4528 4.02823C21.7176 4.13803 21.9583 4.29896 22.1609 4.50182C22.3638 4.70445 22.5247 4.94508 22.6345 5.20995C22.7443 5.47482 22.8008 5.75873 22.8008 6.04545C22.8008 6.33218 22.7443 6.61609 22.6345 6.88096C22.5247 7.14583 22.3638 7.38646 22.1609 7.58909L22.0955 7.65455C21.844 7.91165 21.6753 8.2382 21.6111 8.59209C21.5469 8.94597 21.5902 9.31096 21.7355 9.64V9.72727C21.8737 10.0499 22.1034 10.3251 22.396 10.5189C22.6887 10.7128 23.0317 10.8168 23.3827 10.8182H23.5682C24.1468 10.8182 24.7018 11.0481 25.111 11.4572C25.5201 11.8664 25.75 12.4213 25.75 13C25.75 13.5787 25.5201 14.1336 25.111 14.5428C24.7018 14.9519 24.1468 15.1818 23.5682 15.1818H23.47C23.119 15.1832 22.776 15.2872 22.4833 15.4811C22.1906 15.6749 21.961 15.9501 21.8227 16.2727V16.2727Z" stroke="white" stroke-width="2" stroke-linecap="round" stroke-linejoin="round"/>
</svg>
