<svg width="25" height="24" viewBox="0 0 25 24" fill="none" xmlns="http://www.w3.org/2000/svg">
<path d="M21.6599 16.13L19.6599 14.98L20.5499 14.74C20.6806 14.7095 20.8038 14.6531 20.9122 14.574C21.0207 14.4949 21.1121 14.3948 21.181 14.2797C21.2499 14.1645 21.295 14.0367 21.3134 13.9037C21.3319 13.7708 21.3235 13.6355 21.2885 13.5059C21.2536 13.3763 21.193 13.2551 21.1102 13.1495C21.0275 13.0438 20.9243 12.9559 20.8068 12.8909C20.6894 12.826 20.5601 12.7854 20.4266 12.7715C20.2931 12.7576 20.1582 12.7707 20.0299 12.81L17.2099 13.57L14.4999 12L17.2099 10.43L20.0299 11.19H20.2899C20.5551 11.2245 20.8231 11.1522 21.0351 10.989C21.247 10.8259 21.3854 10.5852 21.4199 10.32C21.4543 10.0548 21.3821 9.78673 21.2189 9.57482C21.0557 9.3629 20.8151 9.22448 20.5499 9.19L19.6599 9L21.6599 7.85C21.7741 7.78434 21.8743 7.69682 21.9547 7.59243C22.0352 7.48805 22.0942 7.36885 22.1286 7.24163C22.163 7.11441 22.1719 6.98168 22.155 6.85099C22.138 6.72031 22.0955 6.59425 22.0299 6.48C21.9642 6.36575 21.8767 6.26555 21.7723 6.18513C21.6679 6.1047 21.5487 6.04562 21.4215 6.01126C21.2943 5.97691 21.1615 5.96794 21.0309 5.98488C20.9002 6.00182 20.7741 6.04434 20.6599 6.11L18.4999 7.37L18.7999 6.26C18.8392 6.13169 18.8523 5.99677 18.8384 5.86328C18.8245 5.7298 18.7839 5.60048 18.7189 5.48303C18.654 5.36558 18.5661 5.2624 18.4604 5.17965C18.3548 5.09689 18.2335 5.03625 18.1039 5.00133C17.9744 4.96642 17.8391 4.95795 17.7061 4.97642C17.5732 4.9949 17.4454 5.03994 17.3302 5.10886C17.215 5.17779 17.1149 5.26919 17.0359 5.37762C16.9568 5.48605 16.9003 5.60929 16.8699 5.74L16.0499 8.74L13.4999 10.27V7.14L15.5699 5.07C15.7561 4.88264 15.8607 4.62919 15.8607 4.365C15.8607 4.10081 15.7561 3.84736 15.5699 3.66C15.4769 3.56627 15.3663 3.49188 15.2444 3.44111C15.1226 3.39034 14.9919 3.3642 14.8599 3.3642C14.7279 3.3642 14.5972 3.39034 14.4753 3.44111C14.3534 3.49188 14.2428 3.56627 14.1499 3.66L13.4999 4.31V2C13.4999 1.73478 13.3945 1.48043 13.207 1.29289C13.0194 1.10536 12.7651 1 12.4999 1C12.2347 1 11.9803 1.10536 11.7928 1.29289C11.6052 1.48043 11.4999 1.73478 11.4999 2V4.47L10.6899 3.66C10.5969 3.56627 10.4863 3.49188 10.3644 3.44111C10.2426 3.39034 10.1119 3.3642 9.97987 3.3642C9.84786 3.3642 9.71715 3.39034 9.59529 3.44111C9.47343 3.49188 9.36283 3.56627 9.26987 3.66C9.08362 3.84736 8.97908 4.10081 8.97908 4.365C8.97908 4.62919 9.08362 4.88264 9.26987 5.07L11.4999 7.3V10.3L8.92987 8.78L8.10987 5.78C8.07942 5.64929 8.02297 5.52605 7.94388 5.41762C7.8648 5.30919 7.76469 5.21779 7.64954 5.14886C7.53438 5.07994 7.40653 5.03489 7.2736 5.01642C7.14067 4.99795 7.00539 5.00642 6.8758 5.04133C6.74621 5.07625 6.62498 5.13689 6.51933 5.21965C6.41367 5.3024 6.32575 5.40558 6.26081 5.52303C6.19587 5.64048 6.15524 5.7698 6.14134 5.90328C6.12743 6.03677 6.14053 6.17169 6.17987 6.3L6.49987 7.37L4.33987 6.13C4.22562 6.06434 4.09956 6.02182 3.96887 6.00488C3.83819 5.98794 3.70546 5.99691 3.57824 6.03126C3.45102 6.06562 3.33182 6.1247 3.22744 6.20513C3.12305 6.28555 3.03553 6.38575 2.96987 6.5C2.90421 6.61425 2.86169 6.74031 2.84475 6.871C2.82781 7.00168 2.83678 7.13441 2.87113 7.26163C2.94052 7.51855 3.10913 7.73739 3.33987 7.87L5.33987 9L4.49987 9.26C4.23465 9.29448 3.994 9.4329 3.83084 9.64482C3.66768 9.85673 3.59539 10.1248 3.62987 10.39C3.66435 10.6552 3.80277 10.8959 4.01469 11.059C4.2266 11.2222 4.49465 11.2945 4.75987 11.26H5.01987L7.83987 10.5L10.4999 12L7.78987 13.57L4.96987 12.81C4.83755 12.7609 4.69633 12.7403 4.5555 12.7497C4.41466 12.759 4.2774 12.7981 4.15274 12.8643C4.02808 12.9305 3.91885 13.0223 3.83223 13.1338C3.74561 13.2452 3.68356 13.3737 3.65017 13.5108C3.61677 13.648 3.61278 13.7906 3.63847 13.9294C3.66415 14.0682 3.71893 14.2 3.79919 14.3161C3.87945 14.4322 3.98338 14.53 4.10415 14.6031C4.22491 14.6761 4.35978 14.7228 4.49987 14.74L5.38987 14.98L3.38987 16.13C3.15913 16.2626 2.99052 16.4814 2.92113 16.7384C2.85175 16.9953 2.88726 17.2693 3.01987 17.5C3.15248 17.7307 3.37132 17.8993 3.62824 17.9687C3.88517 18.0381 4.15913 18.0026 4.38987 17.87L6.49987 16.63L6.19987 17.74C6.16023 17.868 6.14672 18.0027 6.16014 18.136C6.17357 18.2693 6.21365 18.3986 6.27802 18.5161C6.34238 18.6337 6.42971 18.7371 6.53482 18.8202C6.63993 18.9033 6.76067 18.9645 6.88987 19C6.97626 19.0098 7.06348 19.0098 7.14987 19C7.37563 19.0077 7.59736 18.9388 7.77895 18.8044C7.96053 18.6701 8.09127 18.4782 8.14987 18.26L8.96987 15.26L11.4999 13.73V16.86L9.42987 18.93C9.24362 19.1174 9.13908 19.3708 9.13908 19.635C9.13908 19.8992 9.24362 20.1526 9.42987 20.34C9.52248 20.4345 9.63293 20.5097 9.7548 20.5612C9.87668 20.6127 10.0076 20.6395 10.1399 20.64C10.2722 20.6395 10.4031 20.6127 10.5249 20.5612C10.6468 20.5097 10.7573 20.4345 10.8499 20.34L11.4999 19.69V22C11.4999 22.2652 11.6052 22.5196 11.7928 22.7071C11.9803 22.8946 12.2347 23 12.4999 23C12.7651 23 13.0194 22.8946 13.207 22.7071C13.3945 22.5196 13.4999 22.2652 13.4999 22V19.53L14.3099 20.34C14.4028 20.4337 14.5134 20.5081 14.6353 20.5589C14.7572 20.6097 14.8879 20.6358 15.0199 20.6358C15.1519 20.6358 15.2826 20.6097 15.4044 20.5589C15.5263 20.5081 15.6369 20.4337 15.7299 20.34C15.9161 20.1526 16.0207 19.8992 16.0207 19.635C16.0207 19.3708 15.9161 19.1174 15.7299 18.93L13.4999 16.7V13.7L16.0699 15.19L16.8899 18.19C16.9485 18.4082 17.0792 18.6001 17.2608 18.7344C17.4424 18.8688 17.6641 18.9377 17.8899 18.93C17.9763 18.9398 18.0635 18.9398 18.1499 18.93C18.2775 18.8964 18.3973 18.8378 18.5022 18.7576C18.6071 18.6774 18.6951 18.5773 18.7611 18.4629C18.8272 18.3486 18.8699 18.2223 18.8868 18.0913C18.9038 17.9604 18.8946 17.8274 18.8599 17.7L18.4999 16.63L20.6399 17.87C20.7541 17.9357 20.8802 17.9782 21.0109 17.9951C21.1415 18.0121 21.2743 18.0031 21.4015 17.9687C21.5287 17.9344 21.6479 17.8753 21.7523 17.7949C21.8567 17.7144 21.9442 17.6143 22.0099 17.5C22.0755 17.3857 22.118 17.2597 22.135 17.129C22.1519 16.9983 22.143 16.8656 22.1086 16.7384C22.0742 16.6112 22.0152 16.492 21.9347 16.3876C21.8543 16.2832 21.7541 16.1957 21.6399 16.13H21.6599Z" fill="white"/>
</svg>
