<svg width="25" height="24" viewBox="0 0 25 24" fill="none" xmlns="http://www.w3.org/2000/svg">
<path d="M13.8997 15.28V10.5C13.8997 10.2348 13.7943 9.98043 13.6068 9.79289C13.4193 9.60536 13.1649 9.5 12.8997 9.5C12.6345 9.5 12.3801 9.60536 12.1926 9.79289C12.005 9.98043 11.8997 10.2348 11.8997 10.5V15.28C11.5974 15.4545 11.3461 15.7051 11.1706 16.0068C10.9952 16.3086 10.9018 16.651 10.8997 17C10.8997 17.5304 11.1104 18.0391 11.4855 18.4142C11.8605 18.7893 12.3693 19 12.8997 19C13.4301 19 13.9388 18.7893 14.3139 18.4142C14.689 18.0391 14.8997 17.5304 14.8997 17C14.8976 16.651 14.8042 16.3086 14.6287 16.0068C14.4533 15.7051 14.202 15.4545 13.8997 15.28ZM17.3997 13V5.5C17.3997 4.30653 16.9256 3.16193 16.0817 2.31802C15.2377 1.47411 14.0932 1 12.8997 1C11.7062 1 10.5616 1.47411 9.7177 2.31802C8.87379 3.16193 8.39968 4.30653 8.39968 5.5V13C7.70853 13.7832 7.23381 14.7333 7.0225 15.7562C6.81118 16.7792 6.87059 17.8396 7.19484 18.8326C7.51909 19.8255 8.09695 20.7166 8.87126 21.4177C9.64557 22.1188 10.5895 22.6056 11.6097 22.83C12.0335 22.9266 12.4653 22.9835 12.8997 23C14.0603 23.0054 15.1976 22.6741 16.1737 22.0461C17.1498 21.4182 17.9228 20.5207 18.3991 19.4623C18.8754 18.4038 19.0345 17.23 18.8571 16.083C18.6797 14.936 18.1735 13.8651 17.3997 13ZM15.3997 20.07C14.604 20.7755 13.5607 21.136 12.4993 21.0722C11.4378 21.0085 10.4452 20.5256 9.73968 19.73C9.03421 18.9344 8.6737 17.891 8.73746 16.8296C8.80122 15.7681 9.28403 14.7755 10.0797 14.07C10.1742 13.9774 10.2493 13.8669 10.3008 13.7451C10.3523 13.6232 10.3791 13.4923 10.3797 13.36V5.5C10.3797 4.83696 10.6431 4.20107 11.1119 3.73223C11.5808 3.26339 12.2166 3 12.8797 3C13.5427 3 14.1786 3.26339 14.6475 3.73223C15.1163 4.20107 15.3797 4.83696 15.3797 5.5V13.44C15.3802 13.5723 15.407 13.7032 15.4585 13.8251C15.51 13.9469 15.5852 14.0574 15.6797 14.15C16.0884 14.5449 16.4083 15.0223 16.6181 15.5505C16.8279 16.0787 16.9227 16.6456 16.8962 17.2133C16.8697 17.781 16.7225 18.3366 16.4645 18.843C16.2064 19.3493 15.8434 19.7949 15.3997 20.15V20.07Z" fill="white"/>
</svg>
