<svg width="25" height="25" viewBox="0 0 25 10" fill="none" xmlns="http://www.w3.org/2000/svg">
<path d="M0.333496 1.33333C0.333496 0.979711 0.473972 0.640573 0.724021 0.390525C0.974069 0.140476 1.31321 0 1.66683 0H3.00016C3.35378 0 3.69292 0.140476 3.94297 0.390525C4.19302 0.640573 4.3335 0.979711 4.3335 1.33333C4.3335 1.68696 4.19302 2.02609 3.94297 2.27614C3.69292 2.52619 3.35378 2.66667 3.00016 2.66667H1.66683C1.31321 2.66667 0.974069 2.52619 0.724021 2.27614C0.473972 2.02609 0.333496 1.68696 0.333496 1.33333ZM7.00016 1.33333C7.00016 0.979711 7.14064 0.640573 7.39069 0.390525C7.64074 0.140476 7.97987 0 8.3335 0H20.3335C20.6871 0 21.0263 0.140476 21.2763 0.390525C21.5264 0.640573 21.6668 0.979711 21.6668 1.33333C21.6668 1.68696 21.5264 2.02609 21.2763 2.27614C21.0263 2.52619 20.6871 2.66667 20.3335 2.66667H8.3335C7.97987 2.66667 7.64074 2.52619 7.39069 2.27614C7.14064 2.02609 7.00016 1.68696 7.00016 1.33333ZM0.333496 8C0.333496 7.64638 0.473972 7.30724 0.724021 7.05719C0.974069 6.80714 1.31321 6.66667 1.66683 6.66667H3.00016C3.35378 6.66667 3.69292 6.80714 3.94297 7.05719C4.19302 7.30724 4.3335 7.64638 4.3335 8C4.3335 8.35362 4.19302 8.69276 3.94297 8.94281C3.69292 9.19286 3.35378 9.33333 3.00016 9.33333H1.66683C1.31321 9.33333 0.974069 9.19286 0.724021 8.94281C0.473972 8.69276 0.333496 8.35362 0.333496 8ZM7.00016 8C7.00016 7.64638 7.14064 7.30724 7.39069 7.05719C7.64074 6.80714 7.97987 6.66667 8.3335 6.66667H20.3335C20.6871 6.66667 21.0263 6.80714 21.2763 7.05719C21.5264 7.30724 21.6668 7.64638 21.6668 8C21.6668 8.35362 21.5264 8.69276 21.2763 8.94281C21.0263 9.19286 20.6871 9.33333 20.3335 9.33333H8.3335C7.97987 9.33333 7.64074 9.19286 7.39069 8.94281C7.14064 8.69276 7.00016 8.35362 7.00016 8ZM0.333496 14.6667C0.333496 14.313 0.473972 13.9739 0.724021 13.7239C0.974069 13.4738 1.31321 13.3333 1.66683 13.3333H3.00016C3.35378 13.3333 3.69292 13.4738 3.94297 13.7239C4.19302 13.9739 4.3335 14.313 4.3335 14.6667C4.3335 15.0203 4.19302 15.3594 3.94297 15.6095C3.69292 15.8595 3.35378 16 3.00016 16H1.66683C1.31321 16 0.974069 15.8595 0.724021 15.6095C0.473972 15.3594 0.333496 15.0203 0.333496 14.6667ZM7.00016 14.6667C7.00016 14.313 7.14064 13.9739 7.39069 13.7239C7.64074 13.4738 7.97987 13.3333 8.3335 13.3333H20.3335C20.6871 13.3333 21.0263 13.4738 21.2763 13.7239C21.5264 13.9739 21.6668 14.313 21.6668 14.6667C21.6668 15.0203 21.5264 15.3594 21.2763 15.6095C21.0263 15.8595 20.6871 16 20.3335 16H8.3335C7.97987 16 7.64074 15.8595 7.39069 15.6095C7.14064 15.3594 7.00016 15.0203 7.00016 14.6667Z" fill="white"/>
</svg>
