<svg width="25" height="24" viewBox="0 0 25 24" fill="none" xmlns="http://www.w3.org/2000/svg">
<path d="M9.9401 4.58998C10.1724 4.3563 10.4588 4.18363 10.774 4.08732C11.0891 3.99102 11.4231 3.97407 11.7464 4.03797C12.0696 4.10188 12.3721 4.24466 12.6269 4.45363C12.8816 4.66259 13.0808 4.93127 13.2067 5.23578C13.3326 5.54028 13.3814 5.87117 13.3486 6.19905C13.3158 6.52692 13.2025 6.84161 13.0188 7.11514C12.835 7.38868 12.5866 7.61258 12.2955 7.76695C12.0043 7.92132 11.6796 8.00137 11.3501 7.99998H2.3501M12.9401 19.41C13.1724 19.6437 13.4588 19.8163 13.774 19.9126C14.0891 20.0089 14.4231 20.0259 14.7464 19.962C15.0696 19.8981 15.3721 19.7553 15.6269 19.5463C15.8816 19.3374 16.0808 19.0687 16.2067 18.7642C16.3326 18.4597 16.3814 18.1288 16.3486 17.8009C16.3158 17.473 16.2025 17.1584 16.0188 16.8848C15.835 16.6113 15.5866 16.3874 15.2955 16.233C15.0043 16.0786 14.6796 15.9986 14.3501 16H2.3501M18.0801 7.72998C18.3709 7.43987 18.7288 7.2259 19.122 7.10699C19.5152 6.98809 19.9317 6.96792 20.3346 7.04827C20.7375 7.12861 21.1143 7.307 21.4318 7.56765C21.7494 7.8283 21.9978 8.16318 22.1551 8.54267C22.3124 8.92217 22.3737 9.33458 22.3337 9.74343C22.2937 10.1523 22.1536 10.545 21.9257 10.8868C21.6978 11.2286 21.3892 11.509 21.0272 11.7031C20.6652 11.8973 20.2609 11.9992 19.8501 12H2.3501" stroke="white" stroke-width="2" stroke-linecap="round" stroke-linejoin="round"/>
</svg>
