<svg width="820" height="342" viewBox="0 0 820 342" fill="none" xmlns="http://www.w3.org/2000/svg">
<g clip-path="url(#clip0_417_283)">
<rect width="820" height="342" fill="#022224"/>
<g style="mix-blend-mode:overlay" opacity="0.1">
<path d="M-36.7448 48.2423L12.9031 -30.2256C14.1528 -32.2007 17.0811 -32.0515 18.1234 -29.9595L66.548 67.2271L126.163 198.837C126.508 199.599 126.52 200.47 126.195 201.241L99.566 264.4C98.6168 266.652 95.5181 266.885 94.2427 264.801L51.3839 194.759C50.8388 193.868 49.8695 193.325 48.825 193.325H-125.704C-128.098 193.325 -129.528 190.659 -128.203 188.665L-86.738 126.25C-86.182 125.413 -85.2439 124.91 -84.2392 124.91H1.151C3.47028 124.91 4.91235 122.391 3.73795 120.391L-36.7965 51.3654C-37.3654 50.3968 -37.3454 49.1915 -36.7448 48.2423Z" fill="black"/>
<path d="M-228.435 264.49L-257.766 194.586C-258.103 193.785 -258.075 192.877 -257.69 192.098L-187.445 49.7881L-151.351 -23.9924L-106.534 -111.369C-105.58 -113.23 -103.061 -113.567 -101.65 -112.023L-32.6199 -36.455C-31.6908 -35.4379 -31.5738 -33.9189 -32.336 -32.7715L-73.8166 29.6661L-223.135 264.936C-224.434 266.983 -227.498 266.725 -228.435 264.49Z" fill="black"/>
</g>
<g style="mix-blend-mode:overlay" opacity="0.1">
<path d="M231.316 -31.3805L262.583 56.0522C263.37 58.253 261.45 60.4686 259.159 60.002L152.762 38.3271L12.3492 4.27709C11.5366 4.08002 10.8431 3.55274 10.4359 2.82239L-22.9404 -57.0463C-24.1302 -59.1805 -22.4061 -61.7658 -19.9785 -61.4876L61.6017 -52.1388C62.6394 -52.0198 63.6642 -52.4492 64.3073 -53.2723L171.758 -190.803C173.232 -192.69 176.213 -192.175 176.969 -189.903L200.624 -118.802C200.941 -117.849 200.76 -116.8 200.141 -116.008L147.57 -48.7196C146.142 -46.892 147.239 -44.2046 149.538 -43.8988L228.887 -33.3441C230 -33.196 230.938 -32.4382 231.316 -31.3805Z" fill="black"/>
<path d="M178.927 -315.57L252.07 -295.646C252.908 -295.418 253.606 -294.837 253.984 -294.054L322.878 -151.086L358.796 -77.2196L400.058 11.8909C400.937 13.7892 399.652 15.9817 397.566 16.1426L295.519 24.0148C294.145 24.1207 292.876 23.2777 292.441 21.9707L268.778 -49.1569L175.312 -311.668C174.498 -313.952 176.588 -316.207 178.927 -315.57Z" fill="black"/>
</g>
<g style="mix-blend-mode:overlay" opacity="0.1">
<path d="M403.255 393.242L452.903 314.774C454.153 312.799 457.081 312.949 458.123 315.04L506.548 412.227L566.163 543.837C566.508 544.599 566.52 545.47 566.195 546.241L539.566 609.4C538.617 611.652 535.518 611.885 534.243 609.801L491.384 539.759C490.839 538.868 489.869 538.325 488.825 538.325H314.296C311.902 538.325 310.472 535.659 311.797 533.665L353.262 471.25C353.818 470.413 354.756 469.91 355.761 469.91H441.151C443.47 469.91 444.912 467.391 443.738 465.391L403.203 396.365C402.635 395.397 402.655 394.192 403.255 393.242Z" fill="black"/>
<path d="M211.565 609.49L182.234 539.586C181.897 538.785 181.925 537.877 182.31 537.098L252.555 394.788L288.649 321.008L333.466 233.631C334.42 231.77 336.939 231.433 338.35 232.977L407.38 308.545C408.309 309.562 408.426 311.081 407.664 312.228L366.183 374.666L216.865 609.936C215.566 611.983 212.502 611.725 211.565 609.49Z" fill="black"/>
</g>
<g style="mix-blend-mode:overlay" opacity="0.1">
<path d="M643.255 -82.7577L692.903 -161.226C694.153 -163.201 697.081 -163.051 698.123 -160.96L746.548 -63.7729L806.163 67.8372C806.508 68.5989 806.52 69.4701 806.195 70.2405L779.566 133.4C778.617 135.652 775.518 135.885 774.243 133.801L731.384 63.7589C730.839 62.8679 729.869 62.3247 728.825 62.3247H554.296C551.902 62.3247 550.472 59.6586 551.797 57.6646L593.262 -4.75008C593.818 -5.58699 594.756 -6.08998 595.761 -6.08998H681.151C683.47 -6.08998 684.912 -8.60921 683.738 -10.6091L643.203 -79.6346C642.635 -80.6032 642.655 -81.8085 643.255 -82.7577Z" fill="black"/>
<path d="M451.565 133.49L422.234 63.5864C421.897 62.7849 421.925 61.8771 422.31 61.0977L492.555 -81.2119L528.649 -154.992L573.466 -242.369C574.42 -244.23 576.939 -244.567 578.35 -243.023L647.38 -167.455C648.309 -166.438 648.426 -164.919 647.664 -163.772L606.183 -101.334L456.865 133.936C455.566 135.983 452.502 135.725 451.565 133.49Z" fill="black"/>
</g>
<g style="mix-blend-mode:overlay" opacity="0.1">
<path d="M768.255 349.242L817.903 270.774C819.153 268.799 822.081 268.949 823.123 271.04L871.548 368.227L931.163 499.837C931.508 500.599 931.52 501.47 931.195 502.241L904.566 565.4C903.617 567.652 900.518 567.885 899.243 565.801L856.384 495.759C855.839 494.868 854.869 494.325 853.825 494.325H679.296C676.902 494.325 675.472 491.659 676.797 489.665L718.262 427.25C718.818 426.413 719.756 425.91 720.761 425.91H806.151C808.47 425.91 809.912 423.391 808.738 421.391L768.203 352.365C767.635 351.397 767.655 350.192 768.255 349.242Z" fill="black"/>
<path d="M576.565 565.49L547.234 495.586C546.897 494.785 546.925 493.877 547.31 493.098L617.555 350.788L653.649 277.008L698.466 189.631C699.42 187.77 701.939 187.433 703.35 188.977L772.38 264.545C773.309 265.562 773.426 267.081 772.664 268.228L731.183 330.666L581.865 565.936C580.566 567.983 577.502 567.725 576.565 565.49Z" fill="black"/>
</g>
<g filter="url(#filter0_b_417_283)">
<rect x="46" y="46" width="728" height="250" rx="3" fill="url(#paint0_linear_417_283)"/>
</g>
<path d="M418.281 163.357L431.583 142.258C431.918 141.727 432.702 141.767 432.981 142.329L445.956 168.462L461.928 203.852C462.021 204.056 462.024 204.291 461.937 204.498L454.802 221.481C454.548 222.087 453.718 222.149 453.376 221.589L441.893 202.755C441.747 202.515 441.487 202.369 441.207 202.369H394.446C393.804 202.369 393.421 201.652 393.776 201.116L404.886 184.333C405.035 184.108 405.286 183.973 405.556 183.973H428.434C429.055 183.973 429.442 183.295 429.127 182.758L418.267 164.197C418.114 163.937 418.12 163.613 418.281 163.357Z" fill="white"/>
<path d="M366.921 221.505L359.063 202.709C358.973 202.493 358.98 202.249 359.083 202.039L377.904 163.773L387.574 143.934L399.582 120.439C399.838 119.938 400.513 119.847 400.891 120.263L419.386 140.583C419.635 140.856 419.666 141.265 419.462 141.573L408.348 158.362L368.341 221.625C367.993 222.176 367.172 222.106 366.921 221.505Z" fill="white"/>
</g>
<defs>
<filter id="filter0_b_417_283" x="42" y="42" width="736" height="258" filterUnits="userSpaceOnUse" color-interpolation-filters="sRGB">
<feFlood flood-opacity="0" result="BackgroundImageFix"/>
<feGaussianBlur in="BackgroundImageFix" stdDeviation="2"/>
<feComposite in2="SourceAlpha" operator="in" result="effect1_backgroundBlur_417_283"/>
<feBlend mode="normal" in="SourceGraphic" in2="effect1_backgroundBlur_417_283" result="shape"/>
</filter>
<linearGradient id="paint0_linear_417_283" x1="58" y1="50.5" x2="789.5" y2="305.5" gradientUnits="userSpaceOnUse">
<stop stop-color="#D9D9D9" stop-opacity="0.07"/>
<stop offset="1" stop-color="#D9D9D9" stop-opacity="0.08"/>
</linearGradient>
<clipPath id="clip0_417_283">
<rect width="820" height="342" fill="white"/>
</clipPath>
</defs>
</svg>
