<svg width="385" height="380" viewBox="0 0 385 380" fill="none" xmlns="http://www.w3.org/2000/svg">
<path d="M221.255 161.242L270.903 82.7744C272.153 80.7993 275.081 80.9485 276.123 83.0405L324.548 180.227L384.163 311.837C384.508 312.599 384.52 313.47 384.195 314.241L357.566 377.4C356.617 379.652 353.518 379.885 352.243 377.801L309.384 307.759C308.839 306.868 307.869 306.325 306.825 306.325H132.296C129.902 306.325 128.472 303.659 129.797 301.665L171.262 239.25C171.818 238.413 172.756 237.91 173.761 237.91H259.151C261.47 237.91 262.912 235.391 261.738 233.391L221.203 164.365C220.635 163.397 220.655 162.192 221.255 161.242Z" fill="white"/>
<path d="M29.5646 377.49L0.23365 307.586C-0.102615 306.785 -0.074808 305.877 0.309875 305.098L70.555 162.788L106.649 89.0076L151.466 1.63122C152.42 -0.230137 154.939 -0.56748 156.35 0.977034L225.38 76.545C226.309 77.5621 226.426 79.0811 225.664 80.2285L184.183 142.666L34.8645 377.936C33.5664 379.983 30.5025 379.725 29.5646 377.49Z" fill="white"/>
</svg>
